<svg xmlns="http://www.w3.org/2000/svg" viewBox="0 0 474.75 112.82"><defs><style>.cls-1{fill:#efb3ce;}.cls-2{fill:#fff;}</style></defs><g id="Layer_2" data-name="Layer 2"><g id="Layer_1-2" data-name="Layer 1"><path class="cls-1" d="M22,80.1c-3.54-1.37-6.76.42-9.42,2.67-.57-5.56-1-11.07-1.35-16.64a2.73,2.73,0,0,0-.58-1.62A80.16,80.16,0,0,0,11.1,56c0-2.48-2.69-3.44-4.6-2.48-3.94,2-2.83,7.41-2.61,11,.09,1.33.13,2.73.22,4.06C3.57,73,2.9,77.44,2.47,81.94,2,87.23-.19,100.33,8.55,99.31c3.5-.4,7.19-2.49,10.11-4.33s6.41-4.17,7.23-7.71A6.2,6.2,0,0,0,22,80.1Z"/><path class="cls-1" d="M37.81,49a3.07,3.07,0,0,0-1.46-.33,2.62,2.62,0,0,0-2.13-.85,5.35,5.35,0,0,0-4.56,3.76,7.81,7.81,0,0,0-.35,4.86,4,4,0,0,0,6,2.21C37.13,57.44,38,55,39,53.14A3.17,3.17,0,0,0,37.81,49Z"/><path class="cls-1" d="M42.43,70.46a1.82,1.82,0,0,0-.26-.6,3.23,3.23,0,0,0-2.94-3.81,21,21,0,0,0-6.39.66,3.18,3.18,0,0,0-2.16,3,71.4,71.4,0,0,0,1.87,16,10.87,10.87,0,0,0,2.25,4.79,6.76,6.76,0,0,0,2,1.64c.8.41,2.07.44,2.75,1a3,3,0,0,0,5.08-2.25A64.17,64.17,0,0,0,42.43,70.46Z"/><path class="cls-1" d="M69.23,75.94a4.47,4.47,0,0,0-3.75-.21,25.14,25.14,0,0,1-2.39.91,17.26,17.26,0,0,0-2.4.61,4.82,4.82,0,0,0-.51-.65,2.86,2.86,0,0,0-1.29-.81,2.77,2.77,0,0,0,1.18-1.19c2.2-3.7,7.44-4.62,10.25-7.91,2.58-3,3.3-8,.32-11A10.81,10.81,0,0,0,63.07,53a2.9,2.9,0,0,0-2.33-1,2.84,2.84,0,0,0-2.81,3.17c-1.34,2-2.61,4.13-3.77,6.29a1.78,1.78,0,0,0-.77.62,9.32,9.32,0,0,0-2.74,6.08,3,3,0,0,0-1.26,2.52c0,.79,0,1.64-.06,2.43-.11.3-.22.67-.33,1a2.72,2.72,0,0,0,.29,2.17v.18a2.88,2.88,0,0,0,.05,1.76l1.19,3.85a3.35,3.35,0,0,0,.44.84,3.82,3.82,0,0,0-.61,1.89,56.94,56.94,0,0,0,1.08,15.74c.82,3.86,2.22,8.68,6.83,9.28a5.41,5.41,0,0,0,6.37-6.17c-.31-2.6-1.53-5.29-2.27-7.82s-1.65-5.36-2.44-8l5,0c3,0,5.84-.64,6.36-4C71.73,81.33,71.69,77.33,69.23,75.94Z"/><path class="cls-1" d="M114.32,50.25c0-.07.05-.49.05-.55,0-.31.16-.61.21-.86a3.07,3.07,0,0,0-2.21-3.7,3.2,3.2,0,0,0-3.69,2.22,10.48,10.48,0,0,0-.15,5.77,3,3,0,0,0,3.8,2,3.13,3.13,0,0,0,2-3.81.26.26,0,0,0-.07-.18V51A2.74,2.74,0,0,1,114.32,50.25Z"/><path class="cls-1" d="M105.07,70.81c-1.34-5.06-5.13-15.52-11.93-14.49-.12,0-.24.07-.36.07a3.22,3.22,0,0,0-1.59-.5,31,31,0,0,0-7.48.62,3.29,3.29,0,0,0-3.56,2.28c-.94,3.42-2.06,6.85-2.75,10.32a5.85,5.85,0,0,0,.72,4.53c.28,1.57.57,3.14,1,4.64-2.24,4.55,3.77,10.15,6.93,12.8,3.89,3.23,9.74,4.9,13.18,0,2.27-3.22,4-10-1.33-11.25a7.63,7.63,0,0,0-5.72.94,4.82,4.82,0,0,0-1.87,2.48v.06c-1-.46-2-1.1-2.64-1.39a3,3,0,0,0-1.22-.27c.06-.18.18-.31.17-.49a8.63,8.63,0,0,0-.2-5.39.06.06,0,0,0-.06-.06c.84-.08,1.63-.11,2.41-.19,3.81-.1,7.61-.2,11.42-.36a2.7,2.7,0,0,0,1.61-.53c.13,0,.25.06.37,0A3,3,0,0,0,105.07,70.81ZM91.85,69.4A3.13,3.13,0,0,0,91.61,67a4.26,4.26,0,0,1,0-4c1.16.33,2.49.48,3.12,1.43.76,1.19.63,3.26,1,4.64,0,.06.07.18.07.24Z"/><path class="cls-1" d="M155.76,44.36a3,3,0,0,0-4.14-1,1.41,1.41,0,0,0-.47.44,3.26,3.26,0,0,0-1.41-.45h-.12a7.9,7.9,0,0,0-2.91-.29h-.06a3.58,3.58,0,0,0-.78.15,3.49,3.49,0,0,0-.84.32l-1.2,0a2.57,2.57,0,0,0-2.43-.17,6.1,6.1,0,0,1-.9.26l-3,.08A2.75,2.75,0,0,0,135.22,45a4.46,4.46,0,0,0-1.3,1.07,3.11,3.11,0,0,0-1.93.29c-3.34,1.67-6.74,3.58-8.52,7a8.62,8.62,0,0,0,.8,9.68,6.91,6.91,0,0,0,8.39,1.84,3.44,3.44,0,0,0,1.07-.75,3.65,3.65,0,0,0,1.15.27c1.34.09,2.67.17,3.94.2.06.06.06.12.13.18a8.13,8.13,0,0,1,1.6,3.41l-.07,2.25A2.36,2.36,0,0,0,139.8,72c-.69,6-9.4,3.52-13.22,2.9-2.49-.36-5.48-1.31-7.87-.1-1.84,1-2.82,3.11-3.37,5-.93,3.55-.4,10,3.63,11.61,2,.74,3.21.28,4.09-.71a3.45,3.45,0,0,0,.62.29c4.27,1.82,9.26.66,13.13-1.56,4.17-2.36,7.27-6.26,9.7-10.33,2.67-4.49,5.07-9.53,3.48-14.83a2.79,2.79,0,0,0-3.26-2c-.31-.42-.68-.77-1-1.19a2.83,2.83,0,0,0-1.66-.8,3.1,3.1,0,0,0-2.7-1.57c-.42-.05-.91,0-1.33-.09,2.44-1.39,6.11.21,8.71.32,2.85.17,6.4-.53,7.53-3.53a8.68,8.68,0,0,0,.29-4.92,1.34,1.34,0,0,0,.22-.68A8.39,8.39,0,0,0,155.76,44.36Z"/><path class="cls-1" d="M241.4,50.71c-.86-2.7-5.33-2.89-5.8.16a9.71,9.71,0,0,1-2.69,5.65c-.88.93-1.95,1.62-2.83,2.56-.07-.06-.13-.18-.25-.24s-.31-.29-.5-.41a10.45,10.45,0,0,0-6.56-3.71,2.57,2.57,0,0,0-1.51.16,15.36,15.36,0,0,0-3.33-.09,3.11,3.11,0,0,0-2.77,2.56,2.89,2.89,0,0,0-2.09,1c-2.59,2.8-3.34,6.4-3.24,10a2.59,2.59,0,0,0-1.07.7,3.21,3.21,0,0,0-.85,2.15l0,1a3.13,3.13,0,0,0,1,2.09,2.26,2.26,0,0,0,1,.58,2.37,2.37,0,0,0,1.15.22A5.91,5.91,0,0,0,214,78.42a5.2,5.2,0,0,0,3.22,2.83c4.27,1.28,6.82-2.79,8.91-6.06a15.68,15.68,0,0,0,1.29-1.61c.21,3.64,1.37,8.58,5.14,9.45s6.7-2.6,8-5.61c1.59-3.8,1.83-8.23,2.15-12.25A34.35,34.35,0,0,0,241.4,50.71ZM223.89,65.37c0,.42.09.9.1,1.33a10.12,10.12,0,0,1-1.26,2.52c-1.21.09-2.42.18-3.62.21-.25,0-.43.08-.61.08,0-.24-.07-.48-.08-.79-.08-.9-.11-1.81-.13-2.72a7.17,7.17,0,0,1,.09-1,6.62,6.62,0,0,1,4.48-2.31,1.8,1.8,0,0,0,.84-.2,12.54,12.54,0,0,0,1.16.58A3.17,3.17,0,0,0,223.89,65.37Zm10.28,11.19c-.19-.06-.25-.24-.38-.48a6.06,6.06,0,0,0,1-.33,3.69,3.69,0,0,1-.29.5A1.06,1.06,0,0,0,234.17,76.56Z"/><path class="cls-1" d="M336.51,90.35c.05-.48,0-.91.09-1.27.08-3.83-1.63-6.81-5.84-6-2.17.43-3.68.47-5.53-.94a6.43,6.43,0,0,1-1-.89,7.58,7.58,0,0,0-.69-1.13c-.2-.42-.39-.9-.58-1.32-.71-1.56-1.36-3.36-2.6-4.54a12,12,0,0,0,3.26-.27c3.6-.82,7.14-2.06,10.67-3.13a3.13,3.13,0,0,0,2-3.81c-.26-.78-.59-1.56-.91-2.28v-.06a4.82,4.82,0,0,0-2.84-4.48,1,1,0,0,0-.36-.11,2.77,2.77,0,0,0-2.08-.73,3,3,0,0,0-1.79.65c-4.74-.9-10,0-14.29,1.53-2.63,1-4.94,2.86-5.29,5.84a6.65,6.65,0,0,0,0,1.09,3,3,0,0,0-1.36,1.25,7.9,7.9,0,0,0-.45,1.05,1.94,1.94,0,0,0-.33,1.16,2.77,2.77,0,0,0,.09,1.21,2.69,2.69,0,0,0,.57,1,.45.45,0,0,0,.25.24,14.9,14.9,0,0,0-.12,2.31,33.86,33.86,0,0,0-6-8.34,3.37,3.37,0,0,0-.69-1c-.43-.41-.93-.82-1.36-1.18-.62-.53-1.3-1-1.91-1.58a2.78,2.78,0,0,0-1.53-.69A2.52,2.52,0,0,0,294,62.48a5.79,5.79,0,0,0-6.62,3.27c-.06.06-.06.13-.05.25a3.25,3.25,0,0,0-1.65-.45,3,3,0,0,0,.56-1.83c-.36-6.84-1-13.68-1.93-20.45a4.49,4.49,0,0,0-.27-1,3,3,0,0,0,1-2.09c.41-7.71.62-15.66-1.39-23.07a4.6,4.6,0,0,0,.17-2.85,3.14,3.14,0,0,0-.64-1.26,4.68,4.68,0,0,0-.09-.91,6.44,6.44,0,0,0-4.23-4.8c-.06,0-.07-.06-.13-.12-2.78-2.35-6.61,1.33-4.67,3.89.87,5.37,1.73,10.75,2.66,16.18-.08,10.43-2.52,21.11-2.73,31.43a1.67,1.67,0,0,0,.07.54,86.48,86.48,0,0,0-.29,9.65c.06,2.3-.15,5.58.81,7.92a3,3,0,0,0,2,3.89,11.23,11.23,0,0,0,.31,4.91,9.68,9.68,0,0,0-.77,2.93c-.29,2.68.31,7,2.59,8.73a10.67,10.67,0,0,0,.92.58,2.54,2.54,0,0,0,.63.77c3.59,3.18,8.13,3.54,12.39,2.16a13,13,0,0,0,3.74-.4c5.45-1.6,8.52-7,10.81-11.75a3.73,3.73,0,0,0,.28-.74,2.47,2.47,0,0,0-.11-2.06,7,7,0,0,0,1.17-3.48,2.38,2.38,0,0,0,.49.23,2.18,2.18,0,0,0,.86.22c-.8,4.26,3.47,8.09,7.68,9.38a4.59,4.59,0,0,0,.93.94,19.71,19.71,0,0,0,11.33,3.28c1.75,0,4-.16,5.16-1.59a5.66,5.66,0,0,0,.92-1.78A2.42,2.42,0,0,0,336.51,90.35Zm-8.07-24.16c-1,.26-1.92.59-2.94.86a3.08,3.08,0,0,0-.1-1.33A12.43,12.43,0,0,1,328.44,66.19Zm-36.28,18c-1.74,3-5,2.2-6.42-.55-.07-.06-.07-.18-.13-.24.28-.86.62-1.66.9-2.51,0-.06,0-.06.06-.13l2.53-.25a21.35,21.35,0,0,1,4.29.07c.32.72.71,1.44,1.09,2.16A2.7,2.7,0,0,0,292.16,84.18Z"/><path class="cls-1" d="M377.62,55.91c-.18,0-.3.07-.48.07a2.82,2.82,0,0,0-1.65-.44,3,3,0,0,0-1.85.66,3.13,3.13,0,0,0-1.83,4.11,10.06,10.06,0,0,0-.57,3.59,4.19,4.19,0,0,0-.1.85,3.56,3.56,0,0,0-.39,1.35c0,.18,0,.3,0,.48a2.89,2.89,0,0,0,0,.79l0,.73c-1.63-2-3.49-3.79-3.92-6.2a2.92,2.92,0,0,0-2.35-2.06,3,3,0,0,0-2.2-.86l-3.08.09a3.16,3.16,0,0,0-1.79.65l-6.11,0a3,3,0,0,0-2.94,3.11,25.76,25.76,0,0,1,.26,3,10.06,10.06,0,0,0-1.32,7.44,25.33,25.33,0,0,0-1.07,14.1,2.56,2.56,0,0,0,1.13,1.79,3,3,0,0,0,.86,2.82,6.53,6.53,0,0,0,6.87,1.4,2.1,2.1,0,0,0,.71-.44,5.16,5.16,0,0,0,4.68.84c3.78-1.07,4.83-4.86,5.65-8.21.05-.25.1-.55.16-.8A17.45,17.45,0,0,0,367.74,87c1.31,3.73,1.2,8.88,6.23,9.3,3.57.27,3.95-3.62,4.25-6.24.4-3.16.8-6.27,1.14-9.43.05-.24.11-.43.16-.67.1-1,.19-2,.29-2.86a2.35,2.35,0,0,0-.66-1.92c-.14-.79-.22-1.57-.42-2.3,0-.24,0-.42.1-.67a13.5,13.5,0,0,0,.38-4.13,3.72,3.72,0,0,0,.8-1.84l.59-7.29A2.85,2.85,0,0,0,377.62,55.91Zm-17.8,19.82a3.55,3.55,0,0,0-3.72,3.07c.13-1.64,1.17-1.49-.77-1.5a6.13,6.13,0,0,0-1.81.11c-.18.07-.36.07-.54.14a.78.78,0,0,1,0-.37,3.25,3.25,0,0,0,.81-1.36,37.83,37.83,0,0,0,.92-6.45,7.87,7.87,0,0,0,2.36-.06,3.33,3.33,0,0,0,2.37-1.58,2.37,2.37,0,0,1,1.17.82C361.67,70.1,360.56,73.71,359.82,75.73Zm13.67,4.79c0-.79,0-1.58.06-2.3,0,.42,0,.84,0,1.33A5.92,5.92,0,0,1,373.49,80.52Z"/><path class="cls-1" d="M420.12,58.19a3.22,3.22,0,0,0,.26-1.35l0-1a3.13,3.13,0,0,0-1-2.09,2.26,2.26,0,0,0-1-.58,1.85,1.85,0,0,0-.85-.22,13.63,13.63,0,0,0-2.51-5.58,3.2,3.2,0,0,0-4.84-.29,11.29,11.29,0,0,0-2.12-.13c-2.29.06-5.61.33-7.75,1.66a3.14,3.14,0,0,0-3,1.35,15.37,15.37,0,0,0-1.87,13.94,2.87,2.87,0,0,0-1.06,1.18,35.91,35.91,0,0,0-3.72,12.47c0,.18-.05.43,0,.61-.42.31-.83.57-1.19.88-2,1.57-1.81,4.78.87,5.49a.25.25,0,0,1,.19.06A7.36,7.36,0,0,0,392,88.4a4,4,0,0,0,4.33,1.4c2.41,2.12,6.35,2.57,9.45,3.33a3,3,0,0,0,3.68-2.88A2.16,2.16,0,0,0,410,90a10.34,10.34,0,0,0-.29-18.13,3,3,0,0,0-4.08,1.2,9.14,9.14,0,0,1-.58,1,2.81,2.81,0,0,0-.38,1.53,1.94,1.94,0,0,0-.66.26,5.9,5.9,0,0,0-1.43.94,16.77,16.77,0,0,0,.3-4.74,4.34,4.34,0,0,0,.27-1.09l.46-5.6a2.82,2.82,0,0,0-.09-1c.11-.67.27-1.29.44-2a15.93,15.93,0,0,0,2.71,2c4.84,2.6,9.2.49,13-2.77A2.48,2.48,0,0,0,420.12,58.19Z"/><path class="cls-1" d="M472.54,86.1a4.33,4.33,0,0,0-.12-2.31,14.82,14.82,0,0,0-3-4.65,3,3,0,0,0-.57-1.19c-2.26-3-4.51-6.07-6.83-9-1.81-2.32-3.72-3.6-6.73-3-.12,0-.24.07-.36.07a16.57,16.57,0,0,0-5.5-.1A3.5,3.5,0,0,0,447,67.55a8.82,8.82,0,0,0-2.77,2.68,2.28,2.28,0,0,0-.67-.41c.1-.49.27-1,.38-1.53a26.43,26.43,0,0,0,2.39-10.13,3.4,3.4,0,0,0,.76-.87c1.62-2.83,1.45-6.89,1.67-10.11.26-3.89.4-7.71.36-11.59a2.86,2.86,0,0,0,.53-2.68c-.2-.73-.4-1.45-.6-2.23q-.11-3.91-.57-7.81c-.3-2.48-.85-4.65-2.58-6.3-.33-1.14-.67-2.29-1.06-3.43a14.74,14.74,0,0,0-2.72-6.72A3,3,0,0,0,437,9.59a46.53,46.53,0,0,1,1.87,4.56,18.78,18.78,0,0,1,.15,3.21c-.06.06-.06.18-.12.24a37.62,37.62,0,0,0-2,12.12,2.94,2.94,0,0,0,.4,1.51,4.64,4.64,0,0,0-.1.85,2.88,2.88,0,0,0-.39,1.1,3.13,3.13,0,0,0,1.11,3.13c0,.79,0,2,0,2.18,0,1.27.13,2.55.17,3.88a3.9,3.9,0,0,0,.27,1.26,6.23,6.23,0,0,0,.29,4.18c.08.73.1,1.52.18,2.24,0,.18.07.36.08.54a109.19,109.19,0,0,1-2.35,18.69,2.76,2.76,0,0,0,.36,2.23,106.85,106.85,0,0,0-2.15,17,2.1,2.1,0,0,0,.15,1.09c-.57,3.71-1.55,7.62-1.51,11.38a7.89,7.89,0,0,0,.88,3.73,6.32,6.32,0,0,0,1.49,1.6c.06,0,.06.06.13.12a4.08,4.08,0,0,0,2.23,2.18,4.73,4.73,0,0,0,.91.28,3,3,0,0,0,4.61-1.76,5.61,5.61,0,0,1,.22-.85A10.9,10.9,0,0,0,447,101c.44-1.71.88-3.42,1.31-5.19a8.21,8.21,0,0,0,2,3.53c2.37,2.6,4.83,4.36,5.29,8.17a3,3,0,0,0,5.94.63c.34-1.1,3.58-2,4.53-2.73a16,16,0,0,0,4.11-4.66c2.37-4.12,2.72-9,2.6-13.59A3.45,3.45,0,0,0,472.54,86.1Z"/><path class="cls-2" d="M457.94,112.44c0-.18,0-.37-.19-.48a8.44,8.44,0,0,1-1.06-1c-.37-.35-.68-.77-1.06-1.12a.51.51,0,0,1-.18-.3,1.93,1.93,0,0,0-.45-.77,3.09,3.09,0,0,1-.57-1.08.48.48,0,0,0-.13-.24,2.74,2.74,0,0,1-.69-1.13c-.07-.12-.13-.24-.19-.36s-.44-.42-.45-.72a.21.21,0,0,1-.06-.12,6.72,6.72,0,0,0-1.43-1.48,1.81,1.81,0,0,1-.43-.29,7.29,7.29,0,0,0-.86-.52c-.18-.06-.31-.36-.44-.54a4.4,4.4,0,0,0-.5-.71.91.91,0,0,1-.2-.54,3.62,3.62,0,0,0-.52-1.38c0-.06-.06-.06-.12-.12s-.12.06-.12.12a1.74,1.74,0,0,0-.33,1.23,3.23,3.23,0,0,0-.08,1.51,1.79,1.79,0,0,1-.15,1c-.12.3-.05.61-.28.85a.9.9,0,0,0-.17.62.74.74,0,0,1-.16.61,18,18,0,0,1-1.7,2c-.12.07-.18.25-.24.25-.48.13-.71.57-1,.88-.18.12-.3.31-.48.37a1.12,1.12,0,0,0-.47.44,4.05,4.05,0,0,1-.47.38.57.57,0,0,0-.3.25,2.21,2.21,0,0,1-.77.56,1.8,1.8,0,0,1-.54.14,1.31,1.31,0,0,0-.72.14c-.3.19-.66.08-1,.15h-.19c-.43-.35-1-.4-1.29-1a2.89,2.89,0,0,1-.63-.89c-.13-.24-.43-.41-.62-.65a.89.89,0,0,1-.25-.42,1.85,1.85,0,0,0-.69-.89,9.4,9.4,0,0,1-1.18-1.06c-.37-.29-.8-.59-1.23-.88a.87.87,0,0,0-.37-.11,1,1,0,0,1-.87-.83c0-.18-.12-.3-.13-.48s.11-.3.11-.42c-.07-.43.1-.92-.16-1.33-.06-.12,0-.25,0-.37,0-.85,0-1.76-.06-2.6A10.14,10.14,0,0,0,432,98a3.7,3.7,0,0,1,0-1.15,14.09,14.09,0,0,1,.42-2.19,5,5,0,0,0,.31-2.14,3.94,3.94,0,0,1,.2-1.46c.11-.3-.07-.6.16-.85,0-.42.28-.74.21-1.16a8.15,8.15,0,0,1,0-1.21c-.08-.54.15-1,.08-1.52s0-1,0-1.51c0-.25.17-.49.1-.73.24-.31.11-.61.1-.92a9.57,9.57,0,0,1,.25-1.88c0-.06.06-.13.06-.19a7.74,7.74,0,0,0,.08-1.27,10,10,0,0,0,0-1.34c-.07-.36.1-.67.09-1a5.13,5.13,0,0,1,0-1,11,11,0,0,0,.09-1.21c0-.31.1-.55.09-.86s.23-.49.23-.73a1.54,1.54,0,0,1,.05-.3c0-.67.21-1.28.19-1.89.29-.37.16-.85.33-1.28a7.51,7.51,0,0,0,.33-1.22c.05-.43.28-.86.33-1.29s.16-.73.21-1a6.9,6.9,0,0,1,.22-1c.11-.36.28-.73.39-1.1,0-.06.06-.12.06-.24a10.5,10.5,0,0,1,.08-1.52,1.23,1.23,0,0,1,.16-.67,2.5,2.5,0,0,0,.15-1.16,4.93,4.93,0,0,1,.1-.85c.06-.25-.13-.54.1-.79.06-.07,0-.25,0-.37,0-1-.05-2.06-.08-3.09a1.22,1.22,0,0,1,.1-.79.51.51,0,0,0,0-.42,4.34,4.34,0,0,1-.05-2,1.39,1.39,0,0,0-.09-1.09c-.06-.06,0-.24,0-.37,0-.72,0-1.39-.06-2.12a3.18,3.18,0,0,0-.27-1.26c-.07-.12,0-.25,0-.37,0-.36,0-.78,0-1.15a3.6,3.6,0,0,0-.15-1.15,3.25,3.25,0,0,1,0-1.69,2.09,2.09,0,0,0,0-.25c-.06-.18-.06-.3-.13-.48s.05-.36-.13-.48c0,0,0-.12,0-.18-.09-1.27-.13-2.54-.22-3.76,0-.18-.07-.36,0-.48a.25.25,0,0,0,0-.3,3.08,3.08,0,0,1-.15-1.27c0-.49,0-.91,0-1.4,0-.18.05-.42-.13-.54a.26.26,0,0,1,0-.3,2.11,2.11,0,0,0,.09-1c0-.85,0-1.69-.07-2.54s0-2,.05-3a3.56,3.56,0,0,1,.21-1.15,2.42,2.42,0,0,0,.1-.85,6.13,6.13,0,0,1,.25-1.83c0-.12.05-.25.05-.37,0-.3,0-.54,0-.84a2.2,2.2,0,0,1,0-.92c.11-.3-.08-.6.15-.91-.13-.54.28-1,.32-1.52.3-.25.29-.68.4-1a1.45,1.45,0,0,0,0-1.4c-.07-.06,0-.18,0-.3,0-.43,0-.79,0-1.22a3.28,3.28,0,0,0-.41-1.44,1.6,1.6,0,0,1-.26-1,1.12,1.12,0,0,0-.14-.73c-.07-.24.1-.55-.14-.72a.84.84,0,0,1,0-.12A9,9,0,0,0,436,9.86l0-1.28a15,15,0,0,1-.05-1.75c.1-.61,0-1.22.07-1.76a1.77,1.77,0,0,0-.52-1.32,15.41,15.41,0,0,1-1.3-1.49,1.14,1.14,0,0,0-.5-.41c-.37-.17-.37-.41-.44-.71a.64.64,0,0,1,.46-.8A1.32,1.32,0,0,1,435,.48a6.53,6.53,0,0,1,.67.53c.19.18.37.11.55.11s.18-.13.24-.19.05-.18.11-.31.11-.49.35-.55a1.23,1.23,0,0,1,1,.09.58.58,0,0,1,.32.6,8.94,8.94,0,0,0,0,1.27c0,.12,0,.25,0,.37a1.18,1.18,0,0,0,.52,1.32,2.11,2.11,0,0,0,1,.46,1.22,1.22,0,0,1,.8.46c.06.12.24.12.3.24a2,2,0,0,1,.5.53,6.87,6.87,0,0,0,1.26,1.72l.18.18A4.23,4.23,0,0,0,444,8.67c.18.24.37.42.56.66.06.06.12.12.12.18.14.48.14.48.63.71a.29.29,0,0,1,.18.23,5,5,0,0,0,.45,1,7.12,7.12,0,0,1,.46,1.2,3.52,3.52,0,0,0,.32.72,2.1,2.1,0,0,1,.45,1.2,1.24,1.24,0,0,0,.27.79c.43.35.44.89.7,1.31a1.73,1.73,0,0,0,.45,1.08,1.72,1.72,0,0,1,.26.78,1.23,1.23,0,0,0,.38.78,1.39,1.39,0,0,1,.39,1,2.82,2.82,0,0,0,.29,1.57c.06.06,0,.18,0,.24a8.81,8.81,0,0,0,.16,1.33c0,.06.06.12.06.18a3.48,3.48,0,0,1,.72,2c0,.3,0,.54,0,.84,0,.92.23,1.82.2,2.73a1.85,1.85,0,0,0,.26.78c.13.3.08.67.26.9,0,.79.22,1.51.19,2.3a5.71,5.71,0,0,0,.14,1.09l0,1.09a14.47,14.47,0,0,1-.19,1.7c-.24.19,0,.49-.17.74s0,.48-.1.73c-.1.55-.15,1.09-.2,1.64a9.9,9.9,0,0,1-.42,2.25.92.92,0,0,0-.11.37,4.67,4.67,0,0,1-.19,1.83c-.06.12,0,.24,0,.36,0,.61,0,1.15,0,1.76s0,1.45-.06,2.18a4.51,4.51,0,0,1-.34,1,5.9,5.9,0,0,0-.33,1.28,2.53,2.53,0,0,1-.1.67c-.06.19.07.43-.11.61v.06c.13.49-.1.79-.33,1.23a2.42,2.42,0,0,0-.33,1.46,1.83,1.83,0,0,1-.1.55,4.29,4.29,0,0,0-.34,1.22c0,.43,0,.85-.08,1.22a.54.54,0,0,1-.06.3,4.93,4.93,0,0,0-.15.91,12.57,12.57,0,0,0-.08,1.58,3.58,3.58,0,0,1-.22.8c-.17.55-.28,1.1-.44,1.65a2.81,2.81,0,0,1-.23.55,1.6,1.6,0,0,0-.1.91c.07.42.44.47.86.34a7.44,7.44,0,0,1,1-.45,4.1,4.1,0,0,1,1.93-.35c.48.1,1,0,1.51.08a16,16,0,0,0,3.39,0c.48,0,.9-.15,1.38-.16a5.26,5.26,0,0,1,1.4.21,1.21,1.21,0,0,1,.79.4c.25.24.62.29.87.58s.55.47.8.77a11.81,11.81,0,0,1,1.13,1.31.65.65,0,0,1,.18.23,3.86,3.86,0,0,1,.63.71,7.88,7.88,0,0,0,.93,1.13,4,4,0,0,1,.75,1c.2.42.62.65.82,1.07a9.78,9.78,0,0,1,1.25,1.49c.18.17.25.41.43.59l.57.71c.12.24.19.48.32.72s.37.42.5.66a7.17,7.17,0,0,0,.81,1c.13.11.19.42.26.6a.46.46,0,0,0,.13.3c.19.23.37.41.56.65a.69.69,0,0,1,.19.48c0,.24.14.42.32.54s.31.23.37.35.13.3.2.48a1.26,1.26,0,0,0,.37.6c.07.06.13.11.13.18.13.23.19.48.32.71s.37.36.5.6.19.3.19.48a2.38,2.38,0,0,0,.39.78,5.81,5.81,0,0,1,.65,1.68,3.57,3.57,0,0,1,.27,1.08c0,.18-.05.43.31.36a.6.6,0,0,1,.06.18c0,1,.06,1.94.08,2.91,0,.06-.05.18-.12.18-.42,0-.29.37-.34.56a5.76,5.76,0,0,1-.1.91c-.11.24-.05.55-.22.79a4.57,4.57,0,0,1-.32,1.47v.12c0,.24,0,.42,0,.66a1.21,1.21,0,0,1-.17.62c-.18.18,0,.42-.16.61s0,.3,0,.48a2.94,2.94,0,0,1-.5,1.89.71.71,0,0,0-.16.49,2.93,2.93,0,0,1-.57,1.41,1.12,1.12,0,0,0-.23.56.82.82,0,0,1-.29.61,9.24,9.24,0,0,0-1.16,1.49c-.06.06-.06.12-.12.12a2.45,2.45,0,0,0-.6.44,1.06,1.06,0,0,1-.46.56c-.48.19-.77.63-1.25.76a1.28,1.28,0,0,0-.42.38,1.24,1.24,0,0,1-.47.25,11.78,11.78,0,0,0-1.26.58,3.77,3.77,0,0,1-1.07.45,1.7,1.7,0,0,0-.9.39c-.18.13-.3.31-.48.32a2.23,2.23,0,0,0-1.06.93,4.34,4.34,0,0,0-.63,1.41,1.83,1.83,0,0,0-.1.55,8.19,8.19,0,0,1-.35.8c-.11.25-.35.43-.4.74a1.2,1.2,0,0,1-.52.68,4.41,4.41,0,0,0-.6.5c-.06.06-.05.24-.05.37A2.34,2.34,0,0,0,457.94,112.44Zm-8.07-21.56a6.88,6.88,0,0,1,0,1.21c-.06.31.07.61-.1.85a1.16,1.16,0,0,0,0,.91,10.6,10.6,0,0,1,.16,1.39c0,.13,0,.19,0,.31a8.15,8.15,0,0,1,.42,2.11,2.92,2.92,0,0,0,0,.79,3.66,3.66,0,0,1,.14.72,2.86,2.86,0,0,0,.32.66,3.42,3.42,0,0,1,.2.78.83.83,0,0,0,.44.78,1.09,1.09,0,0,1,.43.29,2.73,2.73,0,0,0,1.11.76c.12.06.19.12.31.17.25.24.38.6.8.77.06,0,.07.12.07.12a3.07,3.07,0,0,0,.75,1c.13.18.37.36.38.6a1.29,1.29,0,0,0,.32.78,1.36,1.36,0,0,1,.51,1,1,1,0,0,0,.38.71,2.43,2.43,0,0,1,.51.84c.19.3.55.47.68.83a1.82,1.82,0,0,0,.38.6,1.13,1.13,0,0,0,1,.27c.24,0,.35-.19.47-.37s.17-.37.23-.55a1.24,1.24,0,0,1,.29-.5,1.85,1.85,0,0,0,.52-1,2,2,0,0,1,.28-.49c.18-.25.35-.5.53-.74s.11-.25.29-.26a.8.8,0,0,0,.66-.5c0-.06.12-.06.11-.12.48-.44,1.2-.52,1.73-1,.06-.06.12,0,.18,0,.18-.25.55,0,.66-.26.3.11.48-.2.72-.26s.59-.38.95-.45c.29-.44.77-.63,1.13-1,.64-.63,1.17-1.31,1.76-2,0-.12.17-.25.17-.37a1.16,1.16,0,0,1,.4-.74,1.39,1.39,0,0,0,.4-.8,2.26,2.26,0,0,1,.46-1,.71.71,0,0,0,.23-.49c.05-.37,0-.73.09-1.09,0-.07.06-.13.06-.19,0-.24.17-.49.22-.79a1.94,1.94,0,0,1,.28-.74c0-.06.06-.12.06-.18,0-.49,0-.91.08-1.4v-.18c.17-.19.05-.43.1-.61a1.11,1.11,0,0,0,.11-.61,7,7,0,0,1,.09-1.21c0-.06,0-.13,0-.19.35-.43.28-1,.39-1.46s-.22-1.27-.18-1.88c-.24-.17-.07-.48-.26-.72a2.63,2.63,0,0,1-.4-1.63.77.77,0,0,0-.07-.36c-.19-.3-.26-.72-.57-.89a.62.62,0,0,1-.25-.42,1.25,1.25,0,0,0-.51-.84.77.77,0,0,1-.31-.53,2,2,0,0,0-.39-.72c-.25-.3-.49-.47-.56-.9a1.88,1.88,0,0,0-.57-.83c-.12-.06-.25-.18-.25-.3a1.62,1.62,0,0,0-.51-1,1.42,1.42,0,0,1-.44-.6c0-.18-.19-.3-.31-.42a1,1,0,0,1-.38-.65,1.14,1.14,0,0,0-.51-.78.67.67,0,0,1-.37-.53.85.85,0,0,0-.5-.6.31.31,0,0,1-.25-.35c.05-.19-.13-.37-.2-.48s-.49-.29-.62-.53-.25-.48-.44-.66a.06.06,0,0,1-.06-.06c-.12-.18-.25-.3-.37-.47a.68.68,0,0,0-.25-.3,19.7,19.7,0,0,0-1.5-1.66c-.13-.3-.43-.47-.62-.71-.06-.06-.19-.12-.19-.24a1.84,1.84,0,0,0-.5-.71c-.31-.3-.56-.65-.87-1s-.68-.65-1-1a.22.22,0,0,0-.18-.06,10.48,10.48,0,0,0-1.33-.21h-.19c-.23.25-.54.13-.78.14s-.78.14-1.09-.09c-.48.07-1-.1-1.38.15a.38.38,0,0,1-.37,0c-.18-.17-.36,0-.54-.1s-.55.07-.79-.1c-.24.25-.54.07-.78.14a4.42,4.42,0,0,0-1.15.27,1.38,1.38,0,0,0-.53.26A2.76,2.76,0,0,1,448,67a.62.62,0,0,0-.41.19,2.89,2.89,0,0,1-.95.64.7.7,0,0,0-.47.61,2.67,2.67,0,0,1-.22.74,1.36,1.36,0,0,0-.28,1.1,2,2,0,0,1-.51,1.34,2.19,2.19,0,0,0-.34.62.48.48,0,0,1-.53.44h-.61a.7.7,0,0,1-.63-1,9.67,9.67,0,0,0,.34-1,2.71,2.71,0,0,1,.4-1,2,2,0,0,0,.32-1.34,1.05,1.05,0,0,1,.34-.92,1.65,1.65,0,0,0,.46-.92,4.33,4.33,0,0,1,.16-.86,3.54,3.54,0,0,0,.26-1.58.75.75,0,0,1,.05-.36,4.36,4.36,0,0,0,.26-1.53,2.82,2.82,0,0,1,.28-1,3.08,3.08,0,0,0,.37-1.83,2.63,2.63,0,0,1,0-1c.17-.48,0-1,.14-1.51.11-.19-.07-.49,0-.73s0-.43,0-.67.17-.37.23-.61c.1-.61.51-1.17.61-1.84a2.2,2.2,0,0,0,.28-1.1,6.43,6.43,0,0,1,.32-1.4c.06-.19.11-.43.17-.61a5,5,0,0,1,.09-1,4.93,4.93,0,0,0,.26-1.64,3.69,3.69,0,0,0,0-1.15,7.55,7.55,0,0,1,.09-1.16,1.42,1.42,0,0,1,.22-1.09c.05-.07,0-.13,0-.19,0-.85,0-1.69.06-2.48,0-.13,0-.31,0-.43a7.34,7.34,0,0,0,.25-2,2.69,2.69,0,0,1,.27-1.22c.05-.06.11-.12.11-.18.05-.55,0-1,.08-1.58,0-.18,0-.36,0-.54s0-.19.05-.25c.29-.49.09-1,.14-1.52-.25-.23-.07-.48-.14-.72a3.62,3.62,0,0,1-.14-.73c-.09-1.27-.13-2.6-.22-3.87a.89.89,0,0,0-.26-.66c-.06-.12-.13-.18-.13-.3a3.06,3.06,0,0,0-.15-1.27c0-.85-.29-1.63-.19-2.48,0-.13,0-.19,0-.31a3.32,3.32,0,0,0-.39-1.08,1.57,1.57,0,0,1-.32-.72c-.07-.24-.07-.54-.14-.78a3.53,3.53,0,0,0-.21-.85c-.12-.24-.07-.54-.32-.78a1.3,1.3,0,0,1-.26-.84,3,3,0,0,0-.46-1.26,1.29,1.29,0,0,1-.32-.78.87.87,0,0,0-.26-.66c-.43-.41-.39-1-.65-1.5,0,0-.32-.84-.38-.9a2.82,2.82,0,0,1-.45-1,1.42,1.42,0,0,0-.38-.84,3.42,3.42,0,0,1-.57-.77,1.1,1.1,0,0,0-.31-.42c-.19-.23-.44-.41-.51-.71a1.57,1.57,0,0,0-.37-.35c-.06-.06-.18-.12-.24-.18a2.86,2.86,0,0,0-1.25-1.3c-.12-.12-.31-.24-.37-.36-.13-.36-.5-.53-.74-.76a8.57,8.57,0,0,0-.81-.77.22.22,0,0,0-.36,0,1.39,1.39,0,0,1-.24.31,2.87,2.87,0,0,0-.21,1,16,16,0,0,0,0,1.7,16.17,16.17,0,0,0,.11,1.7c.14.66.15,1.33.23,2a16.31,16.31,0,0,0,.17,1.7.4.4,0,0,0,.12.23,3.94,3.94,0,0,1,.29,1.63,8.29,8.29,0,0,0,0,1.22,6.09,6.09,0,0,1-.15,1,2.25,2.25,0,0,0-.11.61c-.05.31,0,.67-.09,1a8.11,8.11,0,0,0-.08,1.7,2.63,2.63,0,0,1-.32,1.47.45.45,0,0,0-.12.24c0,.49-.22.92-.08,1.4,0,.12.06.24,0,.3a4,4,0,0,0-.2,1.71c0,.66,0,1.27.05,1.94,0,.12.07.3,0,.36-.24.25,0,.55-.16.79s0,.55,0,.85a3.09,3.09,0,0,1-.09,1.28,4.6,4.6,0,0,0-.07,1.58c0,.42,0,.78,0,1.21a.9.9,0,0,0,.13.54.63.63,0,0,1,.14.54c-.18.31,0,.61-.1.92s0,.66,0,1c0,.06.12.17.13.23a2.36,2.36,0,0,0,.09,1.46c0,.06.07.12.07.18a7,7,0,0,0,.16,1.57c.14.72,0,1.52.18,2.24a5.88,5.88,0,0,1,0,1.51,12.86,12.86,0,0,1,0,1.52c-.05.49.21,1,.16,1.45s0,.91,0,1.33a12.44,12.44,0,0,1-.07,2.13,1,1,0,0,0,.08.79c.19.23-.1.6.15.84a.18.18,0,0,1,0,.24c-.17.19-.11.49-.1.67,0,.55,0,1,0,1.58a24.53,24.53,0,0,1,.08,3.09c-.09,1,0,2.06,0,3a2.78,2.78,0,0,1-.45,1.35,1.17,1.17,0,0,0-.22.73c0,.37,0,.79,0,1.15,0,.13-.05.31-.05.37a2.61,2.61,0,0,1-.4.92,2.43,2.43,0,0,0-.32,1.46,3.06,3.06,0,0,1-.27,1.47,3.79,3.79,0,0,0-.49,1.83,3.7,3.7,0,0,1-.09,1.4,8.83,8.83,0,0,1-.33,1.16A1.71,1.71,0,0,0,436,74c-.05.43,0,.85-.09,1.22a14.46,14.46,0,0,0-.05,2.79c0,.12,0,.24,0,.36s0,.18-.05.24a2.5,2.5,0,0,0-.15,1.16c0,.12.07.36,0,.42-.24.19,0,.49-.16.74s0,.54-.1.79-.05.48,0,.79a10.88,10.88,0,0,0,0,1.51c.07.55-.16,1-.08,1.52v.12c-.24.25,0,.55-.1.73s-.05.55-.1.79c0,.43,0,.91-.09,1.34a2.16,2.16,0,0,0-.1.61c.06.24-.11.43-.11.67a2.38,2.38,0,0,1-.09,1.15c.08.67-.32,1.29-.37,2,0,.25-.17.43-.16.68a3.13,3.13,0,0,1-.1.73,6.65,6.65,0,0,0,0,1.09c0,.36-.11.67-.1,1a1.08,1.08,0,0,1-.22.79.49.49,0,0,0-.11.25c0,.49,0,.91,0,1.39a8.54,8.54,0,0,1-.08,1.34,11.47,11.47,0,0,0,.16,1.51,1.35,1.35,0,0,0,.27,1,2.8,2.8,0,0,0,1,1.06c.13.06.19.12.31.18.37.23.74.46,1.17.69a4.92,4.92,0,0,1,1,1,.19.19,0,0,1,.06.12c0,.3.26.41.38.59a1.33,1.33,0,0,1,.25.42,2.65,2.65,0,0,0,.63.83,2.63,2.63,0,0,1,.37.42,1.41,1.41,0,0,0,2.12.12,3.39,3.39,0,0,1,.54-.43c.23-.25.59-.32.64-.69,0-.06.12-.12.18-.19.36-.13.53-.49.77-.68a3,3,0,0,0,.7-.81c.18-.25.47-.38.59-.68a4,4,0,0,1,.64-.93.44.44,0,0,0,.17-.37,1.81,1.81,0,0,0,.1-.61c0-.24.11-.42.11-.67a9,9,0,0,1,.09-1.27c0-.06,0-.06,0-.12.23-.62.21-1.28.38-1.9,0-.06.05-.18,0-.24s-.07-.42-.14-.6.11-.43.11-.61a7.53,7.53,0,0,0-.22-1.21,5.81,5.81,0,0,1-.2-.9,5.22,5.22,0,0,0,0-1,1,1,0,0,1,0-.37,1.74,1.74,0,0,0,.15-1.15,1.48,1.48,0,0,1,.05-.43c.12-.36.17-.73.28-1.1a.43.43,0,0,1,.11-.24,4.31,4.31,0,0,0,.68-1.9,9.17,9.17,0,0,0,.08-1.28c0-.06.06-.12.06-.18.05-.43.34-.86.27-1.34,0-.24,0-.49.28-.55a1.28,1.28,0,0,0,.42-.38,1.43,1.43,0,0,1,.65-.56,2.53,2.53,0,0,1,.72-.08c.67,0,.92.46.63,1.07-.11.25-.22.55-.34.8-.23.43,0,.91-.2,1.34-.12.25,0,.55,0,.79s-.11.49-.11.73A5.22,5.22,0,0,1,449.87,90.88Z"/><path class="cls-2" d="M.09,87.89a.46.46,0,0,0,.48-.26A1.88,1.88,0,0,0,.9,86.35,7.43,7.43,0,0,0,.81,85.2c-.07-.36-.32-.66-.39-1a.83.83,0,0,1,0-.54,4.82,4.82,0,0,0,.28-.92,13.89,13.89,0,0,0,0-1.58c-.25-.17-.07-.48-.26-.72s0-.48-.14-.72a.74.74,0,0,1,0-.61c.18-.25.17-.55.34-.86s.05-.6.22-.85v-.12l0-1c0-.31.11-.61.1-.91a4.19,4.19,0,0,1,.2-1.77v-.12c0-.61,0-1.21.08-1.82a2.66,2.66,0,0,1,.39-1.22,5.6,5.6,0,0,0,.27-.92c.06-.12-.06-.3-.07-.42v-.55a.21.21,0,0,1,.06-.12A5.93,5.93,0,0,0,2,67.16l0-1.21a1.72,1.72,0,0,0-.13-.48,1.4,1.4,0,0,1,0-.49,6.26,6.26,0,0,0,.07-1.88,2.88,2.88,0,0,0-.08-1c-.13-.3,0-.67-.15-1s.1-.67.09-1c.12-.19.05-.37.05-.55A.7.7,0,0,1,1.87,59c0-.12-.13-.36-.14-.48a2.7,2.7,0,0,1,.1-1,3.15,3.15,0,0,0,.09-1,2,2,0,0,0-.15-1,1.17,1.17,0,0,1,.16-1,2.48,2.48,0,0,1,.4-.67c.53-.62,1.12-1.25,1.65-1.93a1.91,1.91,0,0,1,1.19-.63c.12-.07.3,0,.48,0a1.13,1.13,0,0,0,.42-.13,2.33,2.33,0,0,1,1.27.15,3.59,3.59,0,0,1,1.23.69,5.33,5.33,0,0,0,1,.58c.24.12.42.17.6-.07.06-.07.06-.13.11-.19.23-.43.23-.43.67-.14.12.06.18.12.3.12a1.61,1.61,0,0,1,1.35.81.77.77,0,0,1,.13.42c.08.54-.15,1-.08,1.52a8.47,8.47,0,0,0,.35,1.69c.13.42.45.9.1,1.39a2.52,2.52,0,0,1-.21,1.16,2.19,2.19,0,0,0,.08.91,5.71,5.71,0,0,1,0,1c-.3.25.07.6-.22.91a.27.27,0,0,0,0,.3c.19.3.08.67.26.91a1.05,1.05,0,0,1,0,1,1.8,1.8,0,0,0-.1.79l0,.73A3.5,3.5,0,0,0,13.26,67c0,.06.07.18.07.24a10,10,0,0,1,0,1.34,11.67,11.67,0,0,0-.07,1.94,4.93,4.93,0,0,0,.15.91,2.88,2.88,0,0,1-.16,1c0,.18-.11.43-.16.61s0,.43-.11.61a18.37,18.37,0,0,0-.13,4.07,4,4,0,0,1,0,.91c-.05.24-.22.49-.28.73a1.29,1.29,0,0,1-.17.43,1,1,0,0,0,.08.73c.25.35.44.47.79.16a10,10,0,0,0,1.19-.94,1.47,1.47,0,0,1,.83-.51,1.2,1.2,0,0,0,.65-.38,1.69,1.69,0,0,1,1.2-.52,4.27,4.27,0,0,0,.84-.2,1.15,1.15,0,0,1,.66,0,3.88,3.88,0,0,0,1.88.25h.37a2.94,2.94,0,0,1,1,.1c.3.11.6.1.85.22s.3,0,.43.17a.4.4,0,0,0,.48.17.58.58,0,0,1,.37.11,2.87,2.87,0,0,0,1.11.82.21.21,0,0,1,.12.06c.5.41,1,.82,1.49,1.29.31.3.56.72.87,1.07a.46.46,0,0,1,.13.3c-.05.49.15,1-.08,1.46-.06.12,0,.24,0,.36l.07,2.67a2,2,0,0,1-.22,1,12.91,12.91,0,0,1-.86,1.6c-.18.18-.17.49-.28.73s-.17.43-.35.56-.36.31-.53.49a5,5,0,0,1-1.42,1.13,6,6,0,0,0-1.6,1.2c-.65.62-1.36,1.19-2,1.87-.6.2-.83.81-1.42,1a.06.06,0,0,0-.06.06c-.47.62-1.25.82-1.78,1.38-.12.13-.3.13-.48.2a1.63,1.63,0,0,0-.89.51,1.25,1.25,0,0,1-.6.32c-.6.13-1.2.09-1.67.65a.7.7,0,0,1-.48.13,4,4,0,0,1-.91.14l-1,0a5.22,5.22,0,0,0-1,0,8.12,8.12,0,0,1-2.11.17L6,100.47c-.42,0-.85-.16-1.33-.15a3.87,3.87,0,0,1-1.16-.39c-.31-.17-.61-.29-.86-.46l-.74-.71A1.57,1.57,0,0,1,1.51,98a5.74,5.74,0,0,1-.46-1.38A3,3,0,0,1,1,96.24c-.08-.49-.09-1-.17-1.52-.06-.24-.19-.48-.07-.66s0-.49.1-.67l0-1.21L.76,90.54a8.14,8.14,0,0,0-.27-1.27C.42,89,.18,89,0,89A4,4,0,0,0,.09,87.89Zm10.56,10.7,1,0a.87.87,0,0,0,.36-.13,1.68,1.68,0,0,0,.59-.26,2.36,2.36,0,0,1,1.2-.39.9.9,0,0,0,.66-.2,3.9,3.9,0,0,1,1.07-.64c.18-.06.3-.25.48-.37a2.19,2.19,0,0,1,.41-.38,2.75,2.75,0,0,0,1.07-.82,1.62,1.62,0,0,1,.29-.19,4.2,4.2,0,0,1,1.31-.94c.18-.07.29-.31.41-.43a5.91,5.91,0,0,1,1.3-1.19c.06,0,.12-.13.24-.19a2.3,2.3,0,0,1,.83-.51,1.14,1.14,0,0,0,.59-.38,2.32,2.32,0,0,1,.42-.37,2.33,2.33,0,0,0,.83-.69,2.85,2.85,0,0,0,.7-.93,1.14,1.14,0,0,1,.23-.31,1.84,1.84,0,0,0,.46-1,1.6,1.6,0,0,1,.39-.92,1.17,1.17,0,0,0,.28-.92L25.74,84c0-.18-.13-.42.05-.55-.19-.3,0-.67-.27-.9a10.37,10.37,0,0,0-.75-.83c-.31-.3-.68-.53-1-.82a2.66,2.66,0,0,0-1.1-.58.13.13,0,0,1-.12-.12c-.25-.17-.44-.41-.74-.46a4,4,0,0,0-.91,0,12.64,12.64,0,0,1-1.51,0,1.34,1.34,0,0,0-1.13.51,1.26,1.26,0,0,1-.66.45,2.69,2.69,0,0,0-.53.31,3.35,3.35,0,0,0-.47.38,4.2,4.2,0,0,0-.54.38,4.05,4.05,0,0,1-.89.51,3.32,3.32,0,0,0-.77.81c-.23.3-.52.62-.76.92a2.84,2.84,0,0,0-.28.74,1.43,1.43,0,0,1-.35.68,1.48,1.48,0,0,0-.29.49.61.61,0,0,1-.71.5,3.94,3.94,0,0,0-.84,0,1,1,0,0,1-.43-.05,2.38,2.38,0,0,1-.62-.65.75.75,0,0,1,0-1,1.9,1.9,0,0,0,.28-.61,4.7,4.7,0,0,0,.1-.91,5.41,5.41,0,0,0,.09-1c0-.48-.14-.9-.15-1.39,0-1-.06-2.12-.09-3.15a18.76,18.76,0,0,1,0-3.09,7.61,7.61,0,0,1,.42-2.32,1,1,0,0,0,.11-.49c-.08-.84.08-1.63.06-2.42A8.14,8.14,0,0,0,10.84,67c-.11-1.94,0-3.95-.27-5.88l0-.55c0-.18.12-.3.11-.48s0-.49,0-.73,0-.42,0-.67V58l0-.73,0-.73a2.89,2.89,0,0,0,0-.67,1,1,0,0,1,0-.6c.06-.12-.07-.3-.13-.48a1,1,0,0,0-.87-.89,3,3,0,0,0-1-.09,1.09,1.09,0,0,1-.43-.11c-.24-.18-.55-.29-.79-.47s-.68-.22-.85.15A8.32,8.32,0,0,1,5.15,55a1.68,1.68,0,0,0-.51,1.28,1.11,1.11,0,0,1-.11.61,1,1,0,0,0,0,1,1.43,1.43,0,0,1,.13.48,13.94,13.94,0,0,1-.26,1.41,11,11,0,0,0-.35,2.92A2.94,2.94,0,0,1,4.17,64a11,11,0,0,0-.07,1.88l.09,3.27a13.84,13.84,0,0,1,0,3.22A2,2,0,0,1,4,73a3.23,3.23,0,0,0-.39,1.28,9.12,9.12,0,0,0,0,1.28,9,9,0,0,1-.08,1.27l0,1.09a3.35,3.35,0,0,1-.33,1.53,1.26,1.26,0,0,0-.22.61,5.73,5.73,0,0,0,.24,2.24c0,.3.19.54.08.84a2.33,2.33,0,0,0-.22.86,4.89,4.89,0,0,0,.37,2.48.7.7,0,0,1,0,.6,6.62,6.62,0,0,0-.36,2.26c0,1.27.31,2.59.22,3.87,0,.18.14.42-.1.61.19.18.07.42.14.6a.54.54,0,0,0,.06.3c.07.24.26.42.2.73s.14.48.14.72a7.74,7.74,0,0,0,.28,1.15.86.86,0,0,0,.56.71,4.32,4.32,0,0,1,.86.58.21.21,0,0,0,.12.06,6.52,6.52,0,0,0,1,.1l2.12-.06C9.39,98.8,10,98.48,10.65,98.59Z"/><path class="cls-2" d="M286.17,19.81c0,.37,0,.79,0,1.16a4.45,4.45,0,0,0,0,1.27c.13.36,0,.79.21,1.14a1.09,1.09,0,0,1,0,.61,7.33,7.33,0,0,0,0,1.15c0,.25.14.55.08.73a3.06,3.06,0,0,0-.1.73,5.5,5.5,0,0,0-.09,1.4,2,2,0,0,1-.16.55,6.2,6.2,0,0,0-.27,1.52c.09,1-.12,2,0,3a3.27,3.27,0,0,0-.08,1.52,18.22,18.22,0,0,1,.17,1.88c0,.6,0,1.27.05,1.88a3.58,3.58,0,0,1-.1.85c-.05.24.14.54-.1.79v.18a11.59,11.59,0,0,1-.07,2.06c0,.67,0,1.4.06,2.06a2.56,2.56,0,0,0,.13.67c.07.24-.1.49.14.66a6.65,6.65,0,0,0,.15,1.09c0,.3,0,.67,0,1s0,.79,0,1.15a3,3,0,0,0,.09,1,7.43,7.43,0,0,1,.09,1.15,1.89,1.89,0,0,0,.14.66,7.67,7.67,0,0,1,.4,1.51,17.3,17.3,0,0,0,.53,1.92c0,.07,0,.13,0,.19a17,17,0,0,1,.16,1.75,17.24,17.24,0,0,0,.05,1.76,17.15,17.15,0,0,0-.07,1.76c0,.12-.24.19-.06.36s.13.24.19.24c.24,0,.49.23.73.1a10.72,10.72,0,0,0,1.43-.88,2.38,2.38,0,0,1,1.07-.46,9.88,9.88,0,0,1,2.3-.18,1.14,1.14,0,0,1,.85.28l.37.18a2.12,2.12,0,0,1,1,.64.85.85,0,0,0,.55.29,1.64,1.64,0,0,1,.56.28,4.43,4.43,0,0,0,.67.53A12.29,12.29,0,0,1,298.79,63c.13.12.31.18.43.3.31.23.56.47.81.64s.25.3.49.41a.75.75,0,0,1,.31.3,7.43,7.43,0,0,0,.93,1,3.15,3.15,0,0,1,.94,1.12c.55.35.63,1,1.06,1.37a.93.93,0,0,1,.32.6c.07.12.07.18.13.3a.69.69,0,0,0,.8.28.82.82,0,0,0,.65-.5,2.48,2.48,0,0,0,.22-.86,4,4,0,0,1,.21-.91,13.32,13.32,0,0,1,1.05-1.73c.23-.31.46-.68.7-1a4.29,4.29,0,0,1,.88-1c.17-.13.35-.31.53-.44.59-.62,1.18-1.24,1.82-1.81a6,6,0,0,1,2-1.2,6.6,6.6,0,0,1,.78-.32,4.13,4.13,0,0,1,.84-.21,1.87,1.87,0,0,0,.6-.14c.18-.06.42.05.6-.13h.06l.6,0c.18,0,.36-.13.54-.14a4.7,4.7,0,0,0,2.05-.47,3.37,3.37,0,0,1,1.08-.28c.9,0,1.8-.29,2.71-.19a10.09,10.09,0,0,1,2.29-.18,1.54,1.54,0,0,0,.55-.14c.54-.13,1.08-.15,1.62-.28a10.75,10.75,0,0,1,1.27-.16,3.48,3.48,0,0,1,1.57.27,10.08,10.08,0,0,0,1.28.27c.49.1,1.09.09,1.46.5h.13c.18.12.48.17.67.28a2.93,2.93,0,0,1,.5.6,1,1,0,0,0,.31.23,1.2,1.2,0,0,1,.43.48c.13.17.25.41.38.47s.37.23.43.41a2.31,2.31,0,0,0,.5.78c.25.18.26.48.39.78a4,4,0,0,1,.26.78,1.11,1.11,0,0,1,.13.3,1.27,1.27,0,0,0,.38.84,1.88,1.88,0,0,1,.52,1.2c.07.36.08.78.15,1.15,0,.12.13.24.19.35a2,2,0,0,1,.34,1.27c0,.67,0,1.27.05,1.94a1.34,1.34,0,0,1-.52,1c-.36,0-.66.26-1,.27l-2.54.07a2.6,2.6,0,0,0-.66.14,2.44,2.44,0,0,1-.66.2A.41.41,0,0,0,333,72c-.18.19-.36.37-.53.56a1.65,1.65,0,0,1-.48.38,1.72,1.72,0,0,0-.89.57.22.22,0,0,1-.18.06c-.42.13-.78.26-1.2.4a7.75,7.75,0,0,1-1.32.39,12.8,12.8,0,0,0-1.32.34,6.06,6.06,0,0,0-1,.33c-.24.07-.54-.11-.78.14-.31-.23-.66,0-1-.09a.48.48,0,0,0-.59.32.73.73,0,0,0-.1.79,1.53,1.53,0,0,0,.37.59,6.43,6.43,0,0,1,.57.78,1.33,1.33,0,0,0,.37.47,1.65,1.65,0,0,1,.45.84.87.87,0,0,0,.13.42,1.78,1.78,0,0,1,.38.78.82.82,0,0,0,.5.59c.13.06.19.12.31.18a2.19,2.19,0,0,0,1.59.62,10.07,10.07,0,0,0,1.44-.16c.13,0,.24-.19.42-.19.66-.2,1.26-.52,1.86-.72a1.67,1.67,0,0,1,.54-.07,4.32,4.32,0,0,1,1.16.33c.3.11.6,0,.91.16a2,2,0,0,1,1.11.88,9.72,9.72,0,0,0,.76,1.13.77.77,0,0,1,.25.54,1.93,1.93,0,0,0,.52,1.26,1.64,1.64,0,0,1,.38.9,2.86,2.86,0,0,0,.47,1.44,2.68,2.68,0,0,1,.32.91,5.64,5.64,0,0,1,.28,1.44c.25.18.13.42.14.61,0,1,.05,2,.08,3a2.64,2.64,0,0,1-.33,1.34c-.06.06-.06.18-.17.25-.24.25-.47.55-.71.8a4,4,0,0,1-1.3.95,1.33,1.33,0,0,0-.48.31,1.47,1.47,0,0,1-.83.51,3.16,3.16,0,0,0-.9.45,4.06,4.06,0,0,1-1.62.47l-2.17,0c-.79,0-1.57,0-2.36-.06a8.1,8.1,0,0,1-1.16-.27,4.64,4.64,0,0,1-1.28-.39h-.18a5.62,5.62,0,0,1-1.7-.2c-.18-.24-.54,0-.79-.22a1.8,1.8,0,0,1-1-.22,1.44,1.44,0,0,0-.73-.1,2.64,2.64,0,0,1-1.46-.45c-.12-.06-.25-.17-.37-.17a2,2,0,0,1-1-.64.6.6,0,0,0-.43-.23.81.81,0,0,1-.62-.47c0-.06-.06-.12-.13-.18a2.32,2.32,0,0,1-.68-.59,2.68,2.68,0,0,0-.62-.59c-.18-.18-.31-.48-.55-.59a1.29,1.29,0,0,1-.62-.53,6.85,6.85,0,0,0-1-.88,3.32,3.32,0,0,1-.81-.77c-.13-.18-.37-.23-.5-.41s-.55-.47-.8-.77A5.44,5.44,0,0,1,310.58,88a.17.17,0,0,0-.19-.11c-.49-.23-.79-.1-1,.33a3.11,3.11,0,0,1-.34.61,2,2,0,0,0-.29.62,2.35,2.35,0,0,1-.45,1,1.31,1.31,0,0,0-.23.67,1.46,1.46,0,0,1-.34.68,1.08,1.08,0,0,0-.24.31,2.74,2.74,0,0,1-.81,1.17c-.18.19-.35.44-.53.62a1.69,1.69,0,0,0-.47.62c-.05.12-.17.19-.29.31-.24.31-.47.62-.7.87a10.05,10.05,0,0,0-.64.93c-.12.18-.24.37-.42.43a5.84,5.84,0,0,0-1.3,1.07c-.35.31-.77.62-1.18.94a1.66,1.66,0,0,0-.36.31c-.12.06-.17.19-.29.25a2.71,2.71,0,0,0-.77.51,3,3,0,0,1-1.08.51,1.21,1.21,0,0,0-.59.38,4.24,4.24,0,0,1-.48.38,5.5,5.5,0,0,0-1,.57c-.06.06-.12.12-.18.12-.6,0-1.14.4-1.68.59a8.1,8.1,0,0,1-1.26.34,9.89,9.89,0,0,0-1.91.6,5,5,0,0,1-.91.2c-.36.13-.78,0-1.08.09a3.13,3.13,0,0,1-1,.09,3.27,3.27,0,0,1-1.08,0,4.75,4.75,0,0,1-2.26-.55,3.72,3.72,0,0,0-.79-.22h-.18a8,8,0,0,0-1.65-.68,5.22,5.22,0,0,1-1.41-.93,12.34,12.34,0,0,0-1.67-1.35l-.19-.18a2,2,0,0,0-.92-.64,1.08,1.08,0,0,1-.62-.65,1.35,1.35,0,0,0-.44-.66,3.28,3.28,0,0,1-.63-1,.57.57,0,0,0-.13-.24,1.57,1.57,0,0,1-.57-1c-.07-.24-.19-.48-.26-.66a3,3,0,0,1-.2-.78,4.53,4.53,0,0,0-.14-.79c-.14-.54-.15-1.08-.29-1.56a5.52,5.52,0,0,1-.1-1.7c0-.3.1-.67.09-1s.05-.37-.13-.55a.5.5,0,0,1,0-.42,3,3,0,0,0,.08-1.46c-.08-.66-.22-1.33-.29-2,0-.06-.13-.18-.13-.24a3,3,0,0,1-.28-1.45,8.88,8.88,0,0,1-.18-2.18,4.28,4.28,0,0,0-.4-1.5,1.17,1.17,0,0,1-.32-.6,7.55,7.55,0,0,1-.15-1.15,18.09,18.09,0,0,1-.19-2.54,6.46,6.46,0,0,1-.18-2.12c-.07-2.91-.15-5.82-.23-8.67a4.88,4.88,0,0,0-.34-1.62,1.27,1.27,0,0,1,0-.67,5,5,0,0,0,.26-1.65,3.57,3.57,0,0,1,.08-1.39c.06-.19-.13-.48-.14-.73,0-.84,0-1.63-.06-2.48a10.07,10.07,0,0,0,.07-1.88,1.72,1.72,0,0,0,.1-.92,7.11,7.11,0,0,1,.36-2.25c0-.06.06-.12.06-.18a6,6,0,0,1,.08-1.52c.05-.18.05-.43.1-.61s-.07-.42.11-.61-.07-.42.1-.61,0-.24,0-.36a7.4,7.4,0,0,1,0-1.15,7.22,7.22,0,0,1,.25-1.89.45.45,0,0,0,.06-.3,5.35,5.35,0,0,1,.19-1.71,4.56,4.56,0,0,0,.09-1.27,3.53,3.53,0,0,1,0-.85c.05-.25.11-.49.16-.8a3.73,3.73,0,0,0,.09-1.15c0-.73.08-1.46.06-2.18s0-1.52-.06-2.25c0-.12.06-.18.12-.3s0-.19,0-.31a3.65,3.65,0,0,1-.22-1.45c0-.18.11-.3.11-.48s-.07-.37.1-.49a2.62,2.62,0,0,1,.1-1c0-.18.11-.42.1-.6a4.12,4.12,0,0,0-.2-.91c0-.06-.06-.12-.07-.18a7.41,7.41,0,0,0-.15-1.21,9,9,0,0,1-.15-1.27.92.92,0,0,0-.07-.36.36.36,0,0,1,0-.36,1.69,1.69,0,0,0,0-.73,1.35,1.35,0,0,1-.14-.67,9,9,0,0,1-.15-1.26c0-.31,0-.55.09-.86s-.13-.6.1-.85v-.18a1.62,1.62,0,0,1-.15-.91c0-.36,0-.66,0-1a2.19,2.19,0,0,0-.15-.9c-.19-.36-.08-.73-.21-1.15a3.7,3.7,0,0,1,0-1.15c0-.24,0-.49,0-.73a1.1,1.1,0,0,0-.14-.6c-.13-.3.05-.67.16-1a1.36,1.36,0,0,0-.22-1.26,3.21,3.21,0,0,1-.52-1.51,6.27,6.27,0,0,0-.34-1.44,4.8,4.8,0,0,1-.21-.91,17.22,17.22,0,0,1-.28-1.75c0-.18-.38-.53-.62-.47s-.55-.1-.78.15c-.06.06-.31-.06-.43-.11A1.24,1.24,0,0,1,269,4.32a.58.58,0,0,1,.17-.43c.12-.13.3-.19.3-.44s0-.3.35-.31l3.68-.1c.19,0,.37-.07.31.24.38.47.51,1.08,1,1.49a2.89,2.89,0,0,0,1.23.63,1.94,1.94,0,0,1,.79.35c.12.11.43.11.61.22s.43.23.67,0c.06-.07.18-.07.3-.07l1,0a1.6,1.6,0,0,1,1.53.69,10.88,10.88,0,0,0,.81.89,4.75,4.75,0,0,1,1,1.18,3.61,3.61,0,0,0,.62.72.81.81,0,0,1,.32.65.74.74,0,0,0,.32.54,3.18,3.18,0,0,1,.71,1.56,3,3,0,0,0,.26.78,8.36,8.36,0,0,1,.59,1.81c.07.36.08.78.15,1.14s.2.73.27,1c0,.12.13.24.13.3a13.69,13.69,0,0,1,.16,1.57C286.08,18.66,286.15,19.27,286.17,19.81Zm2.65,82.11,1.45,0a4.1,4.1,0,0,0,.84-.14c.06,0,.12-.13.18-.13a6.91,6.91,0,0,0,.9-.38,4.45,4.45,0,0,1,1.26-.34,2.42,2.42,0,0,0,1.26-.34,2.75,2.75,0,0,1,.47-.37,1.63,1.63,0,0,1,.6-.26,1.08,1.08,0,0,0,.83-.39,1.1,1.1,0,0,1,.6-.38,2.27,2.27,0,0,0,1-.45,3.61,3.61,0,0,1,1-.63c.11-.06.29-.13.35-.25.41-.44,1-.64,1.36-1.13H301a4.47,4.47,0,0,0,.59-.5,4.92,4.92,0,0,0,.54-.5c.11-.25.35-.38.52-.56a1.45,1.45,0,0,0,.24-.37,2.91,2.91,0,0,1,.35-.5,2.23,2.23,0,0,0,.46-.62,9.35,9.35,0,0,1,1-1.17l.41-.44c.18-.19.35-.43.53-.62a2.67,2.67,0,0,0,.29-.55,2.28,2.28,0,0,1,.46-.87,1.6,1.6,0,0,0,.4-1,1,1,0,0,1,.34-.85,2.36,2.36,0,0,0,.4-.62,2.24,2.24,0,0,1,.52-.92c.29-.38.1-.86.15-1.28l-.06-.06c-.43-.35-.63-.89-1.06-1.25a.69.69,0,0,1-.38-.47,1.57,1.57,0,0,0-.5-.84,2.3,2.3,0,0,1-.51-.83c-.06-.06-.06-.18-.13-.24-.37-.3-.32-.84-.51-1.26,0-.85-.23-1.69-.19-2.54,0-1-.06-2.13-.09-3.16a12.78,12.78,0,0,0,.08-1.64,1,1,0,0,0-.38-.84l-.25-.23c-.12-.12-.31-.24-.32-.48s-.18-.3-.31-.47-.37-.3-.44-.54a1,1,0,0,0-.37-.47,1.3,1.3,0,0,1-.62-.65,3.5,3.5,0,0,1-.51-.78c-.12-.18-.13-.42-.25-.54s-.38-.35-.5-.53-.19-.12-.19-.24a1.62,1.62,0,0,0-.68-.71c-.37-.23-.51-.71-1-.82-.13-.42-.5-.53-.81-.77a7.91,7.91,0,0,0-.8-.58,5.21,5.21,0,0,1-1-.65c-.5-.35-1-.58-1.42-.93-.18-.18-.49-.29-.68-.47s-.18-.05-.24-.11a2,2,0,0,0-1-.34,3.44,3.44,0,0,0-1,.21,1.59,1.59,0,0,0-1.13.58h-.06c-.42.19-.9.27-1.13.76-.6.25-.82,1-1.3,1.36-.06,0-.05.13-.05.13-.11.67-.58,1.16-.74,1.84a.45.45,0,0,1-.47.37c-.25,0-.48.2-.66.2s-.67.08-.79-.16-.5-.41-.27-.84a1.15,1.15,0,0,0,.1-.67c-.06-.3.11-.61.1-.91s.23-.56.34-.86a2.45,2.45,0,0,0,0-2.18,1.23,1.23,0,0,1-.14-1,2.76,2.76,0,0,0,.26-1.65,11.11,11.11,0,0,0-.19-2.36,1.44,1.44,0,0,0-.33-1c-.06-.18-.18-.3-.19-.48a12.89,12.89,0,0,0-.16-1.51c-.13-.48,0-.91-.16-1.39-.07-.3-.13-.6-.2-.91a6.48,6.48,0,0,1-.62-2.83c0-1.21-.06-2.36-.1-3.58A14.74,14.74,0,0,1,284,43.4c0-.06-.12-.12-.13-.18,0-.24-.25-.48-.14-.78a4.38,4.38,0,0,0,.26-1.77c-.08-3-.16-6.06-.24-9a4.57,4.57,0,0,1,.1-1c0-.06.11-.12.11-.19a7.39,7.39,0,0,0,.31-2,2,2,0,0,0,0-.25,4.76,4.76,0,0,0,.21-1.34c0-1.09-.06-2.12-.08-3.21s-.06-2.12-.09-3.15a13.36,13.36,0,0,0-.2-3.15,6.62,6.62,0,0,1,0-1.09.77.77,0,0,0-.07-.36,5.73,5.73,0,0,1-.39-1.08,4.46,4.46,0,0,0-.26-.78,2.17,2.17,0,0,1-.09-.85,1.54,1.54,0,0,0-.51-1.2,2.93,2.93,0,0,1-.39-.9.7.7,0,0,0-.32-.72,2.08,2.08,0,0,1-.44-.65,1.47,1.47,0,0,0-.51-1,1.1,1.1,0,0,1-.25-.24,5.11,5.11,0,0,0-1.42-1.36.68.68,0,0,0-.49-.1,2.05,2.05,0,0,0-.6.07,1.53,1.53,0,0,1-1,0,3.25,3.25,0,0,0-.85-.1,3.12,3.12,0,0,1-.85-.22.56.56,0,0,0-.61,0c-.29.13-.23.37-.22.61a9.4,9.4,0,0,0,.16,1.39,3.05,3.05,0,0,0,.14.78,2.85,2.85,0,0,1,.19.42,4.15,4.15,0,0,1,.47,1.63c0,.91-.14,1.88-.05,2.79a12.69,12.69,0,0,1,0,1.51c0,.19-.11.43.14.61-.06.3.13.54.14.84a10.39,10.39,0,0,0,.18,2.36,2.55,2.55,0,0,1,0,.73c.31.17,0,.43,0,.61,0,.72,0,1.51.06,2.24,0,.12.06.18.06.24a1.14,1.14,0,0,1,.2.66c.25.24.08.49,0,.67s-.05.24,0,.3.07.36.13.48a1.46,1.46,0,0,1,.14.48,8.29,8.29,0,0,1,0,1.22c-.05.42.2.78.15,1.21,0,.18.19.42.14.54s-.06.36-.11.55c-.05.36-.1.67-.16,1a8.44,8.44,0,0,0-.14,1.22,4.34,4.34,0,0,0,.15,1.27,2.94,2.94,0,0,1,0,1.64,3.31,3.31,0,0,0,0,1.33,1.38,1.38,0,0,1,0,.85,2.58,2.58,0,0,0-.22.92,12.73,12.73,0,0,1-.08,1.51c-.11.43.09.91-.08,1.34.08.79-.15,1.52-.06,2.31a8.21,8.21,0,0,0-.09,1.21.21.21,0,0,1-.06.12,5.16,5.16,0,0,0-.38,1.65c0,.67,0,1.27-.07,1.94s0,1.46-.06,2.19c-.06.24-.11.49-.16.73a1.24,1.24,0,0,0-.11.49,1.11,1.11,0,0,1-.11.37c-.06.12,0,.3-.05.48a11,11,0,0,0-.27,1.34,12.86,12.86,0,0,0,0,1.52,12,12,0,0,1-.08,1.46c0,.42,0,.91,0,1.33a9.59,9.59,0,0,1,.16,1.33c0,.91.05,1.82.07,2.73,0,1.27.07,2.54.1,3.82a18.88,18.88,0,0,1,0,3.76c-.05.3,0,.6-.1.91a17.36,17.36,0,0,0-.13,1.76,14.16,14.16,0,0,1,0,1.46,9.55,9.55,0,0,0,.16,1.39.22.22,0,0,0,.06.18,4,4,0,0,1,.34,1.44,12.7,12.7,0,0,0,.28,1.51,1.87,1.87,0,0,1,.14.6,3,3,0,0,0,.14.79,11.6,11.6,0,0,1,.41,1.57c.13.6,0,1.15.16,1.75A3.38,3.38,0,0,1,277,84c0,.36.32.66.33,1,0,.06.07.12.07.24a16.54,16.54,0,0,0,.18,2.48c.08.49-.15.92-.08,1.34s0,.54,0,.85.14.54.14.78a15.8,15.8,0,0,1,.05,1.82,1.82,1.82,0,0,0,.46,1.38,3.24,3.24,0,0,1,.46,1.45A.6.6,0,0,0,279,96a1.52,1.52,0,0,1,.63,1,.22.22,0,0,0,.06.18,5.33,5.33,0,0,1,1,1.06,1.21,1.21,0,0,0,.31.18c.24.17.43.35.68.53s.37.35.61.28a.45.45,0,0,1,.43.23c.25.54.74.59,1.16.7.19.06.31.11.37.29a.88.88,0,0,0,.62.41c.24.06.42,0,.67.11s.42-.08.67.16.42.17.67.29a1.73,1.73,0,0,0,.79.22C287.85,102,288.34,101.93,288.82,101.92Zm36.3-42.26-1.45,0c-.48-.05-.9.21-1.38.16a.32.32,0,0,0-.24.07c-.54.19-1.14.33-1.68.46a1.87,1.87,0,0,1-.6.14,8.72,8.72,0,0,1-1.75.17h-.12c-.18.25-.42.07-.6.14a2.61,2.61,0,0,1-.6.14,2.65,2.65,0,0,0-.79.14,2.55,2.55,0,0,0-.72.26c-.23.19-.48,0-.66.14a9.23,9.23,0,0,0-1.24.88c-.59.56-1.18,1.24-1.77,1.75a2.16,2.16,0,0,0-.82,1,1.38,1.38,0,0,1-.41.37c-.12.07-.24.13-.24.25a2.29,2.29,0,0,1-.7.81,1.38,1.38,0,0,0-.35.8,1.49,1.49,0,0,1-.28.73,2.38,2.38,0,0,0-.51,1.41,1,1,0,0,1-.34.86,1.24,1.24,0,0,0-.34.73,1.78,1.78,0,0,1-.28,1c-.11.37-.16.61.09.91a1.3,1.3,0,0,1,.32.72.54.54,0,0,0,.19.36,1.26,1.26,0,0,1,.45.83,11.56,11.56,0,0,0,.64,1.56,1.9,1.9,0,0,1,.39,1,3.8,3.8,0,0,0,.53,1.75,1.85,1.85,0,0,1,.26.78c0,.67.1,1.33.18,2s0,1.39.05,2.12c0,.12,0,.18,0,.3a1,1,0,0,0,.45,1,1.36,1.36,0,0,1,.44.6c.06.05.06.18.13.23a9.47,9.47,0,0,1,.68.78,18.06,18.06,0,0,0,1.43,1.47l1.3,1.24c.13.12.31.18.43.29s.19.3.32.36a7,7,0,0,1,1,.82c.44.36.75.89,1.3,1.12a.07.07,0,0,1,.07.06c.18.18.43.35.61.53s.44.29.56.47.49.23.68.41a19.39,19.39,0,0,0,2.5,1.14h.19a1.09,1.09,0,0,0,.42.11h.49a6.3,6.3,0,0,1,1.46.56.49.49,0,0,0,.31.12,11.75,11.75,0,0,0,1.45.08A4.46,4.46,0,0,1,328,96a4.21,4.21,0,0,0,1.94.38l.79,0a5.1,5.1,0,0,0,2.28-.55c.12-.06.24-.07.3-.13a2.3,2.3,0,0,0,.71-.38,2.38,2.38,0,0,1,.78-.57,1.06,1.06,0,0,0,.41-.31,10.1,10.1,0,0,1,.7-.81,2.38,2.38,0,0,0,.57-1.41c.05-.3-.13-.54-.14-.84,0-.61-.09-1.21-.05-1.82s-.21-1.15-.17-1.75a1.34,1.34,0,0,0-.26-.79,1.46,1.46,0,0,1-.51-1.2A1.08,1.08,0,0,0,335,85a1.11,1.11,0,0,1-.38-.84.91.91,0,0,0-.57-1,1,1,0,0,1-.38-.35c-.06-.12-.25-.3-.37-.3a2,2,0,0,0-1.62.47,1.17,1.17,0,0,1-.66.2l-3,.08c-.42,0-.78-.1-1.21-.09a.21.21,0,0,1-.12-.06c-.19-.24-.43-.17-.67-.28a2.41,2.41,0,0,1-.86-.47,4.53,4.53,0,0,0-.87-1,3.09,3.09,0,0,1-.64-1.14.13.13,0,0,0-.12-.12c-.19-.18-.19-.36-.32-.54s-.2-.66-.56-.77a.67.67,0,0,1-.44-.59c0-.19-.19-.3-.32-.48a1.1,1.1,0,0,1-.25-.54c-.27-.9-.39-1.08-1.31-1.42a7.81,7.81,0,0,1-1-.46.74.74,0,0,1-.38-.72c0-.24.11-.3.29-.37a3,3,0,0,1,.84-.2,10.41,10.41,0,0,1,2.77-.62c.6-.08,1.21,0,1.81-.05.3,0,.67.1,1-.15a8.77,8.77,0,0,0,2.1-.54,1.94,1.94,0,0,1,.48-.13,1.34,1.34,0,0,0,.66-.2,6.56,6.56,0,0,1,1.38-.64c.24-.07.6-.14.65-.51a1.68,1.68,0,0,1,.53-.37,1,1,0,0,0,.66-.32,1.78,1.78,0,0,1,1.38-.59,1.29,1.29,0,0,0,.48-.07,1.44,1.44,0,0,1,.72-.2,4.6,4.6,0,0,0,1-.15,3.33,3.33,0,0,0,.66-.32c.12-.06.23-.49.22-.67s-.13-.48-.14-.73a4.64,4.64,0,0,0-.15-1.27,2,2,0,0,0-.39-.89c-.06-.12-.07-.25-.13-.3s-.07-.43-.14-.61-.13-.42-.13-.66a.56.56,0,0,0-.2-.42c-.12-.12-.25-.3-.37-.41s-.13-.43-.2-.61-.13-.48-.38-.65-.12-.24-.25-.3c-.31-.29-.38-.72-.81-.89-.12-.06-.3-.11-.37-.23a2.21,2.21,0,0,0-.85-.46,4.68,4.68,0,0,1-.49-.23c-.07-.06-.19-.06-.25-.12-.31-.17-.66,0-.91-.1a227.7,227.7,0,0,1-1.88-.19l-.84,0c-.24,0-.54.14-.78.15ZM307.75,79.35c0-.31,0-.67,0-1a.51.51,0,0,0-.43-.42h-.36c-.24,0-.36.25-.29.56a1.94,1.94,0,0,0,.19.54c.07.18.14.36.2.54a5.26,5.26,0,0,0,.39.84c0,.06.12.11.18.11s.18-.12.24-.19,0-.18,0-.24A3.82,3.82,0,0,1,307.75,79.35Z"/><path class="cls-2" d="M150.49,60.21l-1.21,0a.75.75,0,0,0-.71.32c-.12.25.07.55.26.72a2.8,2.8,0,0,0,.55.41,10,10,0,0,1,2,1.59,1.07,1.07,0,0,1,.38.83c0,.25,0,.43,0,.67,0,.73.28,1.39.18,2.12a3.26,3.26,0,0,1,.16,1.51,12.86,12.86,0,0,1,0,1.52,8.3,8.3,0,0,1-.32,1.76,1.85,1.85,0,0,1-.29.5,2.64,2.64,0,0,0-.33,1,2.83,2.83,0,0,1-.45,1.52,1.53,1.53,0,0,0-.27,1,2,2,0,0,1-.1,1,5.55,5.55,0,0,1-.34.61,1.11,1.11,0,0,0-.23.61.63.63,0,0,1-.29.56l-.94,1a2,2,0,0,0-.58.81c0,.06-.12.18-.17.24a1.56,1.56,0,0,0-.41.68,4.41,4.41,0,0,1-.63,1.17c-.06.12-.24.25-.24.37s-.17.37-.28.55-.18.13-.18.25c-.16.79-.93,1.3-1.15,2.09a.93.93,0,0,1-.36.32c-.11.12-.3.13-.41.25a8.2,8.2,0,0,1-1.19,1,3.22,3.22,0,0,1-.77.51c-.06,0-.06.06-.12.06-.23.19-.41.5-.65.56a2.91,2.91,0,0,1-.78.33,0,0,0,0,0-.05.06,6.62,6.62,0,0,1-1.78,1.5,1.48,1.48,0,0,0-.41.32,1.59,1.59,0,0,1-1.08.57c-.11.06-.3.07-.42.13a5.46,5.46,0,0,1-1.85.78,10.71,10.71,0,0,1-1.38.34,1.19,1.19,0,0,1-.79,0,7.33,7.33,0,0,0-1.15-.09,1.64,1.64,0,0,1-.72-.1.9.9,0,0,0-.79-.1c-.3.06-.61-.11-.91-.1s-.6.14-.85-.1c-.06-.06-.18,0-.3,0-.55.07-1.1-.16-1.64-.08-.24-.18-.42,0-.66,0a1.92,1.92,0,0,1-.79,0,7.4,7.4,0,0,0-1.15,0,2.71,2.71,0,0,0-1.2.27,3.28,3.28,0,0,0-1,.63,4.57,4.57,0,0,1-1.31.77,1.14,1.14,0,0,1-1.21-.22l-.07,0c-.91-.28-1.41-1.06-2.09-1.65-.14-.42-.69-.59-.76-1,0-.06-.12-.12-.18-.24a8.58,8.58,0,0,1-1.44-1.9c0-.06,0-.06-.07-.12a2.19,2.19,0,0,1-.69-1.13c-.07-.12-.19-.24-.26-.36a1.57,1.57,0,0,1-.38-.9,1.11,1.11,0,0,0-.38-.72,1.11,1.11,0,0,1-.57-.71c0-.12-.06-.18-.06-.24a4.36,4.36,0,0,0-.28-1.27v-.12c.05-.42.16-.85.21-1.28,0-.06.11-.18.17-.24.48-.14.53-.62.88-.94a2.83,2.83,0,0,0,.7-1,3,3,0,0,1,.83-.87,2.23,2.23,0,0,0,.68-1.59,5.32,5.32,0,0,1,.21-1c0-.06.12-.12.12-.12,0-.61.28-1.1.32-1.71a3.1,3.1,0,0,1,1.53-1.62,13.29,13.29,0,0,1,2.59-.19c.25.18.55,0,.85.16a.69.69,0,0,0,.37,0,2.84,2.84,0,0,1,1.39.21h.12c.61-.08,1.22.15,1.82.07.24,0,.48-.13.72-.14a1.52,1.52,0,0,1,.91.1c.31.11.6-.14.91.09a3.34,3.34,0,0,1,1.34.21c.12.06.24.06.36.11.67.23,1.34.39,2.07.62a9.29,9.29,0,0,1,1.34.39c.13.05.25,0,.37,0l2-.06a1.57,1.57,0,0,0,1.31-.76,1.72,1.72,0,0,1,.17-.31,1.52,1.52,0,0,0,.58-1,2.36,2.36,0,0,1,.52-1,.74.74,0,0,0,.22-.49.57.57,0,0,1,.11-.43.68.68,0,0,0-.07-.48,1.65,1.65,0,0,1,.27-1.4c.05-.12.23-.31.29-.43a.57.57,0,0,0-.14-.73c-.5-.47-1-1-1.43-1.48a.48.48,0,0,0-.37-.17,2.55,2.55,0,0,0-1.32.34,5.25,5.25,0,0,1-1,.45,2.5,2.5,0,0,0-.83.39c-.18.12-.48.13-.66.26a3.87,3.87,0,0,1-.72.2,4.14,4.14,0,0,1-1.21.15c-.3,0-.6-.17-.91-.1s-.6.14-.84-.1h-.12a4.82,4.82,0,0,1-1.89-.32,4.38,4.38,0,0,0-1.28-.33.41.41,0,0,1-.3-.11,9.5,9.5,0,0,1-1.6-1.17,3.19,3.19,0,0,0-.68-.53,14.18,14.18,0,0,1-1.31-1.6,7.54,7.54,0,0,0-.71-1.38v-.18c-.07-.3,0-.61-.08-.91s0-.6-.21-.84a2.81,2.81,0,0,0-.46-1.57,1,1,0,0,1,.09-1.09,1.89,1.89,0,0,0,.28-.73,1.34,1.34,0,0,1,.28-.74,4.1,4.1,0,0,0,.41-.68c.58-.8,1.1-1.66,1.69-2.47a6.9,6.9,0,0,1,1.47-1.43,3.65,3.65,0,0,0,.77-.63,5.11,5.11,0,0,1,1.42-1.07,3.25,3.25,0,0,0,1.12-1.12.65.65,0,0,0-.26-1,1.4,1.4,0,0,0-.43-.23,1.07,1.07,0,0,1-.33-1c.17-.18.29-.49.65-.44h.42a1,1,0,0,1,.74.29l.24.23a1.57,1.57,0,0,0,1,.4l1.33,0,.88-.93a2.09,2.09,0,0,0,.47-.74,1.33,1.33,0,0,1,.35-.49c.23-.31.53-.56.76-.87a5.36,5.36,0,0,1,1.84-1.45c.18-.06.29-.25.47-.31a2.62,2.62,0,0,1,.72-.14c.67,0,1.27,0,1.94-.05a3.45,3.45,0,0,1,1.09.15c.18.06.36,0,.55.11a1.64,1.64,0,0,1,.54,0,1.11,1.11,0,0,0,.78-.08,5.91,5.91,0,0,1,1,0c.12,0,.18.06.3.06a11.4,11.4,0,0,0,1.56-.47c.06,0,.12-.06.18-.06.79-.09,1.57-.11,2.3-.19l1,0a6.1,6.1,0,0,1,1.88.19,2.24,2.24,0,0,1,.55.29,1.72,1.72,0,0,0,1.1.39,1.52,1.52,0,0,1,.92.28,3.13,3.13,0,0,0,1.16.52c.12.06.3.05.43.17a2.39,2.39,0,0,0,.86.52c.12.06.18.12.3.18s.37.29.56.41a1,1,0,0,1,.57.83.64.64,0,0,0,.31.54,1.55,1.55,0,0,1,.58,1.2.69.69,0,0,0,.19.48,2.3,2.3,0,0,1,.51.83,2.82,2.82,0,0,1,.21,1,2.36,2.36,0,0,0,.26.9,15.81,15.81,0,0,1,.59,1.8A10,10,0,0,1,159,54.1a4.19,4.19,0,0,1-.37,1.65c-.12.3-.29.67-.4,1a.91.91,0,0,1-.89.81.66.66,0,0,0-.42.19,6.5,6.5,0,0,1-1.13.64,1.14,1.14,0,0,0-.65.38,1.8,1.8,0,0,1-.54.32,20.69,20.69,0,0,1-2.09.84,5.29,5.29,0,0,1-1,.15A2.24,2.24,0,0,1,150.49,60.21Zm-.89,7.48,0-1.27a2,2,0,0,0-.15-1c-.13-.24,0-.55-.14-.72s-.37-.42-.56-.66a1.57,1.57,0,0,0-.44-.41,8,8,0,0,1-1.85-1.41c-.62-.65-1.42-1-2-1.7a.21.21,0,0,0-.12-.06,6.13,6.13,0,0,1-1-.4,3.88,3.88,0,0,0-1.09-.33,1.17,1.17,0,0,0-1.09.15,4.08,4.08,0,0,1-1.07.45,3.81,3.81,0,0,1-1.45.16.66.66,0,0,1-.43-.17,2.89,2.89,0,0,1-.62-.59.46.46,0,0,1,0-.55c.05-.12.17-.18.23-.24.36-.26.78-.39,1.13-.64a7.18,7.18,0,0,1,3-1.05l1.15,0h.24c.06,0,1.88.5,1.95.56s.18,0,.24.11a1,1,0,0,0,.55.29,3,3,0,0,0,1.46.27c.18,0,.36-.13.54-.14l1.21,0a.53.53,0,0,1,.3,0,.89.89,0,0,0,.79,0c.18-.06.36-.07.54-.13s.42-.08.6-.14a1.8,1.8,0,0,1,.54-.14,1.11,1.11,0,0,0,.84-.38.88.88,0,0,1,.65-.38A.91.91,0,0,0,154,57a1.84,1.84,0,0,1,1-.51.8.8,0,0,0,.65-.56c.11-.25.1-.49.22-.74a2.68,2.68,0,0,0,.44-1.59,8.36,8.36,0,0,0-.17-2.05,3.39,3.39,0,0,0-.27-.73,2.17,2.17,0,0,1-.38-.83c-.07-.31-.08-.61-.15-.91a2.36,2.36,0,0,0-.52-1.38c-.12-.12-.12-.3-.25-.42a3.66,3.66,0,0,1-.14-.72,1.86,1.86,0,0,0-.38-.6,2.16,2.16,0,0,1-.31-.48c-.07-.24-.25-.29-.44-.41a2.84,2.84,0,0,1-.86-.58.45.45,0,0,0-.24-.12,2.61,2.61,0,0,1-1.41-.63.66.66,0,0,0-.43-.17,5.84,5.84,0,0,1-1.46-.32c-.54-.17-.55-.23-.91-.22l-1.75,0a1.46,1.46,0,0,0-.48.14,5.65,5.65,0,0,1-1.38.4,6.41,6.41,0,0,1-1.51.16l-3.86.1c-.12,0-.3.07-.43,0a3,3,0,0,0-1.45-.08,1.19,1.19,0,0,0-1,.45,6.74,6.74,0,0,1-.59.62c-.24.13-.35.43-.53.56a2.88,2.88,0,0,0-.59.62,1.1,1.1,0,0,0-.17.31,4.28,4.28,0,0,1-.65.81c-.06.06-.12,0-.12.06-.16.55-.77.63-1.05,1.12-.06.06-.12.06-.18.13a1.81,1.81,0,0,1-1.32.39c-.37,0-.66.2-1,.27-.11.37-.48.44-.65.69a5,5,0,0,1-1,.93c-.3.19-.53.5-.89.69a5,5,0,0,0-.89.69c-.3.25-.59.56-1,.82-.17.12-.41.25-.47.43-.28.62-.88,1-1,1.67a7.87,7.87,0,0,0-1.11,1.6l-.06.07c-.41.37-.34.92-.44,1.4.25.36.14.73.15,1.09a2.75,2.75,0,0,0,.46,1.69,3,3,0,0,1,.33,1,1.79,1.79,0,0,0,.45,1,3.25,3.25,0,0,1,.56.71c.07.12.19.3.31.3s.25.23.31.35a.72.72,0,0,0,.62.47c.18.06.43,0,.55.23a2,2,0,0,0,1.4.45,5.89,5.89,0,0,1,1,.09,9.05,9.05,0,0,0,2.54-.19,6.76,6.76,0,0,0,.77-.38,3.46,3.46,0,0,0,.48-.26,2.91,2.91,0,0,1,1-.33c.6-.13,1.07-.63,1.74-.59a1.22,1.22,0,0,1,1.27.21,3.52,3.52,0,0,0,.8.4.46.46,0,0,1,.3.12,5.09,5.09,0,0,1,1.06.94,9.14,9.14,0,0,0,.74.77.48.48,0,0,1,.13.24A1.06,1.06,0,0,0,140,67a1.56,1.56,0,0,1,.51,1.14,4.55,4.55,0,0,1-.49,2,1.78,1.78,0,0,0-.27,1.1,1.73,1.73,0,0,1-.11.54c-.17.49-.58.87-.63,1.42,0,.12,0,.3,0,.36-.34.56-.69,1.11-1,1.67-.3.07-.42.31-.59.56a1,1,0,0,1-.66.32l-1,0c-.12,0-.36.2-.42.14-.31-.24-.67-.11-1-.1l-3,.08a2.79,2.79,0,0,1-1.22-.27,3.5,3.5,0,0,0-1.28-.39c-.3,0-.55-.17-.85-.1-.19-.24-.48,0-.67-.11a1.64,1.64,0,0,0-.72-.1c-.31,0-.6.14-.85,0a6.69,6.69,0,0,0-1.58-.26,5.41,5.41,0,0,0-1-.09,7.18,7.18,0,0,0-1-.1,9.43,9.43,0,0,1-1.93-.07c-.37-.11-.79.15-1.15.22s-.42.13-.59.5a8.65,8.65,0,0,0-.21,1.22,1.17,1.17,0,0,1-.22.73,1.41,1.41,0,0,0-.33,1.16c0,.18,0,.36,0,.55s-.05.36-.11.48l-.87,1.12c-.3.07-.42.37-.53.56a5.69,5.69,0,0,1-.53.62c-.12.18-.29.31-.29.55a.46.46,0,0,1-.41.44c-.06,0-.12.18-.17.31A2,2,0,0,0,115,85c.13.24.2.54.33.78.13.42.14.9.69,1a.39.39,0,0,1,.19.36,1.37,1.37,0,0,0,.51,1.2,1.12,1.12,0,0,1,.32.42,1.68,1.68,0,0,0,.63,1,4.11,4.11,0,0,1,.44.53c.06.06.06.18.12.18.37.11.44.48.69.77a1.32,1.32,0,0,0,1.34.51,4.38,4.38,0,0,0,1.19-.63,1.67,1.67,0,0,1,1.2-.4l2.54-.07a11.36,11.36,0,0,1,2.48.06,1.11,1.11,0,0,0,1-.15c.37.17.73,0,1,.22s.43,0,.55.1.43.05.67.05.3-.07.42,0,.48,0,.67.1.48.05.73.1h.3a.38.38,0,0,1,.48-.07,1.54,1.54,0,0,0,1-.39c.12-.06.29-.25.41-.25s.49-.08.66-.14.6-.2.72-.39a1.55,1.55,0,0,1,.71-.5.75.75,0,0,0,.6-.44.47.47,0,0,1,.35-.25,1.28,1.28,0,0,0,.65-.44,2.15,2.15,0,0,1,.54-.5c.23-.13.41-.32.59-.44s.17-.25.23-.25.3-.13.48-.26.3-.19.42-.31c.47-.44.88-.87,1.35-1.25a1.3,1.3,0,0,1,.3-.19c.18-.13.36-.25.41-.43s.24-.31.35-.5a2.25,2.25,0,0,0,.52-.8c.06-.12.06-.25.3-.31s.35-.44.52-.68c-.13-.42.17-.61.4-.86a.54.54,0,0,0,.17-.43c.12-.31.17-.61.53-.8.06-.07.18-.13.17-.25a4.42,4.42,0,0,1,.69-1.29c.12-.13.18-.31.3-.44s.23-.18.35-.31a.77.77,0,0,0,.46-.74,1,1,0,0,1,.28-.79,1,1,0,0,0,.29-.56c.06-.24,0-.42.11-.67s.1-.42.1-.67a1,1,0,0,1,.28-.73,1.45,1.45,0,0,0,.4-1.1,2.08,2.08,0,0,1,.33-1,1,1,0,0,0,.23-.49,17.29,17.29,0,0,0,.06-2.49A4.54,4.54,0,0,1,149.6,67.69Z"/><path class="cls-2" d="M68.08,89.37l-.61,0a3.34,3.34,0,0,1-1.15-.16c-.06,0-.12,0-.18,0-.48.07-.91-.16-1.39-.09a.33.33,0,0,1-.25,0,2.24,2.24,0,0,0-.91-.16.94.94,0,0,1-.42-.11c-.13,0-.31,0-.43,0a3,3,0,0,0-1,0c-.12,0-.35.19-.35.31a1.08,1.08,0,0,0,.14.85,2.09,2.09,0,0,1,.39,1,.44.44,0,0,0,.25.3c.13.11.31.11.37.23s.07.36.14.54L63,93.26c.56.53.52,1.38,1,2a1.93,1.93,0,0,1,.21.84,8.45,8.45,0,0,0,.27,1.33c0,.06.13.12.13.18a4,4,0,0,1,.14.91,2,2,0,0,0,.14.6,3.89,3.89,0,0,1,.51,1c.07.36.44.65.45,1,.19.12.13.24.13.37a2.37,2.37,0,0,0,.15.9c.06.3,0,.61.14.91a3.07,3.07,0,0,1,.14.84,2.46,2.46,0,0,1,.16,1.33,3.94,3.94,0,0,1-.21,1.16c0,.06-.06.18,0,.24a1.85,1.85,0,0,1-.27,1.28c-.29.5-.46,1-.75,1.54a5.66,5.66,0,0,1-.76,1,.61.61,0,0,1-.6.26c-.18,0-.36-.05-.48.13s-.18,0-.24,0a9.92,9.92,0,0,0-2.3-.06,2.48,2.48,0,0,1-1.15-.21c-.18-.06-.3-.06-.43-.11a13.07,13.07,0,0,0-1.39-.21,5.12,5.12,0,0,1-.92-.22,1.56,1.56,0,0,0-1.39-.08,2.46,2.46,0,0,1-1,.14,1.18,1.18,0,0,1-.86-.34,5.76,5.76,0,0,1-.81-.89,1,1,0,0,1-.25-.54,1.13,1.13,0,0,0-.26-.47,4.33,4.33,0,0,1-.64-1.38,1.86,1.86,0,0,0-.38-.6,1.53,1.53,0,0,1-.32-.84,3.91,3.91,0,0,0-.39-1.08,3.63,3.63,0,0,1-.47-1.56c0-.37,0-.67,0-1a6.66,6.66,0,0,0-.28-1.44,1.78,1.78,0,0,1-.14-.55c0-.48,0-.9,0-1.39A6.65,6.65,0,0,1,50,97.07a4.42,4.42,0,0,0-.18-2.49A5.59,5.59,0,0,1,49.23,92c0-.3,0-.55,0-.85a3.05,3.05,0,0,0-.14-.78v-.12a2.63,2.63,0,0,1-.28-1.51,4.09,4.09,0,0,0-.15-.85c-.06-.24,0-.55-.14-.78V87a15.19,15.19,0,0,1-.17-1.64,15.89,15.89,0,0,1,0-1.69,8.88,8.88,0,0,1-.15-1.15,7.33,7.33,0,0,0,0-1.15A2,2,0,0,1,48,80.14a3.78,3.78,0,0,0,0-1.64,26.71,26.71,0,0,1-.2-3.09.87.87,0,0,0-.13-.36.72.72,0,0,1-.14-.91,2.28,2.28,0,0,0,0-.91,2.67,2.67,0,0,1,0-1.7.9.9,0,0,0,0-.36,1.55,1.55,0,0,1,.16-.91c.11-.19,0-.43.16-.62-.13-.48.22-.79.39-1.1a1.28,1.28,0,0,0,.29-.79,1.1,1.1,0,0,1,.39-1,1.7,1.7,0,0,0,.4-1.17,3.33,3.33,0,0,1,.44-1.52,2.21,2.21,0,0,0,.23-.56,3.56,3.56,0,0,1,.4-.86,1.33,1.33,0,0,0,.17-.3c.23-.31.28-.68.58-1s.47-.62.76-.87a2.11,2.11,0,0,0,.53-.74.17.17,0,0,1,.05-.12,2.49,2.49,0,0,0,.64-1,1.61,1.61,0,0,1,.35-.5c.06-.12.24-.18.29-.31s.17-.49.29-.73.41-.38.46-.68.3-.37.41-.56a18.05,18.05,0,0,1,1.35-1.55,10.88,10.88,0,0,0,.89-.81,1.7,1.7,0,0,0,.23-.37.46.46,0,0,0-.32-.72c-.13-.06-.25,0-.37-.11a.72.72,0,0,1-.5-.72,1,1,0,0,1,.89-.75l1.75,0a1.71,1.71,0,0,1,.54.1c.19.06.31,0,.49.11a2.54,2.54,0,0,0,1.15-.15,1.35,1.35,0,0,1,1.08,0,2.86,2.86,0,0,1,1.18,1.06,1.1,1.1,0,0,0,.92.58,1.62,1.62,0,0,1,1.16.46c.19.18.49.17.67.22a3.24,3.24,0,0,0,1.52.15c.24,0,.54-.14.78-.15s.48-.19.72-.2a2.75,2.75,0,0,1,1.21,0,1.81,1.81,0,0,1,1.17.82,2,2,0,0,0,.31.36,11.36,11.36,0,0,1,1.38,1.66c.06.06.06.12.12.12.67.28.82,1.07,1.31,1.48a.84.84,0,0,1,.26.66,1.67,1.67,0,0,0,.2.78c.07.24.14.48.2.78a3.13,3.13,0,0,1,.14.79,6.29,6.29,0,0,1,0,1.15,5.89,5.89,0,0,1-.38,1.77c-.06.18.07.42-.17.55.07.42-.22.73-.39,1a3.35,3.35,0,0,0-.41.8c0,.12-.11.18-.17.31a3.75,3.75,0,0,0-.64.92c-.11.25-.41.32-.65.51a2.94,2.94,0,0,0-.53.43L72,68.1c-.66.2-1,.76-1.54,1.07-.12.07-.18.19-.3.31a1.41,1.41,0,0,1-.71.45,2.89,2.89,0,0,0-.54.37c-.11.07-.17.19-.29.26a5.92,5.92,0,0,0-1,.45,6.58,6.58,0,0,1-.89.56,9.94,9.94,0,0,0-.83.57c-.35.31-.77.57-1.06.88-.12.12-.3.07-.42.13a1.77,1.77,0,0,0-1.07,1c-.11.31,0,.61.38.6a1.91,1.91,0,0,0,1-.21,3.45,3.45,0,0,1,1.09-.21l1.15,0a3.7,3.7,0,0,1,1.45.2h.24a3.5,3.5,0,0,1,2,.5,3,3,0,0,1,1.55,1.41c.19.42.44.84.64,1.26.12.24,0,.49.14.73a1.26,1.26,0,0,1,.2.66c.13.42-.1.85-.09,1.27,0,.12-.12.25-.11.31a1.66,1.66,0,0,1-.39,1.28,3.17,3.17,0,0,0-.51,1.59,8,8,0,0,1-.2,1.28.81.81,0,0,0,0,.55,3.84,3.84,0,0,1-.72,2.56c-.06.13-.17.19-.17.31,0,.55-.41.68-.76.93a2.08,2.08,0,0,1-1.32.4A1.75,1.75,0,0,0,68.08,89.37ZM66,87.48h.67a2,2,0,0,0,1.32-.4c.29-.25.59-.56.88-.81a.88.88,0,0,0,.28-.74c0-.79,0-1.58.07-2.3a3.75,3.75,0,0,1,.33-1.1c.06-.13.17-.25.23-.38a3.43,3.43,0,0,1,.57-1.46,1.63,1.63,0,0,0,.21-.92A3.53,3.53,0,0,0,70.38,78a1,1,0,0,0-.26-.42c-.18-.24-.31-.42-.5-.65a3.47,3.47,0,0,0-1.05-.76c-.18-.06-.36,0-.48-.11a1.24,1.24,0,0,0-.49-.11,18.8,18.8,0,0,0-3.26.21c-.06,0-.12.06-.18.06-.23.19-.6.14-.77.45a.52.52,0,0,1-.3.13A7.85,7.85,0,0,0,62,77c-.3.13-.6.07-.84.32a1.44,1.44,0,0,1-1.32.28c-.06,0-.12-.06-.18,0a7,7,0,0,1-.68-.53c-.31-.3-.38-.48-.21-.85a1.73,1.73,0,0,0,.23-.73.63.63,0,0,1,.17-.43,6.79,6.79,0,0,1,.64-.8c.06-.07.24-.19.23-.25,0-.31.18-.37.35-.56a3.44,3.44,0,0,1,.41-.43c.12-.31.36-.44.59-.63a1.89,1.89,0,0,0,.42-.31.76.76,0,0,1,.47-.38,1.15,1.15,0,0,0,.66-.38.8.8,0,0,1,.47-.43,1.24,1.24,0,0,0,.48-.26,4,4,0,0,0,.41-.43c.06-.07.17-.19.29-.19a1.35,1.35,0,0,0,.78-.39c.18-.12.36-.25.59-.38s.49-.07.66-.2.36-.31.54-.44a8.41,8.41,0,0,0,1.59-1.31,1.51,1.51,0,0,1,.66-.44A7.32,7.32,0,0,0,70.9,65.7a1.88,1.88,0,0,0,.41-.55l.35-.38c.12-.12.11-.3.23-.43a6.84,6.84,0,0,1,.35-.67A5.24,5.24,0,0,0,72.68,62a5.42,5.42,0,0,1,.15-1,3,3,0,0,0,0-.73c-.31-.17-.07-.48-.26-.78s-.08-.54-.2-.84-.14-.6-.39-.84c-.43-.41-.69-.95-1.18-1.36-.25-.18-.38-.48-.69-.59-.12-.06-.24-.12-.24-.24-.33-.78-1-.58-1.59-.68-.66.26-1.27-.09-1.94,0l-.06-.06a1.21,1.21,0,0,0-.49-.11,8.49,8.49,0,0,1-2.07-.67,1,1,0,0,0-.55-.23,2.1,2.1,0,0,1-1-.46,1.11,1.11,0,0,0-1.33-.09,9.36,9.36,0,0,0-1.48,1.13c-.06.13-.24.19-.36.26s-.29.25-.41.43c-.23.37-.53.62-.76,1a.57.57,0,0,1-.23.31,3.79,3.79,0,0,0-.88,1.3c0,.06-.11.12-.17.19a2.56,2.56,0,0,0-.58.86,1.6,1.6,0,0,1-.41.68c-.24.19-.17.55-.34.73l-.18.19a9.45,9.45,0,0,0-1,1.18c-.11.18-.35.37-.34.68s-.17.3-.29.49-.41.49-.59.74-.17.31-.35.37a.6.6,0,0,0-.29.56,2.18,2.18,0,0,1-.5,1.35.8.8,0,0,0-.17.43A4.71,4.71,0,0,1,51,67.87a1.28,1.28,0,0,0-.23.61,1.17,1.17,0,0,1-.46,1,1.37,1.37,0,0,0-.28.68,3.36,3.36,0,0,1-.09,1.09,3.48,3.48,0,0,0-.1.79c-.06.31-.17.55,0,.85a.59.59,0,0,1-.05.25,3.2,3.2,0,0,0-.26,1.7c.08.66,0,1.27,0,1.94a.87.87,0,0,0,.13.42c.07.24.2.48.26.72a4.62,4.62,0,0,1,0,.91v.61a3.38,3.38,0,0,0,.16,1.33.82.82,0,0,1,0,.54c-.11.19,0,.31,0,.49s.14.42.14.66c.09,1.15.12,2.3.21,3.45l0,.55a.87.87,0,0,0,.13.42,5,5,0,0,1,.17,1.63c-.3.31,0,.61,0,.85a.75.75,0,0,0,.13.36c.25.42.08.91.22,1.39a8.29,8.29,0,0,1,.16,1.76,8.5,8.5,0,0,0,.16,1.2,1.89,1.89,0,0,0,.26.79c.43.47.39,1.08.53,1.68A2.52,2.52,0,0,1,52,97.68a2.11,2.11,0,0,0-.29.79c0,.61-.14,1.28.29,1.82,0,.3.26.47.26.72l0,.91a6,6,0,0,0,.15,1,.66.66,0,0,0,.19.42.69.69,0,0,1,.19.48,1.32,1.32,0,0,0,.14.67c.19.41.21.9.46,1.2a10.79,10.79,0,0,1,.64,1.37.92.92,0,0,0,.32.6,1.76,1.76,0,0,1,.56.72c.13.3.49.35.8.46.59-.38,1,0,1.57.2a2,2,0,0,1,.55.23.9.9,0,0,0,.67.1c.24-.06.43.11.67.11a6.09,6.09,0,0,1,1,.15,5.74,5.74,0,0,0,1,0,6.16,6.16,0,0,1,1-.21c.66-.07,1-.32,1-1a1.18,1.18,0,0,1,.17-.61,2,2,0,0,0,.5-1.41c.24-.19,0-.55.11-.73s0-.55.1-.79v-.31a3.34,3.34,0,0,1-.28-1.38,3.31,3.31,0,0,0-.34-1.33,5.77,5.77,0,0,1-.46-1.44,1.88,1.88,0,0,0-.45-1.08A2.14,2.14,0,0,1,62.2,98a4.07,4.07,0,0,0-.14-.85,2.23,2.23,0,0,0-.32-.48,2.29,2.29,0,0,1-.19-.36,4.74,4.74,0,0,1-.27-1.26,1.6,1.6,0,0,0-.26-.72,3,3,0,0,1-.51-1,8.27,8.27,0,0,0-.73-2.34,6.79,6.79,0,0,0-.39-1c-.19-.29-.44-.59-.63-.89-.06-.06-.06-.12-.12-.18s-.13-.18-.19-.3a1.21,1.21,0,0,1-.38-.59c0-.06-.06-.12,0-.24a.52.52,0,0,1,.3-.32,2.69,2.69,0,0,1,1.38-.4l1.33,0c.18.18.36.11.54.11a1.78,1.78,0,0,0,.55.1c.48,0,1,0,1.45.09h.12a9,9,0,0,0,1.34.21C65.43,87.56,65.73,87.49,66,87.48Z"/><path class="cls-2" d="M388.35,84.44a38.43,38.43,0,0,1-.25-4.55c0-.78.15-1.52.07-2.24a1.91,1.91,0,0,1,.16-.55c.06-.25.23-.43.29-.68a2.26,2.26,0,0,0,.1-.85.63.63,0,0,1,.1-.55c.06-.12-.07-.36.05-.48s.05-.25.05-.37a3.67,3.67,0,0,1,.21-1.16,4.46,4.46,0,0,0,.33-1.28,5.81,5.81,0,0,1,.49-2,2.72,2.72,0,0,0,.29-.74c.05-.3.34-.55.52-.8s.17-.37.29-.55a3.4,3.4,0,0,1,.52-.81c.23-.31.53-.62.76-1a.64.64,0,0,0,.17-.43,3.93,3.93,0,0,1,.21-1.21,1.3,1.3,0,0,0,0-1,6.49,6.49,0,0,1-.21-1,16.09,16.09,0,0,0-.16-1.69c0-.61,0-1.15-.05-1.76a1.91,1.91,0,0,1,.39-1.28,1.75,1.75,0,0,0,.28-.8,3.37,3.37,0,0,1,.45-1.29,1.61,1.61,0,0,0,.28-1,5.63,5.63,0,0,1,.31-2c0-.13,0-.25.11-.31a2.37,2.37,0,0,0,.46-1,2.72,2.72,0,0,1,.39-1,8.8,8.8,0,0,1,1.35-1.62,3.85,3.85,0,0,1,.53-.43.68.68,0,0,0,.3-.25,1.28,1.28,0,0,1,.65-.45c.12,0,.18-.12.3-.19a3.18,3.18,0,0,1,1.07-.69,16.51,16.51,0,0,0,1.55-.71,4.23,4.23,0,0,1,2.11-.36,1.48,1.48,0,0,1,1,.46,1.37,1.37,0,0,0,1.22.45,4.57,4.57,0,0,0,2-.59,2.48,2.48,0,0,1,1.2-.4,1.13,1.13,0,0,0,.42-.13A.55.55,0,0,0,409,45a1.73,1.73,0,0,1,.6,0,3.26,3.26,0,0,0,1.32-.28h.19a4.53,4.53,0,0,1,2.18.18c.48-.13.91.16,1.39.21a1.73,1.73,0,0,1,1,.4c.25.17.49.41.74.58a11.63,11.63,0,0,1,1.18,1.25s.06,0,.06.06c0,.6.51.89.76,1.31.07.18.14.36.2.54a2.11,2.11,0,0,0,.52,1.32,1.39,1.39,0,0,1,.39,1,5,5,0,0,0,.4,1.57,8.25,8.25,0,0,1,.45,1.08.66.66,0,0,1,.07.36,2.41,2.41,0,0,0,.34,1.14,7.22,7.22,0,0,1,.52,1.63,4.3,4.3,0,0,0,.21.84c0,.06.06.12.06.18.08.73.16,1.45.18,2.18a5.26,5.26,0,0,1-.21,1.34.41.41,0,0,1-.11.3c-.06.19-.11.31-.17.49a4.87,4.87,0,0,1-.53.68c-.17.19-.35.44-.65.45a.42.42,0,0,0-.3.13,3.47,3.47,0,0,1-1.73.89,4.53,4.53,0,0,1-1.8.29,2.3,2.3,0,0,0-.85.14,3.76,3.76,0,0,0-.71.33,2.32,2.32,0,0,1-.6.19,6.16,6.16,0,0,0-2.15,1.09,3,3,0,0,1-1.14.46c-.42.07-.77.26-1.2.33-.12,0-.23.13-.29.13l-1.52,0a.34.34,0,0,1-.36-.17c-.13-.12-.19-.3-.32-.42a.53.53,0,0,0-.6,0,.47.47,0,0,0-.29.49l0,.73a.72.72,0,0,1-.17.61c-.11.12-.05.42,0,.66,0,.07.19.12.31.12.54,0,1.15,0,1.69.07a3.35,3.35,0,0,1,1.65.51c.18.17.48.17.73.28A.63.63,0,0,1,411,71a.77.77,0,0,0,.86.4.92.92,0,0,1,.67.23c.31.23.5.59.93.64.06,0,.06.06.12.12.43.41.75.89,1.18,1.3s.82,1.31,1.38,1.84a.23.23,0,0,1,.07.18c.19.49.56.9.76,1.38s.51,1,.76,1.44c.06.05.07.18.07.3l0,.72a2.58,2.58,0,0,0,.14.91,1.15,1.15,0,0,1,0,.79,2.62,2.62,0,0,0,0,1.15,1.77,1.77,0,0,1-.38,1.35,3.14,3.14,0,0,0-.28.85c-.06.12-.05.37-.11.43-.3.25-.35.61-.52.92a2.57,2.57,0,0,1-.41.68,5.06,5.06,0,0,0-.35.56,10.39,10.39,0,0,1-.69,1c-.35.56-.76,1-1.11,1.49a2.6,2.6,0,0,1-.71.69,1.86,1.86,0,0,0-.59.62,5.55,5.55,0,0,1-1.06,1c-.24.18-.41.37-.65.56-.42.25-.71.68-1.12.94s-.47.5-.77.69a2.18,2.18,0,0,1-.54.25.91.91,0,0,0-.41.26,2.81,2.81,0,0,1-1.32.64,4,4,0,0,1-1.88-.2c-.12,0-.24,0-.3-.11-.25-.36-.68-.41-1-.58a7.17,7.17,0,0,0-.92-.46c-.55-.23-1.11-.52-1.66-.81s-1.1-.51-1.59-.8a1.73,1.73,0,0,0-.73-.23,1.34,1.34,0,0,1-.67-.28,2.33,2.33,0,0,0-.92-.34,1,1,0,0,1-.67-.35,1.08,1.08,0,0,0-.74-.22.75.75,0,0,1-.36,0c-.18-.12-.42,0-.67-.17s-.55-.1-.79-.28-.8-.28-1.22-.51c-.55.07-.86-.28-1.23-.52-.12,0-.25-.23-.37-.23-.48,0-.73-.46-.92-.82a5.21,5.21,0,0,1-.45-.78,2.59,2.59,0,0,1-.39-1,1.46,1.46,0,0,0-.32-.84,1.45,1.45,0,0,1-.4-1.14C388.35,84.68,388.35,84.56,388.35,84.44ZM415.49,80a1.75,1.75,0,0,0-.33-1.08,5.19,5.19,0,0,1-.38-.84,2.07,2.07,0,0,0-.63-1,.49.49,0,0,1-.19-.41,3.34,3.34,0,0,0-.33-.72,1.86,1.86,0,0,0-.49-.48c-.25-.11-.19-.42-.32-.59a3.61,3.61,0,0,1-.62-.78,5,5,0,0,0-.81-.76c-.42,0-.68-.35-.92-.53s-.37-.17-.49-.29-.55-.16-.74-.4a.82.82,0,0,0-.55-.29,2.38,2.38,0,0,1-.8-.34.71.71,0,0,0-.78.08c-.06.06-.12.18-.24.19a1.21,1.21,0,0,0-.63,1.11A6.24,6.24,0,0,1,406,74a3.84,3.84,0,0,0-.38,1.41,1.42,1.42,0,0,1-.52,1.17.81.81,0,0,0-.28.55,1.77,1.77,0,0,1-.46.86,1.29,1.29,0,0,0-.35.5c-.12.3-.3.37-.66.44a4.4,4.4,0,0,1-.85-.1.83.83,0,0,1-.51-1.08,5,5,0,0,0,.36-2.44,6.8,6.8,0,0,1,.15-1.09c0-.06.06-.12.06-.25a3.35,3.35,0,0,0,0-.72c-.13-.24-.07-.49-.2-.73a3.12,3.12,0,0,1-.27-1.08,1.05,1.05,0,0,1,0-.61,2.45,2.45,0,0,1,.94-1.29,3.81,3.81,0,0,0,.34-.56,3.14,3.14,0,0,1,.33-1.22.67.67,0,0,0,.12-.31,10.86,10.86,0,0,1,.05-2.49,7.4,7.4,0,0,0,0-1.15.77.77,0,0,0-.07-.36c-.07-.24-.25-.42-.2-.66a2.08,2.08,0,0,1,.47-.56,1.76,1.76,0,0,1,.3-.19.42.42,0,0,1,.66,0,.52.52,0,0,0,.25.12,2.54,2.54,0,0,1,.92.64l.62.59a1,1,0,0,1,.19.3c.13.18.31.36.44.53s.13.18.19.3a4.78,4.78,0,0,0,.5.66,1.22,1.22,0,0,0,1,.39,3.75,3.75,0,0,0,1.62-.58c.11-.07.23-.25.35-.26a3.57,3.57,0,0,0,1.08-.51,1,1,0,0,1,.41-.13,9.42,9.42,0,0,0,1.81-.47c.54-.14,1.08-.28,1.62-.47a1.41,1.41,0,0,1,.72-.14.6.6,0,0,0,.6-.26,2,2,0,0,1,.89-.57c.77-.32.83-.63.93-1.3,0-.3,0-.61.1-.85.1-.67.16-.73,0-1.15a2.18,2.18,0,0,1-.14-.6c-.07-.43-.08-.91-.15-1.33-.07-.18-.08-.43-.14-.61s-.07-.18-.13-.3c-.19-.29-.44-.53-.45-.83A9.6,9.6,0,0,1,418,54a1.41,1.41,0,0,0-.33-1c-.19-.36-.5-.66-.45-1.14a1.6,1.6,0,0,0-.52-1.32,1.22,1.22,0,0,1-.25-.48c-.13-.3-.2-.73-.39-.9a10.18,10.18,0,0,1-.69-1c-.13-.11-.19-.17-.31-.29-.37-.29-.86-.4-1.11-.82a.72.72,0,0,0-.61-.23l-3.69.1a1.6,1.6,0,0,0-1,.33,1.77,1.77,0,0,1-1.25.52c-.55,0-1.08.33-1.63,0h-.18c-.24.25-.55,0-.73.14s-.48.07-.72.14l-1.21,0a8.33,8.33,0,0,1-1.21-.15,1.23,1.23,0,0,0-1.38.4c-.12.18-.29.43-.41.44-.36.07-.47.37-.71.56a1.1,1.1,0,0,1-.42.31,2,2,0,0,0-.88.94,9.08,9.08,0,0,1-.64.86c-.06.07-.24.19-.24.25a2,2,0,0,1-.39,1c0,.06-.06.06-.06.13.07.42-.22.79-.21,1.21-.18.19-.05.49-.16.74a9.7,9.7,0,0,0-.55,2,2.58,2.58,0,0,1-.52,1.29.51.51,0,0,0-.11.3,6.8,6.8,0,0,0-.09,1.1,16.78,16.78,0,0,0,.2,3,22.85,22.85,0,0,1,0,3.51.81.81,0,0,1-.34.62,3.35,3.35,0,0,0-.42.43c-.17.19-.23.37-.4.56a1.83,1.83,0,0,0-.47.8,1.89,1.89,0,0,1-.23.43c-.23.43-.58.75-.57,1.29,0,.12-.11.19-.17.31a5.38,5.38,0,0,0-.52,1c-.11.37-.1.73-.21,1.1a2.79,2.79,0,0,1-.28,1,2.87,2.87,0,0,0-.21,1c-.05.37-.22.8-.28,1.16a8.07,8.07,0,0,1-.26,1.28,6,6,0,0,0-.15,1.16,10.33,10.33,0,0,0-.07,2,.24.24,0,0,1-.06.19c-.23.49-.09,1.09-.26,1.58a1.09,1.09,0,0,0,0,.18c.24.24.07.61.26.91a1.3,1.3,0,0,1,.14.72c0,.42.27.84.16,1.27.12.18.07.48.38.66s.25.35.31.59c.08.49.15,1,.7,1.14.12.06.24.11.25.23.13.43.55.47.86.77a1.13,1.13,0,0,0,.8.28,1.81,1.81,0,0,1,.91.28,2.07,2.07,0,0,0,.74.35c.24,0,.54,0,.78.1a2,2,0,0,1,.55.22,3.18,3.18,0,0,0,1.29.46,2.51,2.51,0,0,1,1.28.45,1.39,1.39,0,0,0,.43.23c.18,0,.42,0,.6.1a5.71,5.71,0,0,1,.61.23.75.75,0,0,0,.61.17c.13.24.43.23.62.34a3.51,3.51,0,0,1,.61.35,4.55,4.55,0,0,0,.74.41,1.28,1.28,0,0,1,.61.34,2.82,2.82,0,0,0,1.59.63,1.75,1.75,0,0,0,1.55-.65c.12-.12.24-.31.42-.31a.73.73,0,0,0,.47-.38c.06-.06.06-.18.12-.18a2.65,2.65,0,0,0,1-.82,2.54,2.54,0,0,1,.66-.44,2.85,2.85,0,0,0,.58-.62c.18-.19.42-.32.53-.56a1,1,0,0,1,.42-.44c.17-.12.23-.37.41-.49s.35-.26.47-.44a4,4,0,0,0,.41-.56,3.6,3.6,0,0,0,.47-.43.49.49,0,0,0,.11-.25,1.24,1.24,0,0,1,.52-1,1,1,0,0,0,.35-.62,1.31,1.31,0,0,1,.34-.62c.18-.18.36-.37.35-.55s.17-.55.1-.79a.7.7,0,0,1,.17-.49.4.4,0,0,0,.17-.43,2.51,2.51,0,0,1,.09-1.15A1.76,1.76,0,0,1,415.49,80Z"/><path class="cls-2" d="M344.1,82.45a15.8,15.8,0,0,0-.05-1.82,4.89,4.89,0,0,1,.43-2.25,3.88,3.88,0,0,0,.31-2,3.59,3.59,0,0,1-.14-.85,3.91,3.91,0,0,1,.2-1.46,1.91,1.91,0,0,0,0-.79,2.17,2.17,0,0,1,.27-1.22,1.43,1.43,0,0,0,.27-1,7.44,7.44,0,0,0,.4-1.11,10.41,10.41,0,0,0,.39-1.28,9.63,9.63,0,0,0,.33-1.22c0-.06.11-.19.11-.25a7.92,7.92,0,0,1,.08-1.7,5.39,5.39,0,0,1,.32-1.4,5.38,5.38,0,0,0,.33-1.41,5.58,5.58,0,0,1,.33-1.34.21.21,0,0,1,0-.18,2.83,2.83,0,0,0,.63-1.29.25.25,0,0,1,.06-.19c.41-.49.82-.93,1.23-1.42.06-.06.12-.07.18-.13l.71-.38a2.13,2.13,0,0,1,1.08-.39,5.57,5.57,0,0,0,1-.15l1,0,1,0a.67.67,0,0,1,.74.52,1,1,0,0,0,.38.6,1.85,1.85,0,0,0,.73.22,6.46,6.46,0,0,0,1.92-.35c.24-.25.61,0,.84-.27a8.06,8.06,0,0,1,1.69-.16,8,8,0,0,0,1.69,0,3.89,3.89,0,0,0,1.21-.27c.11-.06.24-.07.29-.13l.85,0a1.38,1.38,0,0,1,1.35.81,3,3,0,0,0,.5.66.91.91,0,0,1,.38.47,2.78,2.78,0,0,0,.62.83c.19.12.2.42.32.66s.07.3.14.42a.65.65,0,0,0,1.09.1c.17-.19.29-.25.1-.55s.05-.49.16-.73a6.42,6.42,0,0,0,.38-1.89c0-.07.34-.86.34-.92s.23-.25.23-.37a1.11,1.11,0,0,1,.4-.74,2.23,2.23,0,0,0,.41-.62,1.08,1.08,0,0,1,.59-.56,3.92,3.92,0,0,1,.71-.44,5.74,5.74,0,0,1,1,0,1.36,1.36,0,0,1,1,.16.79.79,0,0,0,.37,0,2.78,2.78,0,0,1,1.21.27,2,2,0,0,0,.85.16l.55,0a3.87,3.87,0,0,0,1.2-.15,6.94,6.94,0,0,1,1.63-.16l.54,0a.71.71,0,0,1,.61.17,1.16,1.16,0,0,1,.38.71,8.45,8.45,0,0,0-.09,1.22c0,.42,0,.79,0,1.21a1.35,1.35,0,0,1-.23.68,1.9,1.9,0,0,0-.21,1c0,.3,0,.55,0,.85a1,1,0,0,0,0,.42c.19.36.14.85.33,1.21a1,1,0,0,1,0,.73,1.05,1.05,0,0,0-.05.42,1.46,1.46,0,0,0,.14.48c.06.18-.05.37.13.48a4.58,4.58,0,0,1,0,1.28.9.9,0,0,0-.05.36.53.53,0,0,1-.05.43.79.79,0,0,0-.05.37,2.89,2.89,0,0,1-.07,1.76c-.05.3-.23.55,0,.91A2.89,2.89,0,0,1,381.7,71a3.2,3.2,0,0,0-.15,1.09c0,1-.13,2,0,2.91a17.57,17.57,0,0,0,0,3.16c0,.18-.11.37-.11.55a2.53,2.53,0,0,0-.1.67c0,.24,0,.42,0,.66s0,.67,0,1a1.81,1.81,0,0,1-.1.61,1.16,1.16,0,0,0-.1.79c0,.25,0,.43,0,.67.08.85-.14,1.7-.06,2.55A3.79,3.79,0,0,0,381,87.3a2.44,2.44,0,0,1-.45,1.53,2.6,2.6,0,0,0-.22.73,2.18,2.18,0,0,0-.11.61c0,.18,0,.42,0,.61s0,.54,0,.78a4.32,4.32,0,0,1-.21,1.16c0,.06-.06.06,0,.12.2.66-.27,1.16-.31,1.77,0,.12-.12.24-.11.37s-.06.12-.06.18c-.23.37-.46.74-.7,1.11a1.05,1.05,0,0,1-.65.5.52.52,0,0,0-.3.13,1.37,1.37,0,0,1-1,.51.66.66,0,0,1-.36.07,6.52,6.52,0,0,0-1.57.29,1.85,1.85,0,0,1-1.27,0c-.66.08-1.15-.39-1.7-.56a1.17,1.17,0,0,1-.49-.23,1.11,1.11,0,0,0-.73-.22,1.06,1.06,0,0,1-.61-.23,11.57,11.57,0,0,0-.93-.83,1.24,1.24,0,0,1-.58-1.07,1,1,0,0,0-.44-.84,1.11,1.11,0,0,1-.44-.65,2.3,2.3,0,0,1,.09-1.1,1.68,1.68,0,0,0-.27-1.2.39.39,0,0,0-.37-.18,1,1,0,0,0-.71.51,3.36,3.36,0,0,0-.46.86A5.31,5.31,0,0,1,365,93.42c-.06.13-.24.13-.3.25a1.33,1.33,0,0,0-.41.44,1.45,1.45,0,0,1-.77.69c-.3.13-.59.38-1,.51a1.77,1.77,0,0,1-.54.13l-3,.08a10.15,10.15,0,0,1-1.89-.37,6.59,6.59,0,0,0-1.46-.39c-.24,0-.42-.11-.67-.1s-.42-.11-.6-.11l-.73,0c-.06,0-.18,0-.24,0-.24,0-.49-.17-.79-.16s-.61-.11-.91-.1a4.7,4.7,0,0,1-.91-.1.77.77,0,0,1-.49-.17,1.36,1.36,0,0,0-1-.15c-.18,0-.36-.06-.37-.18s-.25-.29-.43-.35a1.15,1.15,0,0,1-.68-.53,1.61,1.61,0,0,0-.62-.47.49.49,0,0,1-.31-.29.45.45,0,0,0-.12-.24c-.5-.35-.57-1-.77-1.44-.06-.18-.19-.42-.25-.6-.14-.48-.27-1-.41-1.5a1.77,1.77,0,0,1-.13-.54c0-.18-.13-.36-.14-.55a1.94,1.94,0,0,0-.19-.54c-.07-.12-.07-.24-.13-.3a.45.45,0,0,0-.07-.3,3.49,3.49,0,0,1-.34-1.26A9.6,9.6,0,0,1,344.1,82.45Zm27.14-16.12c0,.12,0,.18,0,.3a1.52,1.52,0,0,1-.56,1.53,1.29,1.29,0,0,1-1,.39,1.09,1.09,0,0,1-1.05-1l0-1.09a3,3,0,0,0-.39-1.08,2.54,2.54,0,0,1-.46-1.2c0-.18-.13-.54-.32-.6a1.47,1.47,0,0,1-.37-.48,1.17,1.17,0,0,1-.14-.66c-.07-.24-.13-.48-.38-.6a.47.47,0,0,1-.25-.23,7.53,7.53,0,0,0-.87-1.13c-.13-.06-.19-.24-.25-.3a1.52,1.52,0,0,0-1.66-.86c-.48.07-1,.08-1.38.15l-2.18.06a1.91,1.91,0,0,0-.84.15c-.3.18-.66.07-.9.26a8.31,8.31,0,0,0-2.05.42,5.69,5.69,0,0,0-1.08.27.88.88,0,0,1-.66.08c-.18-.06-.3-.05-.49-.11s-.36-.11-.54-.11a1,1,0,0,1-1-.4l-.19-.17a.65.65,0,0,0-.66-.05c-.36.26-.78.51-.82,1a1.3,1.3,0,0,1-.29.43,1.77,1.77,0,0,0-.51,1.41,2.75,2.75,0,0,1-.39,1.4,2,2,0,0,0-.28.92,6.68,6.68,0,0,1-.09,1.09c-.24.13,0,.37-.16.55s-.29.8-.4,1.17a3,3,0,0,0,0,1c0,.36-.16.61-.09,1a1.45,1.45,0,0,1-.4,1.1,1.66,1.66,0,0,0-.4.86,6.39,6.39,0,0,0-.21,1,4.13,4.13,0,0,0-.43,2.25c0,.85.05,1.64.07,2.49a3.62,3.62,0,0,1,0,.73,1.66,1.66,0,0,0-.1.79,1.65,1.65,0,0,1-.17.73,1.62,1.62,0,0,0-.34.86,6,6,0,0,0-.09,1c0,.36,0,.79,0,1.15a3.33,3.33,0,0,0,.09,1.09c.07.36,0,.79.09,1.15a4.19,4.19,0,0,0,.14.85c.13.24.08.54.27.72a2,2,0,0,1,.14.78c0,.06.06.06.06.12A12.67,12.67,0,0,1,347.6,89a.4.4,0,0,0,.07.24c.13.54.51,1,.7,1.56a1.11,1.11,0,0,0,.25.29,4.15,4.15,0,0,1,.56.54c.25.35.5.71,1,.7a.13.13,0,0,1,.12.12,1.83,1.83,0,0,0,1.1.33,10.07,10.07,0,0,0,1.45.08H353c.25.11.55.11.73.22s.55,0,.85.16a2.41,2.41,0,0,0,1,.16c.54,0,1.09.15,1.63.08h.12a11.54,11.54,0,0,0,2.07.37c.42.11.9,0,1.33.09s.54-.2.78-.32a1.6,1.6,0,0,1,.59-.32,2.08,2.08,0,0,0,.77-.51,1.1,1.1,0,0,1,.42-.31,1.87,1.87,0,0,0,.82-.87c.12-.25.17-.49.47-.62.06,0,.12-.13.11-.25.17-.43.28-.79.45-1.22.12-.19.3-.37.23-.61.29-.44.22-.92.45-1.41s.16-.61-.09-1.15a2.45,2.45,0,0,1-.11-1.76,1.38,1.38,0,0,0,0-1.09.66.66,0,0,1,.22-.91.86.86,0,0,0,.23-.25.79.79,0,0,1,1.34.32,1.57,1.57,0,0,1,.14.79,2.4,2.4,0,0,0,.28,1.27,3.61,3.61,0,0,1,.4,1.38,2.86,2.86,0,0,0,.15,1c.13.3.08.72.44.9,0,.24.26.47.33.71a10.22,10.22,0,0,1,.15,1.33,1.46,1.46,0,0,0,.39,1,2.27,2.27,0,0,1,.45,1.21c0,.18,0,.42,0,.6a1.41,1.41,0,0,0,.33,1,2.81,2.81,0,0,1,.44.66,2,2,0,0,0,1.29,1,1.47,1.47,0,0,1,.86.34,1.1,1.1,0,0,0,.55.22c.24.06.54,0,.73.11a1.34,1.34,0,0,0,.84,0,1.09,1.09,0,0,0,.78-.32,4.66,4.66,0,0,1,.65-.44c.24-.13.29-.43.53-.56.06-.06.18-.07.24-.13s.41-.37.35-.61c0-.43.1-.79.09-1.16a1.58,1.58,0,0,1,.16-.79,2,2,0,0,0,.27-1.16c0-.24,0-.55,0-.79a2.53,2.53,0,0,1,.5-1.65.22.22,0,0,0,.06-.18,1.83,1.83,0,0,0,.1-.55c0-.18.11-.37.11-.55-.09-1,.13-1.88,0-2.85a1.55,1.55,0,0,1,.11-.73c.16-.55.16-.55,0-1.34a1.38,1.38,0,0,1,0-.66,2.77,2.77,0,0,0,.16-.8c.05-.73,0-1.45.07-2.18s-.05-1.7.05-2.55,0-1.52.06-2.25.09-1.33.19-1.94c.06-.18.05-.43.11-.61a5.87,5.87,0,0,0,.1-.85,5.16,5.16,0,0,0,.1-.79,4.38,4.38,0,0,0,.1-.79c0-.91-.11-1.82-.08-2.73s-.22-1.75-.19-2.66a2.57,2.57,0,0,0-.15-1.34c-.06,0,0-.24,0-.3a3.32,3.32,0,0,0-.1-1.51,1.89,1.89,0,0,1,.07-1.7c.06-.13.12-.19.12-.31l0-.91a.69.69,0,0,0-.74-.65l-1,0c-.3,0-.66-.1-1-.09a3.57,3.57,0,0,1-1.39-.15c-.3,0-.61,0-.91-.1a1.4,1.4,0,0,0-.84.27,1.21,1.21,0,0,0-.76.87,1.45,1.45,0,0,1-.35.67,1.61,1.61,0,0,0-.39,1.23A6.75,6.75,0,0,1,372,61.4a3.51,3.51,0,0,0-.21,1.1,12.86,12.86,0,0,1-.27,1.46,3.42,3.42,0,0,0-.15,1.09c.07.3.08.61.15.91C371.23,66,371.24,66.15,371.24,66.33Z"/><path class="cls-2" d="M245.44,57c0,.31,0,.67,0,1,0,1.22-.11,2.37,0,3.58a1.45,1.45,0,0,1-.11.49,20.61,20.61,0,0,1-.6,2.62c-.11.37-.16.74-.27,1.1a3.46,3.46,0,0,1-.22.74c-.12.24.07.48-.11.67s0,.3,0,.48-.12.31-.11.43c0,.36-.17.67-.1,1a5.94,5.94,0,0,1,0,1c0,.31-.1.55-.1.85l0,.91a.48.48,0,0,1-.12.25,14,14,0,0,1-.66,2.26c-.12.25,0,.55-.1.85a4.09,4.09,0,0,0-.27,1.22,3.66,3.66,0,0,1-.4,1.1.6.6,0,0,0-.11.25,3.07,3.07,0,0,1-.51,1.29c-.12.18-.29.37-.29.55a1.41,1.41,0,0,1-.4.86,6.77,6.77,0,0,1-1,1.24c-.53.56-1.18,1.06-1.77,1.63a2.49,2.49,0,0,1-.54.31,1.72,1.72,0,0,0-.71.45,1.08,1.08,0,0,1-.6.25c-.24,0-.48.32-.72.27-.23.37-.66.32-1,.51a1.13,1.13,0,0,1-.42.13l-.67,0a.45.45,0,0,1-.24-.12,9.73,9.73,0,0,1-1.11-.57,9.11,9.11,0,0,0-1.22-.52,5,5,0,0,1-1-.4,4.37,4.37,0,0,1-1.24-1.12v-.12a1.82,1.82,0,0,0-.26-.6,4.86,4.86,0,0,0-.37-.53c-.31-.3-.2-.72-.33-1.08a3.14,3.14,0,0,0-.45-1,1.55,1.55,0,0,1-.33-.78c-.06-.24-.25-.24-.37-.36s-.18.07-.3.07c-.54.14-.77.63-1.06,1a1.48,1.48,0,0,1-.71.75.06.06,0,0,0-.06.06c-.53.56-1.06,1.06-1.65,1.62a5.38,5.38,0,0,1-.59.56,4.16,4.16,0,0,0-.76.69,5.25,5.25,0,0,1-1.13.82.55.55,0,0,1-.6,0l-1.66-.86a1.65,1.65,0,0,0-.61-.23,1.91,1.91,0,0,1-1.1-.58,6.29,6.29,0,0,0-1.54-1,1.17,1.17,0,0,0-.67-.16,2.4,2.4,0,0,1-1.72-1.11,7.4,7.4,0,0,0-.69-.83,5.4,5.4,0,0,1-.56-.65,1.46,1.46,0,0,0-.87-.83c-.06,0-.12-.12-.19-.18-.25-.6-.81-1-1.06-1.49a0,0,0,0,0-.06,0,1.9,1.9,0,0,1-.7-1.2,1.33,1.33,0,0,0-.44-.59,1.8,1.8,0,0,1-.32-.78,1,1,0,0,1,0-.85c.11-.25-.08-.61.15-.86a9.27,9.27,0,0,1,.09-1.33c0-.12.05-.25.05-.37a7,7,0,0,0,.37-1.89,3.34,3.34,0,0,0,.09-1.33c0-.12.11-.25.11-.37,0-.36.29-.67.28-1s.22-.67.27-1a6.09,6.09,0,0,0,.15-1,1.52,1.52,0,0,1,.22-.86,2.66,2.66,0,0,0,.46-1.22,1.66,1.66,0,0,1,.45-1.11,1.39,1.39,0,0,0,.23-.43,3.75,3.75,0,0,1,.58-1.1.87.87,0,0,0,.23-.43,1.07,1.07,0,0,1,.4-.74,7.08,7.08,0,0,0,.59-.62,3.89,3.89,0,0,1,1.24-1c.48-.25,1-.63,1.43-.88l1.37-.77a7.1,7.1,0,0,1,1-.39c.12-.06.24-.07.36-.13a3.37,3.37,0,0,1,1.49-.52,10.4,10.4,0,0,1,2.72-.2,7.41,7.41,0,0,1,1.21.15c.37.11.73.29,1,.4a2.53,2.53,0,0,0,.61.23,1.13,1.13,0,0,1,.67.4,1.56,1.56,0,0,0,1,.52,3.58,3.58,0,0,1,1.1.52,5.54,5.54,0,0,0,1.35.63c.54.17,1.15.33,1.7.56.37.17.43.17.6-.14a7.24,7.24,0,0,0,.75-1.53,3,3,0,0,1,.46-.92,2,2,0,0,0,.34-.8,1.37,1.37,0,0,1,.34-.8,1.65,1.65,0,0,0,.46-1.1.92.92,0,0,1,.34-.68,1.83,1.83,0,0,0,.46-1c0-.06,0-.18.05-.18a3.57,3.57,0,0,0,.75-1.36,1.47,1.47,0,0,1,1.37-.88,8.54,8.54,0,0,1,1.75,0,2.68,2.68,0,0,1,1.77.5.19.19,0,0,1,.12.06,4.58,4.58,0,0,1,1.91,1.46c.38.42.69.89,1.07,1.31.56.59.88,1.31,1.44,1.9a4.06,4.06,0,0,1,.57,1.14,1.15,1.15,0,0,1,.14.78,1.78,1.78,0,0,0,.14.55c.06.18-.05.36.07.48s0,.24.07.36A6.38,6.38,0,0,0,245.44,57Zm-17.12,18.1c0,.25,0,.49,0,.73a2.1,2.1,0,0,0,.46,1.32c.13.24.26.48.38.72a3.07,3.07,0,0,0,.38.72,1.89,1.89,0,0,1,.52,1.26,1.63,1.63,0,0,0,.2.72A3.91,3.91,0,0,0,231.47,82a1.19,1.19,0,0,0,.67.34,2.71,2.71,0,0,1,.92.4.85.85,0,0,0,.55.23c.66,0,1.33.15,1.86-.41a4.38,4.38,0,0,1,.9-.51c.41-.32.82-.69,1.24-1.07l1.23-1.3a1.42,1.42,0,0,0,.4-.8,1.16,1.16,0,0,1,.29-.61,1.82,1.82,0,0,0,.46-1,1.26,1.26,0,0,1,.4-.8,1.19,1.19,0,0,0,.4-1c0-.18,0-.42,0-.6a1.55,1.55,0,0,1,.39-1.23.71.71,0,0,0,.23-.49c0-.36.1-.67.1-1,0-.61,0-1.21.07-1.82,0-.12.17-.31.11-.43-.19-.36-.08-.79-.15-1.15a.73.73,0,0,1,.22-.67.93.93,0,0,0,.22-.79c0-.31-.14-.67,0-.91s.05-.49.16-.74a1.45,1.45,0,0,0,.28-.73,1.11,1.11,0,0,0,.17-.43c-.06-.3.11-.55.1-.85a3.67,3.67,0,0,1,.1-.85,17.29,17.29,0,0,0,.06-2.49,9.32,9.32,0,0,1,0-1.4c0-.12-.07-.3,0-.36s.05-.36.11-.49a1.72,1.72,0,0,0,.1-.55c0-.12-.06-.3-.07-.48a5.5,5.5,0,0,1-.21-1c0-.85-.16-1.7-.18-2.55a1.73,1.73,0,0,0-.27-.78,10.38,10.38,0,0,1-.75-1.07c-.31-.42-.69-.77-1-1.19a3.06,3.06,0,0,0-.93-.82.81.81,0,0,1-.31-.3c-.25-.53-.74-.52-1.16-.57a.63.63,0,0,0-.66.14c-.12.12-.11.36-.23.49-.35.61-.63,1.29-1,1.9-.17.37-.53.63-.57,1.11l-.06.06c-.17.61-.7,1-.87,1.66a1.93,1.93,0,0,0-.51,1.11,1.81,1.81,0,0,1-.58,1.05c-.18.12-.17.36-.22.55a2.21,2.21,0,0,1-.23.67,12.75,12.75,0,0,0-.63,1.29.45.45,0,0,1-.35.31,1.18,1.18,0,0,1-.91-.09,8.37,8.37,0,0,0-1.1-.52,1.65,1.65,0,0,1-.31-.17,1.68,1.68,0,0,0-.8-.53,4.26,4.26,0,0,1-.92-.4,6.94,6.94,0,0,1-1.89-.74,3.73,3.73,0,0,0-.74-.28c-.18-.06-.36,0-.48-.11a2.28,2.28,0,0,1-.8-.59,2.17,2.17,0,0,1-.56-.53c-.19-.23-.49-.23-.79-.28s-.37-.11-.43-.23c-.38-.42-.8-.34-1.28-.33a5.59,5.59,0,0,0-.91.08,7.45,7.45,0,0,1-1.62.47,1.61,1.61,0,0,0-1.07.51,1.92,1.92,0,0,1-1,.52.5.5,0,0,0-.41.25,6.43,6.43,0,0,1-1,.69,5.88,5.88,0,0,0-1.13.94,11,11,0,0,0-.93,1.3,2.47,2.47,0,0,0-.46.86,3.73,3.73,0,0,1-.28.74,3.72,3.72,0,0,0-.51,1.34,1.82,1.82,0,0,1-.28.8,2.52,2.52,0,0,0-.39,1.41,1.6,1.6,0,0,1-.16.79,6.78,6.78,0,0,0-.49,2.07,9.39,9.39,0,0,1-.08,1.4,3.38,3.38,0,0,1-.22.73,6,6,0,0,0-.49,2.32c0,.24,0,.42,0,.67a1.44,1.44,0,0,0,.33,1,2.09,2.09,0,0,1,.51,1,1.14,1.14,0,0,0,.38.59,2,2,0,0,1,.31.36,1.61,1.61,0,0,0,.44.71,2.21,2.21,0,0,1,.5.6c.37.41.81.83,1.18,1.24.19.24.37.41.56.65a1.59,1.59,0,0,0,.62.47,2.11,2.11,0,0,1,.8.47.57.57,0,0,0,.42.17,1.36,1.36,0,0,1,.86.4c.19.11.31.29.49.35a3.35,3.35,0,0,1,1.29.69,3.66,3.66,0,0,0,.92.28c.35-.19.72-.2,1.07-.57a10,10,0,0,1,1.41-1.43,15.5,15.5,0,0,0,1.48-1.44A23.33,23.33,0,0,0,225,76a3.75,3.75,0,0,0,.52-.92.24.24,0,0,1,.06-.19,4.09,4.09,0,0,0,.69-1.23,1,1,0,0,1,.65-.56,1.31,1.31,0,0,1,.85,0c.24,0,.3.23.43.41a1.33,1.33,0,0,1,.26.84A1.05,1.05,0,0,0,228.32,75.13Z"/><path class="cls-2" d="M91.31,76.26l-.61,0a2.46,2.46,0,0,0-1.14.27,2.12,2.12,0,0,0-.82.93c-.06.13.2.48.38.54a.42.42,0,0,1,.24,0c.43.17.43.24.26.66a2.46,2.46,0,0,1-.64.93.74.74,0,0,0,0,1c.31.3.31.3.6.11a2.11,2.11,0,0,0,1.12-1.06.13.13,0,0,1,.12-.13c.54-.2.83-.75,1.49-.83.24-.06.47-.37.77-.44s.61,0,.91-.09.48-.07.66-.14l1,0c1.33-.1,2.66.11,3.93,0a.3.3,0,0,1,.24,0c.31.36.86.46,1.05,1a1.1,1.1,0,0,0,.25.24,2.86,2.86,0,0,1,.69.83c.13.18.43.29.5.53.19.54.62.84.88,1.31,0,.06.12.06.12.12a4.09,4.09,0,0,1,.15.85c0,.3,0,.66,0,1a3.25,3.25,0,0,1-.1.85,1.45,1.45,0,0,1-.28.73,2.93,2.93,0,0,0-.39,1.35,3.26,3.26,0,0,1-.56,1.53.93.93,0,0,0-.23.67,1.68,1.68,0,0,1-.27.92,2.38,2.38,0,0,0-.57,1.41c-.06.12,0,.24-.11.37a1.78,1.78,0,0,0-.57,1.35.78.78,0,0,1-.23.49c-.24.24-.47.49-.71.74,0,.06-.17.13-.23.19-.42.19-.78.45-1.13.64a2.36,2.36,0,0,1-.9.26,2.72,2.72,0,0,0-1.14.46,1.68,1.68,0,0,1-.72.32,15.85,15.85,0,0,1-1.69.17c-.3,0-.54-.11-.85-.1a1.91,1.91,0,0,1-.78-.1c-.13-.06-.31-.06-.43-.11A4,4,0,0,0,90,95.52a.21.21,0,0,1-.18,0c-.25-.18-.43-.42-.68-.59s-.55-.11-.68-.41c-.06-.12-.18-.11-.24-.23a.84.84,0,0,0-.68-.47c-.3,0-.49-.29-.8-.46-.55-.35-1-.83-1.6-1.18L85,92a3.26,3.26,0,0,0-.74-.59.63.63,0,0,1-.37-.41.67.67,0,0,0-.37-.3,5.73,5.73,0,0,1-1.24-.88c-.12-.11-.36-.23-.49-.35-.37-.29-.8-.52-1.17-.87a9.54,9.54,0,0,1-1-1.19c-.12-.18-.07-.42-.2-.6a5.47,5.47,0,0,0-.38-1,1.62,1.62,0,0,1-.26-.72A12.07,12.07,0,0,0,78,82.56a7.78,7.78,0,0,0-.33-1.14c-.19-.36-.2-.73-.39-1.09a.26.26,0,0,1,0-.3c.06-.24-.13-.48-.14-.72a2.84,2.84,0,0,0-.2-.73c-.07-.48-.45-.89-.52-1.44a2.28,2.28,0,0,0-.07-.3,3.57,3.57,0,0,0-.27-1.08c-.07-.24,0-.55-.2-.73a9.15,9.15,0,0,0-.34-1.32c0-.12-.06-.24-.07-.36a5.42,5.42,0,0,0,.08-1.7.4.4,0,0,0-.07-.24,1.82,1.82,0,0,1-.1-1.46v-.06a4.61,4.61,0,0,1,.2-1.58,10.75,10.75,0,0,0,.33-1.46c0-.13.17-.19.23-.31a6.08,6.08,0,0,0,.34-.92,2.77,2.77,0,0,1,.63-1.17c.23-.37.59-.74.82-1.11s.35-.62.52-.87a3.42,3.42,0,0,0,.33-1.28,4.73,4.73,0,0,1,.31-1.83.45.45,0,0,0,.12-.24,2.94,2.94,0,0,1,.44-1.59A2.86,2.86,0,0,1,80,57a2.48,2.48,0,0,0,.35-.49,1.62,1.62,0,0,1,.76-.93l.54-.38a2.91,2.91,0,0,1,.77-.38c.36-.07.72-.08,1.08-.15.19,0,.43,0,.55-.14a.29.29,0,0,1,.3,0,1.71,1.71,0,0,0,1,.1L91,54.5a10.6,10.6,0,0,1,1.88.19,6.15,6.15,0,0,0,1.81.14.89.89,0,0,1,.79.16,1.26,1.26,0,0,0,.67.16c.55,0,1.15.09,1.7.08a1.93,1.93,0,0,1,.79.28c.31.17.56.41.86.58a1.57,1.57,0,0,1,.81.95,2.55,2.55,0,0,0,.32.54,1.73,1.73,0,0,1,.5.65,2,2,0,0,0,.38.78,2.31,2.31,0,0,1,.44.66c.07.06.07.12.07.24a2.7,2.7,0,0,0,.64,1.44.89.89,0,0,1,.26.54,1.77,1.77,0,0,0,.2.6,3.13,3.13,0,0,1,.33,1,1,1,0,0,0,.38.84,1.37,1.37,0,0,1,.51,1A2.63,2.63,0,0,0,105,66.8a1.12,1.12,0,0,1,.25.36,2.12,2.12,0,0,0,.77,1.38l.38.9c-.11.36.2.6.33.84a1.86,1.86,0,0,1,.45,1.08,2,2,0,0,0,.45,1,1.62,1.62,0,0,1,.22,1.45v.07a5.63,5.63,0,0,1-1.42,1.25,2.15,2.15,0,0,1-.6.13,2.82,2.82,0,0,0-1,.45,2.53,2.53,0,0,1-1.31.46,9.81,9.81,0,0,1-1.26.34c-.12.18-.36.07-.48.13s-.49-.11-.67.14c0,.06-.24,0-.36-.11l-.91,0a6.11,6.11,0,0,1-1.82-.25c-.06,0-.12-.06-.18-.06-.6.08-1.15-.15-1.7-.07-1,.08-2-.13-3-.05C92.51,76.17,91.91,76.25,91.31,76.26Zm-1.22,6.53a9.16,9.16,0,0,1-1.27-.15c-.37-.11-.79-.1-1.1-.46a.78.78,0,0,0-.49-.23c-.61,0-.92-.4-1.23-.76a.45.45,0,0,1,0-.54l.24-.25a1.17,1.17,0,0,0,.46-.74.65.65,0,0,1,.41-.62.69.69,0,0,0,.4-.8,1.42,1.42,0,0,0-.57-.89c-.12-.06-.24-.18-.36-.23s-.25-.3-.26-.42a2,2,0,0,1,.76-.93h.12a1.63,1.63,0,0,0,1.14-.46,1.58,1.58,0,0,1,.9-.45c.84,0,1.68-.22,2.53-.18a13.44,13.44,0,0,1,2.3.06,3.33,3.33,0,0,0,1.09,0,3.79,3.79,0,0,1,1.45.14,11.27,11.27,0,0,0,1.4.21c.06,0,.12,0,.18,0s.36,0,.49.11.36-.07.54-.07.42-.2.6-.26a16.4,16.4,0,0,1,1.68-.29c.3-.07.66-.08,1-.15.07,0,.12-.06.18-.12a1.9,1.9,0,0,1,1.08-.52.45.45,0,0,0,.24-.12,2,2,0,0,1,.83-.63c.24-.07.23-.25.29-.37a1.05,1.05,0,0,0,0-.61,5.75,5.75,0,0,1-.27-1,1.14,1.14,0,0,0-.38-.72,1.12,1.12,0,0,1-.38-.66,1.81,1.81,0,0,0-.51-1.2,1.33,1.33,0,0,1-.39-.78,2.13,2.13,0,0,0-.38-.77,1.9,1.9,0,0,1-.38-.78,4.33,4.33,0,0,0-.64-1.38,2.36,2.36,0,0,1-.32-.72,1.19,1.19,0,0,0-.32-.66,2,2,0,0,1-.58-1.26.86.86,0,0,0-.39-.83,1.67,1.67,0,0,1-.51-1.14,1.21,1.21,0,0,0-.38-.78,1.53,1.53,0,0,1-.51-.84,1,1,0,0,0-.31-.41,2.65,2.65,0,0,0-.38-.42C97.7,57.48,97.45,57,97,57c-.18,0-.36-.05-.6,0a3.61,3.61,0,0,1-1.76-.38c-.13-.06-.25-.18-.37-.17-.6,0-1.15,0-1.7-.08a12.75,12.75,0,0,0-1.51,0c-.12,0-.24.07-.36,0a1,1,0,0,0-.91,0,1.38,1.38,0,0,1-.72.08,6.11,6.11,0,0,1-1.81-.07,1.31,1.31,0,0,0-1,.08.35.35,0,0,1-.42-.05c-.13,0-.31.07-.49.08a2.56,2.56,0,0,0-1.62.46.06.06,0,0,0,0,.07,1.26,1.26,0,0,0-.84.5,6.67,6.67,0,0,0-.76,1c-.17.31-.47.56-.34.92-.17.25-.1.61-.4.8-.12.07-.17.37-.17.55a8.68,8.68,0,0,0-.07,1.76c0,.06,0,.19,0,.25a1.43,1.43,0,0,1-.34.79c-.12.07-.24.19-.24.25a2.54,2.54,0,0,1-.76,1,.66.66,0,0,0-.23.49.54.54,0,0,1-.34.62.94.94,0,0,0-.58,1,1.26,1.26,0,0,1-.17.67,4.49,4.49,0,0,0-.6,2.32c0,.85.1,1.63.07,2.48s.16,1.64.18,2.42a4.39,4.39,0,0,0,.28,1.27,18.87,18.87,0,0,1,.81,3.19.45.45,0,0,0,.12.24,3.05,3.05,0,0,1,.52,1.2c.07.36.08.73.15,1.09a1.38,1.38,0,0,0,.51.9.93.93,0,0,1,.31.59A5.51,5.51,0,0,1,81,84.72a.79.79,0,0,0,.32.66,1.4,1.4,0,0,1,.52,1.14.66.66,0,0,0,.25.54c.74.65,1.43,1.36,2.17,2,.55.41,1,.94,1.54,1.29.25.17.32.41.56.53a2.36,2.36,0,0,1,.74.65c.25.29.62.34.87.58a5.48,5.48,0,0,0,1.41.93c.31.24.68.35,1,.58a2.77,2.77,0,0,0,.92.47,4.16,4.16,0,0,1,1.28.33c.25.11.49,0,.73.16a.78.78,0,0,0,.78-.14,1.2,1.2,0,0,1,.9-.33,1.66,1.66,0,0,0,1-.39,2.42,2.42,0,0,1,.9-.39.92.92,0,0,0,.65-.38c.18-.19.23-.43.47-.5a.59.59,0,0,0,.41-.61,1.58,1.58,0,0,1,.4-.93,1.34,1.34,0,0,0,.28-.67,1.69,1.69,0,0,1,.4-1,1.11,1.11,0,0,0,.39-1,.51.51,0,0,1,.29-.62c.48-.19.53-.62.52-1s0-.55,0-.85a.78.78,0,0,1,.23-.61,1.9,1.9,0,0,0,.51-1.11c.06-.24.17-.49,0-.72.12-.37-.19-.55-.38-.72s-.18-.12-.19-.24a2.21,2.21,0,0,1-.25-.48A.94.94,0,0,0,100,81c-.06,0-.07-.06-.13-.12-.31-.36-.5-.71-1-.88-.18-.06-.31-.24-.49-.29a.22.22,0,0,0-.18-.06,6.27,6.27,0,0,0-2.59.37,1.93,1.93,0,0,1-.84.21,1,1,0,0,0-.78.38,1.26,1.26,0,0,1-.65.44,2.55,2.55,0,0,0-.54.32c-.29.37-.64.68-1,1.06-.12.12-.23.18-.29.25C90.88,82.76,90.45,82.71,90.09,82.79Z"/><path class="cls-2" d="M36.16,66.38c-1,0-2,.23-3,.2a.75.75,0,0,0-.48.25,1.86,1.86,0,0,1-.53.26,1.11,1.11,0,0,0-.82,1.11c0,.19,0,.37-.17.49a.93.93,0,0,0-.28.8l0,.67a2.15,2.15,0,0,0,.13.6c.07.18-.05.24-.23.25s-.18.12-.3.13-.24.13-.3.31a1.23,1.23,0,0,1-.22.49.3.3,0,0,1-.36.19.46.46,0,0,0-.3.13c-.18.07-.42.31-.6,0-.07-.06-.19,0-.31,0-.42,0-.67-.28-.74-.7a1.58,1.58,0,0,1,.45-1.23,1.82,1.82,0,0,0,.33-1.22c-.07-.54.15-1.1.08-1.64a.5.5,0,0,1,.11-.31,2.63,2.63,0,0,1,1.11-1.42,2.55,2.55,0,0,0,.54-.32,2.05,2.05,0,0,1,.6-.26A15.3,15.3,0,0,1,32.43,65a2.49,2.49,0,0,1,1.15-.09,9,9,0,0,0,1.21.09A3.9,3.9,0,0,0,36,64.87a10.07,10.07,0,0,1,1.44-.16,16,16,0,0,1,1.81-.17c.42-.32.91-.09,1.33,0a3,3,0,0,1,1.16.58.7.7,0,0,1,.32.6.59.59,0,0,0,.26.41,2.35,2.35,0,0,1,.63,1,1,1,0,0,0,.25.42,1.86,1.86,0,0,1,.45,1.08,3.44,3.44,0,0,0,.32.78A4.76,4.76,0,0,1,44.68,71c.07.12.07.24.13.36a3.58,3.58,0,0,1,.33,1.14c.08.42.27.78.34,1.14a5,5,0,0,1,.26.91c0,.06.07.12.07.18.07.6.15,1.2.17,1.81s.21,1.39.17,2.06a2.58,2.58,0,0,0,.27.9,4.22,4.22,0,0,1,.14.79,2.56,2.56,0,0,0,.14.9c.13.3,0,.61.15.91a1.69,1.69,0,0,1,0,1c0,.66.28,1.32.18,2a2.68,2.68,0,0,0-.11.67,2.87,2.87,0,0,0,0,.67,3.25,3.25,0,0,1,.15,1,2.31,2.31,0,0,1-.33,1.16,2.36,2.36,0,0,0-.28.73,1.62,1.62,0,0,1-.34.86c-.36.37-.52.92-.88,1.3A4.65,4.65,0,0,0,45,92a3.22,3.22,0,0,1-.58.93.71.71,0,0,0-.23.49,2.37,2.37,0,0,1-.46,1,1.57,1.57,0,0,0-.35.49,1.59,1.59,0,0,1-.59.69.56.56,0,0,1-.42.13,3.65,3.65,0,0,1-1.94-.37,4.89,4.89,0,0,1-.49-.23c-.18-.06-.37-.11-.37-.36l-.06-.06a6.42,6.42,0,0,1-1.37-1.23c-.49-.48-1.1-.76-1.48-1.36a1.23,1.23,0,0,0-.68-.35,5.66,5.66,0,0,1-1.65-.74,1.41,1.41,0,0,1-.69-1c-.13-.48-.45-1-.58-1.5a.5.5,0,0,1,0-.43,1,1,0,0,0,0-.6,3.5,3.5,0,0,1-.34-1.57,1.88,1.88,0,0,0-.21-1,3.23,3.23,0,0,1-.34-1.5,2.38,2.38,0,0,0-.15-.91c-.07-.3.05-.61-.14-.9-.07-.12,0-.31,0-.49s-.13-.24-.14-.36a1.43,1.43,0,0,0-.32-.9c-.07-.18-.19-.36-.07-.42a1.16,1.16,0,0,0,0-1.09,4.92,4.92,0,0,1-.16-1.33c.18-.19.11-.43.11-.61l0-.67a1.43,1.43,0,0,0-.14-.85c-.13-.24,0-.54-.15-.78-.06-.06,0-.18,0-.24.18-.13.11-.37.11-.49a3.4,3.4,0,0,1,.09-1.16,1.24,1.24,0,0,0,0-1v-.18c.18-.37.23-.79.58-1a.88.88,0,0,1,1.46.32.21.21,0,0,0,.06.12c.25.12.14.36.26.54a.66.66,0,0,1-.11.55c-.11.18,0,.3-.11.43,0,1.15.07,2.3.1,3.45a9.79,9.79,0,0,0,.21,1.15,2.74,2.74,0,0,1,0,1.21c0,.06-.06.18-.05.24.19.36.08.73.15,1.09a2.57,2.57,0,0,0,.13.66,1.12,1.12,0,0,0,.14.61,1.77,1.77,0,0,1,.14.84,16.48,16.48,0,0,0,.47,1.75c0,.06.13.12.13.12-.06.24.13.48.14.72,0,.73.16,1.45.18,2.18a1.23,1.23,0,0,0,.13.48c.19.54.27,1.09.4,1.57.13.3.08.66.27.9,0,.43.26.6.62.77a3,3,0,0,1,.5.35,2.45,2.45,0,0,0,.67.47c.13.06.19.12.31.17a8.79,8.79,0,0,0,.8.65c.07.06.19.06.25.12.19.47.74.64,1,1.06s.62.47.93.7.72,0,.9-.32a2.69,2.69,0,0,1,.64-1,4.13,4.13,0,0,0,.28-.86.66.66,0,0,1,.22-.55,1.88,1.88,0,0,0,.53-.8,2.2,2.2,0,0,1,.4-.62c.24-.25.23-.61.34-.86a5,5,0,0,1,.4-1A1.81,1.81,0,0,0,44.65,86c-.06-.18-.13-.36-.07-.43a4.56,4.56,0,0,0,.09-1.27c0-.12-.07-.24,0-.37s.05-.24,0-.24c-.18-.24,0-.55-.2-.78s-.13-.49-.26-.72a.92.92,0,0,1-.13-.55l0-.91c0-.48-.2-.9-.16-1.39a5.39,5.39,0,0,0,0-1.39,2,2,0,0,0-.39-.9c-.06-.06-.12-.12-.12-.18a2.48,2.48,0,0,0-.14-.66,2.93,2.93,0,0,1-.16-1.27,8.83,8.83,0,0,0-.17-1.88,1.25,1.25,0,0,0-.44-.83,1.16,1.16,0,0,1-.33-.85,1.09,1.09,0,0,0-.13-.6c-.07-.18,0-.42-.14-.6a1,1,0,0,0-.19-.36,1.74,1.74,0,0,1-.58-1.26.55.55,0,0,0-.19-.42,1.74,1.74,0,0,1-.63-.95,1.46,1.46,0,0,0-1.36-.94,17.13,17.13,0,0,0-1.75.05C37,66.48,36.58,66.31,36.16,66.38Z"/><path class="cls-2" d="M33.07,45.72l1.09,0a2.81,2.81,0,0,1,1.71.5.72.72,0,0,0,.36.11,19.46,19.46,0,0,1,1.84.86c.12.06.18.12.3.18l1,.94c.49.47.56.71.4,1.51a3.56,3.56,0,0,0-.1.79,1.41,1.41,0,0,0,.14.72,2.07,2.07,0,0,1,.14.85.55.55,0,0,1-.53.62l-1.2,0a.58.58,0,0,1-.31-.17c-.19-.48-.45-.9-.64-1.32a1.3,1.3,0,0,1,0-.85,1.33,1.33,0,0,0-.09-1A2.43,2.43,0,0,0,36,48.37c-.06-.06-.12-.06-.18-.12a1.22,1.22,0,0,0-.86-.46,1.84,1.84,0,0,1-.61-.35,1.36,1.36,0,0,0-1.69.17,8.08,8.08,0,0,1-1.36,1.13c-.06.06-.12.18-.18.24a10.41,10.41,0,0,1-.63,1.11.89.89,0,0,0-.17.67.6.6,0,0,0,.26.54.78.78,0,0,1,.25.36,2,2,0,0,1,0,1A8.27,8.27,0,0,0,30.57,54c0,.24-.17.49,0,.67-.24.31-.11.61-.1.91a1.58,1.58,0,0,0,.76,1.31c.19.12.43,0,.61.17a1.72,1.72,0,0,1,.61.29,1.48,1.48,0,0,0,1.1.39,2.24,2.24,0,0,0,1.08-.15l.36-.19c.12-.12.18-.31.42-.31.17-.25.53-.26.71-.51a5.53,5.53,0,0,1,.53-.62c.17-.24.41-.43.58-.68s.42-.37.59-.56.3-.31.48-.38a2.07,2.07,0,0,1,1.32-.09,3.32,3.32,0,0,1,.49.11.92.92,0,0,1,.33,1.14,3.06,3.06,0,0,1-.63,1.05c-.18.18-.29.43-.47.62a13.84,13.84,0,0,0-1.06,1,.2.2,0,0,1-.12.07c-.18.12-.42.07-.6.32s-.35.25-.47.43a1.3,1.3,0,0,1-.78.33,9.92,9.92,0,0,0-1.38.34,1.34,1.34,0,0,1-.66,0,3,3,0,0,0-1.22-.28H33c-.43-.36-1-.16-1.46-.45h-.18c-.26-.36-.68-.35-1-.52a2.13,2.13,0,0,1-.79-.47,1.19,1.19,0,0,0-.86-.4c-.36,0-.68-.41-.75-.83a2.36,2.36,0,0,1,.1-.91,1.14,1.14,0,0,0,.11-.43,16.17,16.17,0,0,0-.05-1.7,2.68,2.68,0,0,1,.16-1,2,2,0,0,0,0-.85c-.07-.54-.32-1-.34-1.51a2.36,2.36,0,0,1,.63-1.59c.11-.12.29-.31.29-.49a1.46,1.46,0,0,1,.46-.86,3,3,0,0,1,1.18-1c.06,0,.12-.13.18-.19a1.8,1.8,0,0,1,1.25-.58A4.1,4.1,0,0,0,33.07,45.72Z"/><path class="cls-2" d="M107.88,53.63a5.45,5.45,0,0,1,.15-1.34,2.48,2.48,0,0,0,0-1.15c-.08-.42-.27-.84-.34-1.33a6.68,6.68,0,0,1-.15-1.08,2.35,2.35,0,0,1,.32-1.41c.18-.24,0-.54.23-.73a1.8,1.8,0,0,1,.81-1.17.69.69,0,0,1,.24-.19.74.74,0,0,0,.47-.56,1.61,1.61,0,0,1,.94-.94,3.12,3.12,0,0,0,.83-.44.83.83,0,0,1,.66-.2,4.23,4.23,0,0,1,.92.16.27.27,0,0,1,.3.23c.07.18.31.3.5.41a1.88,1.88,0,0,1,.55.41,1,1,0,0,0,.74.47,1.43,1.43,0,0,1,1,.64,3.1,3.1,0,0,1,.65,2c0,.25-.1.55-.16.8,0,.06,0,.12,0,.18-.05.42.14.78-.09,1.21a6.19,6.19,0,0,0-.4,1c0,.3-.35.49-.46.8s-.17.55-.28.79c-.23.43-.52.8-.75,1.3s-.59.68-.7,1.11c-.41.37-.83.68-1.24,1.06h-.12c-.55,0-.9.33-1.31.64a6.4,6.4,0,0,1-1.37.77.51.51,0,0,1-.55-.11,1.51,1.51,0,0,0-.43-.23c-.49-.11-.56-.53-.57-.9a8.22,8.22,0,0,0-.28-1.38A2.45,2.45,0,0,1,107.88,53.63Zm6.3-6.29c0-.37-.25-.54-.32-.84-.43-.17-.68-.59-1-.88-.07-.06-.19-.06-.25-.12s-.24,0-.36,0a6.69,6.69,0,0,0-.71.63,2.19,2.19,0,0,1-.83.62.63.63,0,0,0-.35.44,13.24,13.24,0,0,0-.21,1.4c0,.67,0,1.33.06,2,0,.12,0,.18,0,.3a2.5,2.5,0,0,1,0,1.64,1,1,0,0,0,.14.9c.19.3.25.36.74.29a.52.52,0,0,0,.41-.44,2.19,2.19,0,0,1,.52-.92,3.6,3.6,0,0,0,.35-.5,2.15,2.15,0,0,1,.4-.61,1.33,1.33,0,0,0,.35-.62,3.79,3.79,0,0,1,.45-1.16c.06-.07.12-.13.12-.19.11-.43.22-.91.33-1.34A4.28,4.28,0,0,0,114.18,47.34Z"/><path class="cls-2" d="M457.36,21.79V21.6c.05-.06.05-.18.17-.24a.25.25,0,0,1,.3.05.48.48,0,0,1,.26.54c0,.06-.12.18-.23.25C457.55,22.27,457.43,22.15,457.36,21.79Z"/><path class="cls-2" d="M286.43,84.58c0-.18,0-.3,0-.37a1,1,0,0,0-.45-1c-.43-.3-.33-.78-.34-1.27.24-.19.35-.49.65-.62a7.36,7.36,0,0,0,1-.51,5.12,5.12,0,0,1,1.32-.4,9.4,9.4,0,0,1,1.39-.16,1.68,1.68,0,0,1,.79.1c.24.11.54-.08.79.1.66,0,1.27.33,1.94.19a.66.66,0,0,1,.74.71c0,.18-.05.36.07.48s-.05.25-.05.43a1,1,0,0,0,.26.72.56.56,0,0,1,.08.73c-.23.43-.4.85-.63,1.29-.05.06-.11.18-.23.18a1.2,1.2,0,0,0-.53.56c-.12.31-.42.26-.66.38s-.48,0-.66.14a2.57,2.57,0,0,0-1.44.47,2,2,0,0,1-1.32.15,2.76,2.76,0,0,1-1.16-.45,3.66,3.66,0,0,0-.92-.28.72.72,0,0,1-.55-.47A6.15,6.15,0,0,1,286.43,84.58Zm3.33.34c.24-.07.48,0,.72-.08.48-.2.9-.51,1.38-.71s.41-.49.52-.8a.8.8,0,0,0-.32-.72,1.27,1.27,0,0,0-1.1-.46,1.55,1.55,0,0,0-1.27,0c-1,.45-1.31.88-1.16,1.79a1.06,1.06,0,0,0,.62.89C289.34,84.93,289.52,84.86,289.76,84.92Z"/><path class="cls-2" d="M322.21,63.86h.42a1.44,1.44,0,0,1,1.1.4c.5.41.93.82,1.42,1.17a1.53,1.53,0,0,0,.68.35c.49.11.86.52,1.35.63a5,5,0,0,1,.38.72c.06.18-.11.36-.29.55a1.71,1.71,0,0,1-1.37.64,3,3,0,0,1-.79,0c-.24-.11-.48,0-.67-.1s-.48-.11-.73-.16a1.8,1.8,0,0,0-.85-.1,8.81,8.81,0,0,1-1.33-.21,5.31,5.31,0,0,1-1-.09,7.71,7.71,0,0,0-1.15-.15,3.35,3.35,0,0,1-1-.4.54.54,0,0,1,0-.85,10.82,10.82,0,0,0,1.06-.82c.06-.06.06-.12.12-.18a1.89,1.89,0,0,1,.53-.44,1.33,1.33,0,0,0,.53-.5c.06-.12.23-.37.3-.31.24,0,.41-.19.66-.14Z"/><path class="cls-2" d="M353.53,75.47a7.37,7.37,0,0,0,0-1.15,4.8,4.8,0,0,1-.15-.91c0-.42.1-.79.09-1.21a9.12,9.12,0,0,1,0-1.28,1.64,1.64,0,0,1,.34-.73c.18-.19.29-.44.53-.56a4.82,4.82,0,0,0,.65-.57,1.35,1.35,0,0,1,.78-.32c.6,0,1.26-.21,1.87-.17.23-.25.6,0,.84-.26l.71-.57c.18-.13.29-.31.47-.38s.36-.19.48-.13a3.73,3.73,0,0,1,.74.28.92.92,0,0,1,.27,1,.76.76,0,0,0-.06.36,13.09,13.09,0,0,0,0,1.4,12,12,0,0,1-.08,1.58.43.43,0,0,1-.11.24,1.74,1.74,0,0,0-.45,1.23c0,.3-.17.49-.1.79,0,.06-.12.18-.24.25a1.26,1.26,0,0,0-.45,1.22.66.66,0,0,1-.34.74.58.58,0,0,0-.24.31,3.53,3.53,0,0,1-.75,1.17c-.12.12-.24.31-.35.43a1.47,1.47,0,0,1-1.25.7l-.91,0a3.16,3.16,0,0,1-.79-.1.65.65,0,0,1-.43-.36,3.43,3.43,0,0,0-.51-.77,1.47,1.47,0,0,1-.51-1.2A7,7,0,0,1,353.53,75.47Zm2.28-.67,0,1.09c0,.37.25.48.44.66h.18c.12-.06.3-.13.36-.25.16-.49.52-.92.68-1.41.06-.18.06-.37.11-.49a11.8,11.8,0,0,1,.8-2,11.5,11.5,0,0,0,.51-1.29c.16-.49,0-.91-.45-.9-.61,0-1.34-.14-1.8.54-.06.06-.12.12-.18.12a1.41,1.41,0,0,0-.64.81,4.14,4.14,0,0,0-.16.91,3.75,3.75,0,0,0,.15,1.15C355.85,74,355.8,74.38,355.81,74.8Z"/><path class="cls-2" d="M217.57,68.57a3.26,3.26,0,0,1,.21-1.47,2.41,2.41,0,0,0,0-.6,1.82,1.82,0,0,1,.45-1.35,1.8,1.8,0,0,0,.23-.43c.17-.31.28-.61.64-.74.29-.44.83-.63,1.12-1.12s.59-.63.76-1a.41.41,0,0,1,.24-.13,5.88,5.88,0,0,1,1,0c.18,0,.36.17.49.23s.37.29.55.41a3.7,3.7,0,0,1,.93.76c.12.18.37.3.43.48a2.12,2.12,0,0,1,.16,1.21c-.06.24,0,.48-.11.67a1.3,1.3,0,0,0-.1.67,5.64,5.64,0,0,1-.39,1.4c0,.06-.05.06-.05.12.07.49-.29.74-.58,1-.12.12-.17.31-.29.43-.23.31-.47.56-.64.81s-.3.31-.41.49a3.1,3.1,0,0,1-1.31,1,.94.94,0,0,1-1-.1c-.43-.35-.92-.52-1.35-.93a.67.67,0,0,0-.49-.17.4.4,0,0,1-.31-.3,1.66,1.66,0,0,1-.26-.84C217.58,69.05,217.58,68.87,217.57,68.57Zm5-3c0-.12,0-.24,0-.36s-.19-.42-.31-.42a1.31,1.31,0,0,0-.84.15,2.91,2.91,0,0,0-.77.93,2.25,2.25,0,0,1-.4.67c-.12.13-.3.31-.29.5a4.88,4.88,0,0,1-.21,1.34.41.41,0,0,0,.14.42.72.72,0,0,0,.9,0c.35-.37.65-.74.94-1.11a1.19,1.19,0,0,0,.11-.43.9.9,0,0,1,.34-.8A.8.8,0,0,0,222.57,65.58Z"/><path class="cls-2" d="M93.31,62.69l.48,0a1.12,1.12,0,0,1,1,.46v.06c.49.17.74.65,1.11.94a1.1,1.1,0,0,0,.49.17c.43,0,.61.23.62.65a1.68,1.68,0,0,1-.44,1.59.7.7,0,0,0-.11.37,2.49,2.49,0,0,1-.46.92,1.3,1.3,0,0,0-.29.43c-.17.31-.28.62-.71.63a1.42,1.42,0,0,1-1.38.16,1.53,1.53,0,0,0-.49,0,1.81,1.81,0,0,1-.92-.52c-.12-.12-.25-.3-.43-.35a.86.86,0,0,1-.5-.42,1.77,1.77,0,0,0-.61-.47,3.69,3.69,0,0,1-.56-.41,2.81,2.81,0,0,1-.49-.35.34.34,0,0,1-.13-.17A1.91,1.91,0,0,1,89.62,65l.7-1.11a1,1,0,0,1,.41-.26,2.22,2.22,0,0,0,1.08-.51A2,2,0,0,1,93,62.76.66.66,0,0,1,93.31,62.69Zm-1,3v.12a.91.91,0,0,0,.75,1,2.39,2.39,0,0,0,.67,0,.71.71,0,0,0,.65-.56c.06-.13-.2-.66-.32-.78s-.31-.12-.37-.24a.86.86,0,0,0-1-.33.47.47,0,0,0-.41.49C92.29,65.5,92.3,65.56,92.3,65.69Z"/></g></g></svg>