<?xml version="1.0" encoding="utf-8"?>
<!-- Generator: Adobe Illustrator 25.4.1, SVG Export Plug-In . SVG Version: 6.00 Build 0)  -->
<svg version="1.1" id="Laag_1" xmlns="http://www.w3.org/2000/svg" xmlns:xlink="http://www.w3.org/1999/xlink" x="0px" y="0px"
	 viewBox="0 0 765 185.7" style="enable-background:new 0 0 765 185.7;" xml:space="preserve">
<style type="text/css">
	.st0{fill:#FFFFFF;}
</style>
<g>
	<g>
		<g>
			<path class="st0" d="M138.3,541.3c87.4,15.4,176,24.1,264.7,25.3c22.6,0.3,45.2,0.1,67.8-0.5c12-0.3,23.6-10.3,23-23
				c-0.5-12.2-10.1-23.4-23-23c-84.9,2.4-170-1.8-254.2-12.8c-1.2-0.2-2.5-0.3-3.7-0.5c5.8,0.9-0.5-0.1-1.3-0.2
				c-2.8-0.4-5.5-0.8-8.3-1.2c-5.8-0.8-11.5-1.7-17.3-2.6c-11.8-1.8-23.6-3.8-35.4-5.9s-25.4,3.2-28.3,16.1
				C119.7,524.2,125.6,539.1,138.3,541.3L138.3,541.3z"/>
		</g>
	</g>
	<g>
		<g>
			<path class="st0" d="M440.5,566.5c71.8,0.6,143.6-11.7,211.2-35.8c11.3-4,20.1-15.9,16.1-28.3c-3.6-11.2-16.2-20.4-28.3-16.1
				c-30.2,10.8-61.2,19.2-92.8,25.1c-8.5,1.6-17,2.9-25.6,4.2c-2.6,0.4-2.4,0.3,0.7-0.1c-1.2,0.2-2.4,0.3-3.7,0.5
				c-2.5,0.3-4.9,0.6-7.4,0.9c-4.4,0.5-8.7,0.9-13.1,1.3c-19,1.7-38.1,2.4-57.2,2.3c-12-0.1-23.5,10.7-23,23
				C418,556.1,427.6,566.4,440.5,566.5L440.5,566.5z"/>
		</g>
	</g>
</g>
<g>
	<g>
		<g>
			<path class="st0" d="M147.5,144.8c14.9-4.6,30-8.5,45.2-11.6c7.3-1.5,14.7-2.8,22-4c3.7-0.6,7.4-1.1,11.1-1.6
				c6.3-0.9-5,0.6,1.3-0.2c2.5-0.3,5-0.6,7.4-0.9c31.1-3.5,62.4-4.8,93.6-4.8c64-0.1,127.9,5,191.9,5.5c36.6,0.3,73.2-1,109.6-5.5
				c6.3-0.8,11.6-2,16.3-6.7c4-4,7-10.5,6.7-16.3c-0.5-11.2-10.2-24.6-23-23c-65,8.1-130.7,5.7-196,3c-63.5-2.6-127.3-5.4-190.7,1
				c-36.4,3.7-72.6,9.9-107.6,20.8c-11.5,3.6-20,16.2-16.1,28.3C122.9,140.3,135.2,148.6,147.5,144.8L147.5,144.8z"/>
		</g>
	</g>
	<g>
		<g>
			<path class="st0" d="M611.5,124.5c11.6-2.3,23.2-4.6,34.8-6.9c11.8-2.4,19.7-17.1,16.1-28.3c-4.1-12.6-15.6-18.6-28.3-16.1
				c-11.6,2.3-23.2,4.6-34.8,6.9c-11.8,2.4-19.7,17.1-16.1,28.3C587.3,121,598.8,127,611.5,124.5L611.5,124.5z"/>
		</g>
	</g>
</g>
<g>
	<g>
		<g>
			<path class="st0" d="M146.5,348.2c32.2-7,64.7-13,97.4-17.6c3.2-0.5,6.4-0.9,9.5-1.3c-7,1-1.4,0.2,0.3,0c1.8-0.2,3.7-0.5,5.5-0.7
				c6-0.8,12.1-1.5,18.1-2.2c13.3-1.5,26.6-3,40-4.4c30.7-3.1,61.5-5.5,92.4-6.2c24.9-0.5,49.4,1.2,74.2,3.1
				c32.1,2.5,64.5,2,96.5-1.4c6.3-0.7,11.7-2.1,16.3-6.7c4-4,7-10.5,6.7-16.3c-0.5-11.4-10.2-24.4-23-23
				c-29.7,3.1-59.7,3.8-89.6,1.9c-23.5-1.5-46.7-3.9-70.2-3.8c-59.5,0.3-119.1,7.1-178,15c-36.4,4.9-72.5,11.3-108.4,19.2
				c-11.8,2.6-19.8,16.9-16.1,28.3C122.2,344.5,133.9,350.9,146.5,348.2L146.5,348.2z"/>
		</g>
	</g>
	<g>
		<g>
			<path class="st0" d="M586.6,316.7c24.4-3.6,47.5-10.9,70.2-20.5c4.9-2.1,9.2-8.9,10.6-13.8c1.5-5.5,0.8-12.8-2.3-17.7
				c-3.2-4.9-7.9-9.2-13.8-10.6c-6.5-1.5-11.7-0.2-17.7,2.3c2.3-1,3.4-1.4,0.4-0.2c-1.2,0.5-2.5,1-3.7,1.5c-2.3,0.9-4.6,1.7-6.9,2.6
				c-5.1,1.8-10.3,3.5-15.6,5c-11,3.1-22.1,5.4-33.4,7.1c-5.3,0.8-11.2,6.2-13.8,10.6c-2.9,4.9-4.1,12.2-2.3,17.7
				c1.8,5.6,5.2,10.9,10.6,13.8C574.7,317.5,580.1,317.7,586.6,316.7z"/>
		</g>
	</g>
	<path class="st0" d="M612.8,285.4"/>
</g>
</svg>
