<?xml version="1.0" encoding="utf-8"?>
<!-- Generator: Adobe Illustrator 25.4.1, SVG Export Plug-In . SVG Version: 6.00 Build 0)  -->
<svg version="1.1" id="Laag_1" xmlns="http://www.w3.org/2000/svg" xmlns:xlink="http://www.w3.org/1999/xlink" x="0px" y="0px"
	 viewBox="0 0 1125 920" style="enable-background:new 0 0 1125 920;" xml:space="preserve">
<style type="text/css">
	.st0{fill:#FFFFFF;}
</style>
<g>
	<g>
		<path class="st0" d="M336.49,288.76c14.87-4.62,29.95-8.48,45.21-11.6c7.31-1.49,14.66-2.82,22.03-3.99
			c3.69-0.59,7.38-1.12,11.08-1.65c6.26-0.9-4.99,0.58,1.29-0.16c2.47-0.29,4.95-0.61,7.42-0.89c31.07-3.55,62.37-4.77,93.63-4.8
			c64-0.06,127.86,5.01,191.85,5.47c36.59,0.27,73.22-1.03,109.56-5.53c6.32-0.78,11.58-2.05,16.26-6.74
			c3.99-3.99,6.99-10.53,6.74-16.26c-0.5-11.19-10.21-24.58-23-23c-65.05,8.05-130.68,5.68-195.99,2.99
			c-63.51-2.62-127.3-5.43-190.68,0.97c-36.43,3.68-72.62,9.95-107.63,20.84c-11.47,3.57-19.98,16.2-16.06,28.29
			C311.93,284.24,324.19,292.59,336.49,288.76L336.49,288.76z"/>
	</g>
</g>
<g>
	<g>
		<path class="st0" d="M335.54,492.15c32.24-7.05,64.73-12.96,97.4-17.64c3.18-0.45,6.36-0.87,9.53-1.33
			c-6.97,1-1.36,0.18,0.26-0.03c1.84-0.24,3.67-0.48,5.51-0.71c6.04-0.76,12.08-1.48,18.13-2.16c13.31-1.51,26.63-3,39.95-4.35
			c30.72-3.11,61.53-5.55,92.41-6.18c24.9-0.51,49.43,1.19,74.21,3.13c32.14,2.51,64.5,2,96.55-1.39
			c6.27-0.66,11.65-2.12,16.26-6.74c3.99-3.99,6.99-10.53,6.74-16.26c-0.51-11.38-10.19-24.35-23-23
			c-29.73,3.14-59.73,3.8-89.57,1.88c-23.47-1.51-46.67-3.89-70.25-3.77c-59.47,0.29-119.13,7.07-178.01,15.02
			c-36.37,4.91-72.51,11.33-108.37,19.16c-11.77,2.57-19.75,16.91-16.06,28.29C311.25,488.47,322.93,494.91,335.54,492.15
			L335.54,492.15z"/>
	</g>
</g>
<g>
	<g>
		<path class="st0" d="M327.29,685.26c87.37,15.43,175.96,24.1,264.68,25.27c22.6,0.3,45.2,0.11,67.79-0.53
			c12.02-0.34,23.57-10.33,23-23c-0.55-12.17-10.12-23.37-23-23c-84.9,2.41-169.96-1.82-254.19-12.82c-1.24-0.16-2.5-0.3-3.74-0.49
			c5.83,0.91-0.49-0.07-1.32-0.19c-2.77-0.38-5.54-0.77-8.3-1.17c-5.77-0.83-11.54-1.68-17.3-2.57
			c-11.82-1.82-23.62-3.78-35.39-5.86c-11.81-2.08-25.36,3.17-28.29,16.06C308.67,668.17,314.62,683.02,327.29,685.26L327.29,685.26
			z"/>
	</g>
</g>
<g>
	<g>
		<path class="st0" d="M629.5,710.5c71.76,0.56,143.58-11.74,211.17-35.78c11.31-4.02,20.08-15.87,16.06-28.29
			c-3.61-11.15-16.16-20.38-28.29-16.06c-30.22,10.75-61.22,19.23-92.75,25.1c-8.5,1.58-17.04,2.93-25.59,4.19
			c-2.63,0.36-2.41,0.34,0.68-0.08c-1.22,0.16-2.43,0.32-3.65,0.47c-2.45,0.31-4.91,0.6-7.36,0.87c-4.36,0.49-8.72,0.93-13.08,1.32
			c-19.01,1.7-38.1,2.43-57.18,2.28c-12.03-0.09-23.55,10.65-23,23C607.06,700.04,616.6,710.4,629.5,710.5L629.5,710.5z"/>
	</g>
</g>
<g>
	<g>
		<path class="st0" d="M775.61,460.68c24.44-3.56,47.54-10.86,70.23-20.49c4.92-2.09,9.23-8.87,10.57-13.75
			c1.52-5.51,0.83-12.84-2.32-17.72c-3.17-4.91-7.88-9.23-13.75-10.57c-6.45-1.47-11.7-0.24-17.72,2.32
			c2.32-0.99,3.39-1.41,0.41-0.21c-1.24,0.5-2.48,0.99-3.73,1.47c-2.3,0.89-4.61,1.74-6.94,2.56c-5.13,1.81-10.33,3.47-15.56,4.95
			c-10.97,3.11-22.14,5.43-33.42,7.07c-5.3,0.77-11.18,6.18-13.75,10.57c-2.89,4.93-4.11,12.2-2.32,17.72
			c1.8,5.57,5.25,10.93,10.57,13.75C763.73,461.45,769.14,461.62,775.61,460.68L775.61,460.68z"/>
	</g>
</g>
<g>
	<g>
		<path class="st0" d="M800.51,268.43c11.6-2.31,23.2-4.63,34.8-6.94c11.82-2.36,19.7-17.06,16.06-28.29
			c-4.06-12.56-15.63-18.59-28.29-16.06c-11.6,2.31-23.2,4.63-34.8,6.94c-11.82,2.36-19.7,17.06-16.06,28.29
			C776.28,264.92,787.85,270.95,800.51,268.43L800.51,268.43z"/>
	</g>
</g>
</svg>
