<svg xmlns="http://www.w3.org/2000/svg" viewBox="0 0 440 48"><defs><style>.cls-1{fill:#fff;}</style></defs><g id="Layer_2" data-name="Layer 2"><g id="Layer_1-2" data-name="Layer 1"><path class="cls-1" d="M135.57,24.85a33,33,0,0,0-.2-17.54c-.33-1.15-.53-2.34-.78-3.51-.3-1.4.18-2.37,1.28-2.75a2,2,0,0,1,2.58,1.57c.91,3.52,1.84,7.06,2.39,10.63.62,3.89-.2,7.73-.78,11.6a12.53,12.53,0,0,0,2.21,8.61,10.54,10.54,0,0,1,1.25,2.12c.45,1.22-.12,1.87-1,2.77-2.23,2.19-4.91,1.64-7.52,1.59a14.09,14.09,0,0,1-7.4-1.92c-3.29-2.09-4.14-5.29-2.26-8.68a5.42,5.42,0,0,0,.6-1.5,4.37,4.37,0,0,1,4.67-3.91,10.9,10.9,0,0,1,2.61.25A14.92,14.92,0,0,1,135.57,24.85Zm2.53,10.5a9.91,9.91,0,0,1-.9-2.42c-.23-3-2.21-3.84-4.79-4.14-1.11-.12-1.86-.05-2.13,1.22a5.67,5.67,0,0,1-.83,1.67A1.47,1.47,0,0,0,130,33.9a3.51,3.51,0,0,0,1.33.68C133.51,34.88,135.7,35.08,138.1,35.35Z"/><path class="cls-1" d="M188.82,23.9c2.26-.72,4.39-1.37,6.53-2.07a17.88,17.88,0,0,1,9.38-.2c1.8.35,2.68,2.72,1.85,5A9.61,9.61,0,0,1,203,31.16c-3.28,2.32-6.54,4.72-10.41,6.11-.27.1-.5.5-.65.8a2.49,2.49,0,0,1-2.18,1.62,2.28,2.28,0,0,1-2.38-1.29,15,15,0,0,1-1.28-3.87c-1-6.21-1.74-12.45-2.86-18.64a35.37,35.37,0,0,0-3.82-11c-.32-.58-1-.95-1.25-1.52a2.41,2.41,0,0,1-.28-1.8A1.85,1.85,0,0,1,179.57,1a6.4,6.4,0,0,1,2.61,1.52A9.22,9.22,0,0,1,184,5.29a41.9,41.9,0,0,1,4,13.62C188.2,20.58,188.55,22.23,188.82,23.9Zm.68,3.27c.58,2.09,1.1,4,1.63,6l3-1.13a22.58,22.58,0,0,0,7.55-4.29,3.66,3.66,0,0,0,1.55-3C198.18,23.08,194.09,26.1,189.5,27.17Z"/><path class="cls-1" d="M423.12,28c1.58-1.22,3.28-2.6,5.06-3.92a15.12,15.12,0,0,1,7-3.12,7.38,7.38,0,0,1,2.56.15,1.67,1.67,0,0,1,1,1c1.53,4.39,1.3,9,1.27,13.5a9.74,9.74,0,0,1-.37,3.06c-.23.65-1,1.13-1.48,1.68-.53-.53-1.33-.95-1.56-1.6a13.16,13.16,0,0,1-.57-3.54c-.16-2.77-.18-5.57-.28-8.33a9.8,9.8,0,0,0-.13-1.15c-1.93,1.17-3.73,2.19-5.46,3.29-2.36,1.5-4.6,3.14-7,4.52-1.8,1-3,.44-4-1.4a3,3,0,0,0-1-1.2,10.16,10.16,0,0,0-6-2c.43.82.75,1.5,1.13,2.12s.93,1.47,1.33,2.25.5,1.87-.38,2.32a2.81,2.81,0,0,1-2.38.17,10.88,10.88,0,0,1-4.72-7.43c-.2-1.72,1.18-3.35,3.11-4.07a8.62,8.62,0,0,1,6.58.37C419,25.67,421,26.87,423.12,28Z"/><path class="cls-1" d="M307.27,25c1.64-1.82,3.52-1.92,4.92,0a40.33,40.33,0,0,0,9,8.9,4.5,4.5,0,0,1,2.21,3.85A2.2,2.2,0,0,1,320.49,40a33.32,33.32,0,0,1-4.34-2.29,6.59,6.59,0,0,1-1.27-1c-.58-.57-1-.72-1.66,0a2,2,0,0,1-1.33.53,62.83,62.83,0,0,1-6.87-.3c-3.57-.48-5.19-3.79-3.64-7,.4-.84.68-1.77,1-2.67a16.36,16.36,0,0,1,.78-1.94C304.36,23.2,306,23.13,307.27,25Zm-.67,1.43c.1-.1,0,0-.08.07-.67,1.8-1.38,3.62-2,5.44a1.32,1.32,0,0,0,.6,1c1.76.07,3.51,0,5.4,0C309.18,30.71,307.88,28.57,306.6,26.45Z"/><path class="cls-1" d="M240.3,7.21a22.93,22.93,0,0,1,3.26,0,1.75,1.75,0,0,1,1.23.85,1.56,1.56,0,0,1-.55,1.35,9.5,9.5,0,0,1-2.61,1.34c-.9.3-1.28.55-1,1.63a67.56,67.56,0,0,1,1.88,8.73,36.23,36.23,0,0,1-.28,11.52,4.1,4.1,0,0,1-.23.73c-.35,1-.82,1.87-2.08,1.79a2,2,0,0,1-1.93-2,29.78,29.78,0,0,1-.1-5.34,28.42,28.42,0,0,0-.78-10.1c-.47-1.7-.82-3.44-1.28-5.24-.77.3-1.4.52-2.05.77s-1.58.35-1.83-.42a2.28,2.28,0,0,1,.52-1.82,5.6,5.6,0,0,1,2-1.32,2.16,2.16,0,0,0,1.4-2.22c0-1.57.28-3.15.46-4.69a4.5,4.5,0,0,1,.3-1.2A2.23,2.23,0,0,1,239,0,2.13,2.13,0,0,1,240.7,2.4C240.6,4,240.42,5.54,240.3,7.21Z"/><path class="cls-1" d="M158.55,34.3c-.45,2.52-.25,3,1.75,3.77,1.18.47,2.46.75,3.66,1.17a1.88,1.88,0,0,1,1.11.83c.1.25-.28.84-.6,1.09a5.06,5.06,0,0,1-5.65,1c-3.16-1.3-4.71-3.32-4.86-6.89-.08-1.72-.43-3.24.55-4.79a8.37,8.37,0,0,0,.4-1.82c.75-2.79,2.33-4,5.22-4l1.25,0c4.19-.13,6.5,2.07,6.57,6.28V31c.05,3.21-.82,4-4,3.74C162.13,34.58,160.35,34.43,158.55,34.3Zm5.19-4.06c-.18-1.27-.75-1.9-2-1.8-.45,0-.9,0-1.35,0-1.23,0-1.51.4-1.28,1.8Z"/><path class="cls-1" d="M35.51,35.2c1.1-.75,2-1.49,3-2a6.12,6.12,0,0,1,7.35.5c1.68,1.37,3.26,2.84,5.41,3.49a1.67,1.67,0,0,1,1,1.25c0,.42-.63,1-1.11,1.19a4.26,4.26,0,0,1-4.29-.37c-1.17-.78-2.25-1.7-3.36-2.57-1.3-1-1.93-1.07-3.41-.28a13,13,0,0,0-4.26,4.15,2.17,2.17,0,0,1-2.44,1.09,2.36,2.36,0,0,1-1.75-2.32,19.93,19.93,0,0,1,0-3,27.41,27.41,0,0,0-1.81-12.7A40.44,40.44,0,0,0,27.55,19c-.45-.82-.75-1.62.13-2.34a1.74,1.74,0,0,1,2.56.42A22.18,22.18,0,0,1,33,22.13a84.82,84.82,0,0,1,2.06,9.06C35.31,32.43,35.36,33.76,35.51,35.2Z"/><path class="cls-1" d="M354.41,31.71c1-.4,2-.8,3-1.12,1.78-.63,3.26-.08,3.91,1.39a2.67,2.67,0,0,1-1.68,3.65,33.82,33.82,0,0,1-5.92,1.92,3.27,3.27,0,0,1-4.11-3.67c.12-1.47.68-2.87.93-4.34s.37-3.27.52-4.91a23.3,23.3,0,0,0,.2-3.22,17.57,17.57,0,0,0-.47-2.75,5.83,5.83,0,0,1-.33-1.54c.23-2,.58-3.92.8-5.89a18.39,18.39,0,0,0,0-2.1,4,4,0,0,1,0-1.47c.23-.52.68-1.27,1.08-1.3a2,2,0,0,1,1.6.85,6.23,6.23,0,0,1,.88,5,24.47,24.47,0,0,0-.7,2.4,11,11,0,0,0,.1,4.34c.48,2.27.15,4.69.17,7.06C354.43,27.82,354.41,29.66,354.41,31.71Z"/><path class="cls-1" d="M5.23,25.35c-.08-1.52-.18-2.75-.2-4,0-.88.3-1.72,1.23-1.7a2.14,2.14,0,0,1,1.4,1.27,26.26,26.26,0,0,1,1.13,4.44c.15.85.48,1.13,1.25,1.2a6.48,6.48,0,0,1,1.71.33A1.91,1.91,0,0,1,13.1,29a2,2,0,0,1-1.78,1.82,4.85,4.85,0,0,1-.87.08c-2.14-.13-2.11-.13-1.76,1.89.05.33.08.65.1,1,.2,3.09.45,6.19.6,9.28a12.81,12.81,0,0,1-.12,3.09A2,2,0,0,1,7.06,48a2.24,2.24,0,0,1-2.21-1.87,7.67,7.67,0,0,1-.2-2c0-1.52,0-3.07.1-4.59s.35-2.87.45-4.29a16.76,16.76,0,0,0,0-2.35c0-.75-.17-1.47-.15-2.22,0-1.45-.3-1.79-1.7-2.22A9.1,9.1,0,0,1,.61,27.14,1.45,1.45,0,0,1,.34,25c.52-.72,1.23-.67,2-.4S4.25,25.07,5.23,25.35Z"/><path class="cls-1" d="M216.24,31.51c.5-2.64.91-5.29,1.51-7.88A17.89,17.89,0,0,1,219.18,20a1.46,1.46,0,0,1,1.1-.72,1.44,1.44,0,0,1,.95.94,9.44,9.44,0,0,1,.61,3.5c-.46,3.44-1.13,6.83-1.79,10.25a5.44,5.44,0,0,1-.9,1.9c-1.55,2.32-4.29,2.54-5.92.25a9.39,9.39,0,0,1-1.7-4.3,46,46,0,0,1,.22-6.93,1.62,1.62,0,0,1,.38-1c.42-.4,1-.9,1.48-.88a1.8,1.8,0,0,1,1.2,1.13c.3,1.39.35,2.86.53,4.29.12,1,.3,2.09.43,3.14A3.68,3.68,0,0,0,216.24,31.51Z"/><path class="cls-1" d="M328.22,15.12c.1-1.37.2-2.72.35-4.09.1-.85.48-1.55,1.46-1.57a1.58,1.58,0,0,1,1.65,1.39,5.68,5.68,0,0,1,.2,1.48,46.64,46.64,0,0,0,1.38,12.17c.68,3.14,1.41,6.29,2,9.45A42.92,42.92,0,0,1,335.6,39a1.3,1.3,0,0,1-.21.95c-.45.52-1,1.29-1.53,1.32a2.29,2.29,0,0,1-1.68-1.12,10.76,10.76,0,0,1-.62-2.77c-.83-4.82-1.66-9.63-2.44-14.45-.42-2.59-.77-5.21-1.15-7.83A.69.69,0,0,0,328.22,15.12Z"/><path class="cls-1" d="M67.16,29.49c0-.15,0-.2,0-.23-.83-3.34.27-5.33,3.74-6,3.73-.7,6.24.42,7.6,3.76.7,1.75.3,2.77-1.46,3.42-1.33.5-2.66.95-4.21,1.5.55.95,1,1.82,1.53,2.72a20.91,20.91,0,0,1,1.25,2.79c.08.25-.35.85-.68,1a2.43,2.43,0,0,1-2.88-.94,37.78,37.78,0,0,1-2.66-3.74c-.35-.55-.65-.88-1.38-.7a2.11,2.11,0,0,1-1.45-.1c-.53-.3-1.16-.83-1.23-1.33s.42-1.14.8-1.62C66.36,29.76,66.79,29.69,67.16,29.49Zm7.5-2.07a3.09,3.09,0,0,0-3.56-.05c-.17.07-.32.55-.22.67s.52.43.72.35C72.53,28.14,73.46,27.82,74.66,27.42Z"/><path class="cls-1" d="M387,37.12a8.34,8.34,0,0,1-7.17-3.44,21.19,21.19,0,0,1-3.34-7.31,1.64,1.64,0,0,1,.85-2.12,1.77,1.77,0,0,1,2.41.65c.43.7.65,1.52,1,2.24a50.59,50.59,0,0,0,2.64,4.59,3.7,3.7,0,0,0,4,1.25,2.63,2.63,0,0,0,1.53-1.42,19.13,19.13,0,0,0,.83-3c.38-1.25.95-2.32,2.38-2.59s2.34.55,2,2a43.3,43.3,0,0,1-1.73,5.31A6.1,6.1,0,0,1,387,37.12Z"/><path class="cls-1" d="M130.6,12.6c.15.1.75.3.86.62a1.76,1.76,0,0,1-.36,1.43,21.36,21.36,0,0,1-2.91,2.54,5.15,5.15,0,0,1-1.8.5,5.72,5.72,0,0,1-.45-2.05C126.16,14.15,128.47,12.63,130.6,12.6Z"/></g></g></svg>